<?xml version="1.0" encoding="utf-8"?>
<!-- Generator: Adobe Illustrator 25.2.2, SVG Export Plug-In . SVG Version: 6.00 Build 0)  -->
<svg version="1.1" id="Layer_1" xmlns="http://www.w3.org/2000/svg" xmlns:xlink="http://www.w3.org/1999/xlink" x="0px" y="0px"
	 viewBox="0 0 1600 1200" style="enable-background:new 0 0 1600 1200;" xml:space="preserve">
<style type="text/css">
	.st0{fill:#E8E8E8;}
	.st1{fill:#FFFFFF;stroke:#161616;stroke-width:3;stroke-miterlimit:10;}
	.st2{fill:#161616;}
	.st3{fill:#EC615B;}
	.st4{opacity:0.4;fill:#3D3D3D;enable-background:new    ;}
	.st5{opacity:0.38;fill:#3D3D3D;enable-background:new    ;}
	.st6{opacity:0.42;fill:#3D3D3D;enable-background:new    ;}
	.st7{fill:none;stroke:#161616;stroke-width:16;stroke-miterlimit:10;}
	.st8{fill:#5222D0;}
	.st9{fill:none;stroke:#161616;stroke-width:3;stroke-miterlimit:10;}
	.st10{opacity:0.37;fill:#3D3D3D;enable-background:new    ;}
	.st11{opacity:0.5;fill:#3D3D3D;enable-background:new    ;}
	.st12{opacity:0.32;fill:#3D3D3D;enable-background:new    ;}
	.st13{opacity:0.29;fill:#3D3D3D;enable-background:new    ;}
	.st14{fill:#FFFFFF;}
	.st15{opacity:0.48;fill:#3D3D3D;enable-background:new    ;}
	.st16{opacity:0.27;fill:#3D3D3D;enable-background:new    ;}
	.st17{opacity:0.36;fill:#3D3D3D;enable-background:new    ;}
	.st18{opacity:0.43;fill:#3D3D3D;enable-background:new    ;}
</style>
<g id="background">
	<g>
		<g>
			<path class="st0" d="M522.6,284.4c0.1-1.9-2.9-1.9-2.9-0.1c-0.2,3-0.3,6.1-0.5,9.2c0.4-0.4,0.7-0.9,1.1-1.4
				c-24.1,3.3-48.4,4.9-72.7,5.4c-83.9,1.8-167.9-8.5-251.6-0.3c0.4,0.4,0.9,0.7,1.4,1.1c-0.8-4.1-1.7-8.2-2.5-12.3
				c-0.4-1.9-3.3-1.1-2.9,0.8c0.8,4.1,1.7,8.2,2.5,12.3c0.1,0.6,0.8,1.2,1.4,1.1c23.8-2.3,47.6-3.2,71.5-3.2
				c84.5-0.2,169.4,9.6,253.6-2c0.7,0,1.1-0.8,1.1-1.4C522.3,290.6,522.4,287.5,522.6,284.4L522.6,284.4z"/>
		</g>
	</g>
	<g>
		<g>
			<path class="st0" d="M520.1,285.9c1.9,0,1.9-3,0-3c-24,0-48,0-72,0c-84.6,0-169.3,0-253.9,0c-1.9,0-1.9,3,0,3c24,0,48,0,72,0
				C350.8,285.9,435.5,285.9,520.1,285.9L520.1,285.9z"/>
		</g>
	</g>
	<g>
		<g>
			<path class="st0" d="M501.9,283.5c0.1,1.9,3.1,1.9,2.9,0c-1.6-22.2-3.1-44.5-4.7-66.7c-1.5-21.2-1.3-43.5-6.6-64.2
				c-0.1-0.4-0.5-0.9-1-1c-6.2-1.3-13.6-3.5-20-3c-4.2,0.4-5.6,3.5-6.5,7.2c-3.3,13.2-2.9,26.9-2.1,40.3c1.8,29.2,4.2,58.3,6.4,87.5
				c0.1,1.9,3.1,1.9,3,0c-1.5-20.4-3-40.8-4.5-61.2c-1.3-17.6-3.6-35.5-2-53.1c0.3-3,0.7-6,1.3-9c0.3-1.7,0.5-4.6,1.4-6
				c3.2-4.7,10.9-1.9,15.5-1.1c2,0.3,4.8,0.3,6.1,2.1c1,1.4,1.1,4.9,1.4,6.6c0.8,4.6,1.3,9.2,1.7,13.9
				C497.3,211.6,499.4,247.6,501.9,283.5L501.9,283.5z"/>
		</g>
	</g>
	<g>
		<g>
			<path class="st0" d="M464.7,193.2c0.7-1.8-2.2-2.6-2.9-0.8c-12.1,30.4-24.9,60.6-38.3,90.5c-0.8,1.7,1.8,3.3,2.6,1.5
				C439.6,254.3,452.5,223.9,464.7,193.2L464.7,193.2z"/>
		</g>
	</g>
	<g>
		<g>
			<path class="st0" d="M462.1,177.1c0.6,1.8,3.5,1.1,2.9-0.8c-3-8.6-12.3-13.6-21.1-11.1c-1.9,0.5-1.1,3.4,0.8,2.9
				C451.9,166.1,459.6,170,462.1,177.1L462.1,177.1z"/>
		</g>
	</g>
	<g>
		<g>
			<path class="st0" d="M444.7,168.7c0.9-1.8-1.7-3.3-2.6-1.5c-19.8,38.4-39.5,76.9-59.3,115.3c-0.9,1.7,1.7,3.2,2.6,1.5
				C405.2,245.6,424.9,207.1,444.7,168.7L444.7,168.7z"/>
		</g>
	</g>
	<g>
		<g>
			<path class="st0" d="M392.6,142.9c0.1-1.9-2.9-1.9-3,0c-3.1,46.5-6.3,93-9.5,139.5c-0.1,1.9,2.9,1.9,3,0
				C386.2,235.9,389.4,189.4,392.6,142.9L392.6,142.9z"/>
		</g>
	</g>
	<g>
		<g>
			<path class="st0" d="M390,144.5c1.4,1.3,3.5-0.9,2-2.1c-3.8-3.5-8.4-4.9-13.6-5c-5.4-0.1-12.8,0.8-17.6,3.3
				c-4.6,2.4-4,7.8-4.2,12.2c-0.3,8.6-0.7,17.3-1,25.9c-1.4,34.5-2.7,69.1-4.1,103.7c-0.1,1.9,2.9,1.9,3,0
				c1.1-28.9,2.3-57.9,3.4-86.8c0.6-14.3,1.1-28.6,1.7-42.9c0.2-4.1-0.5-8.3,4.1-10c2.5-0.9,5.3-1.4,7.9-1.8
				C378,139.9,384.9,139.9,390,144.5L390,144.5z"/>
		</g>
	</g>
	<g>
		<g>
			<path class="st0" d="M442.3,167c2-0.2,2-3.2,0.1-3c-9.8,0.7-19.3,3.4-28.7,6.1c-8.7,2.5-17.1,5.6-24.5,10.9
				c-1.6,1.1-0.1,3.7,1.5,2.6c7.1-5.2,15.3-8.2,23.7-10.6C423.5,170.4,432.8,167.6,442.3,167L442.3,167z"/>
		</g>
	</g>
	<g>
		<g>
			<path class="st0" d="M356.1,161.7c1.9,0.5,2.7-2.4,0.7-3c-7.4-1.9-18.1-3.7-23.3,3.6c-2.8,3.9-2.7,9-2.9,13.6
				c-0.2,7-0.4,13.9-0.6,20.9c-0.8,28.8-1.2,57.6-1.3,86.5c0,1.9,3,1.9,3,0c0.1-24.2,0.4-48.4,1-72.6c0.3-12.3,0.5-24.5,1-36.8
				c0.3-6.1,1.7-12.1,8.5-13.5C346.8,159.5,351.7,160.6,356.1,161.7L356.1,161.7z"/>
		</g>
	</g>
	<g>
		<g>
			<path class="st0" d="M334.2,145.9c0-1.9-3-1.9-3,0c0,9,0,17.9,0,26.9c0,1.9,3,1.9,3,0C334.2,163.8,334.2,154.9,334.2,145.9
				L334.2,145.9z"/>
		</g>
	</g>
	<g>
		<g>
			<path class="st0" d="M329.8,147c0.8,1.8,3.3,0.3,2.6-1.5c-1.1-2.4-4-3-6.1-1.4c-3.1,2.4-2.5,8.6-2.7,12
				c-1,13.9-1.8,27.8-2.5,41.7c-1.3,28.5-1.9,57.1-1.9,85.6c0,1.9,3,1.9,3,0c0-22.9,0.3-45.8,1.2-68.7c0.4-11.6,0.9-23.2,1.6-34.8
				c0.3-5.6,0.6-11.3,1-16.9c0.2-2.6,0.4-5.3,0.6-7.9c0.2-1.7,0.2-3.4,0.4-5c0.1-0.8,0.2-1.5,0.3-2.2
				C328.1,147.6,329,147.3,329.8,147L329.8,147z"/>
		</g>
	</g>
	<g>
		<g>
			<path class="st0" d="M477.2,299.1c1-1.7-1.6-3.2-2.6-1.6c-2.9,4.9-6,13-10.9,16c-4.3,2.7-9.9,0-14.7,1.7c-1.8,0.6-1,3.5,0.8,2.9
				c5.4-1.9,11.4,1.4,16.3-2.3C471.1,312.1,474.1,304.3,477.2,299.1L477.2,299.1z"/>
		</g>
	</g>
	<g>
		<g>
			<path class="st0" d="M445.8,300.4c-0.2-1.9-3.2-1.9-3,0c0.4,5.6,2,10.9,5,15.8c1,1.7,3.6,0.2,2.6-1.5
				C447.8,310.3,446.2,305.6,445.8,300.4L445.8,300.4z"/>
		</g>
	</g>
	<g>
		<g>
			<path class="st0" d="M454.3,302.9c0.4-1.9-2.5-2.7-2.9-0.8c-1,4.6-1.9,9.2-2.8,13.8c-0.4,1.9,2.5,2.7,2.9,0.8
				C452.5,312.1,453.4,307.5,454.3,302.9L454.3,302.9z"/>
		</g>
	</g>
	<g>
		<g>
			<path class="st0" d="M450.7,302.8c0.6,1.9,3.5,1.1,2.7-0.7c-0.7-2.3-3.6-2.9-5.4-1.3c-3,2.7,0.5,6.4-0.4,9.4
				c1,0.3,1.9,0.5,2.9,0.8c0.5-3.2,0.3-6.4-1-9.5c-0.5-1.4-3.1-1.4-2.9,0.4c0.3,3.1,0.5,6.3,0.8,9.4c0.2,1.9,3.2,1.9,3,0
				c-0.3-3.1-0.5-6.3-0.8-9.4c-0.9,0.1-1.9,0.3-2.9,0.4c1.1,2.5,1.5,5.2,1,7.9c-0.3,1.9,2.3,2.7,2.9,0.8c0.4-1.4,0.3-2.7-0.1-4.1
				c-0.2-0.7-0.5-1.4-0.6-2.1c-0.1-0.6-0.1-1.2,0.2-1.8C450.3,302.9,450.5,302.8,450.7,302.8L450.7,302.8z"/>
		</g>
	</g>
	<g>
		<g>
			<path class="st0" d="M294,280.9c-0.4,1.9,2.5,2.7,2.8,0.8c1.1-3.9,1.4-7.8,1.2-11.9c0-0.8-0.7-1.5-1.5-1.5
				c-21.4-1.1-42.7-2.4-64-2.5c-5.6-0.1-11.2,0-16.8,0.1c-4.5,0.1-9.7-0.4-14.1,0.5c-6.4,1.3-4,11.3-4,16c0,1.9,3,1.9,3,0
				c0-3.5-1.7-11.2,2.3-13.1c1.8-0.9,5.9-0.2,7.9-0.3c1.9,0,3.9-0.1,5.9-0.1c8.9-0.2,17.8-0.2,26.7,0c17.7,0.4,35.4,1.5,53.1,2.4
				c-0.5-0.5-1-1-1.5-1.5C295.3,273.6,294.9,277.2,294,280.9L294,280.9z"/>
		</g>
	</g>
	<g>
		<g>
			<path class="st0" d="M282.9,250.8c0.4-1.8-2.5-2.6-2.9-0.8c-1.3,5.7-2.2,11.5-2.6,17.4c-0.1,1.9,2.9,1.9,3,0
				C280.8,261.8,281.7,256.3,282.9,250.8L282.9,250.8z"/>
		</g>
	</g>
	<g>
		<g>
			<path class="st0" d="M280.9,252.7c1.9,0.1,1.9-2.9,0-3c-12-1-24.2-2.1-36.3-1.6c-11.4,0.4-22.9,4.1-34.3,3
				c-0.8-0.1-1.6,0.7-1.5,1.5c0.4,5.1-0.2,9.8-1.8,14.6c-0.6,1.8,2.3,2.6,2.9,0.8c1.7-5.1,2.3-10.1,1.9-15.4c-0.5,0.5-1,1-1.5,1.5
				c11.4,1.2,22.9-2.5,34.3-3C256.7,250.6,268.8,251.7,280.9,252.7L280.9,252.7z"/>
		</g>
	</g>
	<g>
		<g>
			<path class="st0" d="M382.7,563c0-1.9-3-1.9-3,0c0,4.2,0,8.3,0,12.5c0,1.9,3,1.9,3,0C382.7,571.3,382.7,567.2,382.7,563
				L382.7,563z"/>
		</g>
	</g>
	<g>
		<g>
			<path class="st0" d="M381.2,562c2,0,2-3,0-3c-77.8,0-155.6,0-233.4,0c-1.9,0-1.9,3,0,3C225.6,562,303.4,562,381.2,562L381.2,562z
				"/>
		</g>
	</g>
	<g>
		<g>
			<path class="st0" d="M378.8,575.8c1.9,0,1.9-3,0-3c-76.6,0-153.1,0-229.7,0c-1.9,0-1.9,3,0,3
				C225.7,575.8,302.2,575.8,378.8,575.8L378.8,575.8z"/>
		</g>
	</g>
	<g>
		<g>
			<path class="st0" d="M149.3,563c0-1.9-3-1.9-3,0c0,2.9,0,5.8,0,8.7c0,1.9,3,1.9,3,0C149.3,568.8,149.3,565.9,149.3,563L149.3,563
				z"/>
		</g>
	</g>
	<g>
		<g>
			<path class="st0" d="M359.6,529.3c0.5-1.9-2.4-2.7-2.9-0.8c-2.7,10.3-5,20.7-7,31.1c-0.4,1.9,2.5,2.7,2.9,0.8
				C354.6,550,357,539.6,359.6,529.3L359.6,529.3z"/>
		</g>
	</g>
	<g>
		<g>
			<path class="st0" d="M307.6,528.4c-0.4-1.9-3.3-1.1-2.9,0.8c2.4,10.2,4.4,20.6,5.9,31c0.3,1.9,3.2,1.1,2.9-0.8
				C312,549,310,538.7,307.6,528.4L307.6,528.4z"/>
		</g>
	</g>
	<g>
		<g>
			<path class="st0" d="M367.8,523.7c0-2-3-2-3,0c-0.1,4.4-27.7,1.1-30.9,0.9c-4.9-0.4-9.9-0.7-14.8-0.4c-2.1,0.1-4.3,0.3-6.4,0.6
				c-0.9,0.1-10.4,1.6-7.6-3.1c1-1.6-1.6-3.1-2.6-1.5c-2.2,3.5,0.2,7.1,4,7.9c3.4,0.7,7.2-0.5,10.7-0.8c4.3-0.4,8.6-0.3,12.9,0
				c8.6,0.5,17.3,1.8,25.9,1.4C359.8,528.5,367.6,528.9,367.8,523.7L367.8,523.7z"/>
		</g>
	</g>
	<g>
		<g>
			<path class="st0" d="M364.3,523.3c-0.6,1.8,2.3,2.6,2.9,0.7c1.4-4.4-2-7.4-6-8.2c-7.6-1.5-16.3-0.8-24.1-1.1
				c-4.2-0.2-36.7-4.1-33.7,4.8c0.6,1.8,3.5,1,2.9-0.8c-0.7-1.9,25.3-1.2,27.8-1.1c4.6,0.2,9.3,0.4,13.9,0.6
				C350.6,518.3,366.1,517.7,364.3,523.3L364.3,523.3z"/>
		</g>
	</g>
	<g>
		<g>
			<path class="st0" d="M351,515c-1.7,0.8-0.2,3.4,1.5,2.8c7.4-3.5,13.5-9.1,17.3-16.4c1.8-3.6,5.6-12.8-1-13.8
				c0.3,0.7,0.6,1.5,0.9,2.2c3.8-5.4,5.1-12.6,7.1-18.8c1.8-5.4,4.8-11.5,5.2-17.1c0.2-2.5-0.6-5.5-3.4-6c-3.7-0.6-7.9,4.7-10.1,7
				c-16,16.5-23.9,38.9-29.3,60.7c-0.5,1.9,2.4,2.7,2.9,0.8c4.2-17.1,9.8-34.3,19.9-48.9c2.7-3.9,5.7-7.6,9.1-11
				c1.8-1.8,3.2-3.9,5.9-3.7c2.5,0.2,2.2,0.2,1.7,2.3c-0.2,1.1-0.7,2.1-1,3.2c-1.7,5.1-3.3,10.3-5,15.5c-1.5,4.8-2.7,10.2-5.6,14.4
				c-0.5,0.7,0,2.1,0.9,2.2c5.4,0.8-3.8,14.1-5.1,15.7C359.7,509.9,355.6,512.9,351,515L351,515z"/>
		</g>
	</g>
	<g>
		<g>
			<path class="st0" d="M347.6,487.6c-0.1,2,2.9,2,3,0.1c0.4-15.2,0.5-30.9-6.3-44.9c-2.4-5-14.5-27.4-22.1-16.9
				c-3.5,4.8-2.6,14-2.2,19.4c0.7,8.3,5.8,17.4,2.6,25.5c-2.4,6-1.4,11.3,0.7,17.4c3,8.7,6.4,17.2,9.6,25.8c0.7,1.8,3.6,1,2.9-0.8
				c-2.4-6.6-4.9-13.1-7.3-19.6c-2.4-6.2-5.9-13.2-3.9-20c0.7-2.4,2.1-4.4,2.3-7c0.2-2.2-0.3-4.5-0.9-6.7
				c-1.6-6.4-3.2-12.6-3.2-19.3c0-2.8-0.4-7.4,0.8-10.1c0-1.8,1.2-2.4,3.6-1.8c1.9-1.3,3.4-1.1,4.4,0.5c1.4,0.8,2.4,2.9,3.3,4.2
				c3.7,5,6.9,10.3,9,16.2C348.2,461.7,347.9,474.9,347.6,487.6L347.6,487.6z"/>
		</g>
	</g>
	<g>
		<g>
			<path class="st0" d="M372.8,463c1.1-1.6-1.5-3.1-2.6-1.5c-9.9,13.9-15.9,30.5-22.7,46.1c-0.8,1.7,1.8,3.3,2.6,1.5
				C357,493.6,362.9,476.9,372.8,463L372.8,463z"/>
		</g>
	</g>
	<g>
		<g>
			<path class="st0" d="M345.2,455.9c0.1-1.9-2.9-1.9-3,0c-0.3,4.4-1.9,8.5-4.6,12c-1.2,1.5,0.9,3.6,2.1,2.1
				C343,465.9,344.8,461.2,345.2,455.9L345.2,455.9z"/>
		</g>
	</g>
	<g>
		<g>
			<path class="st0" d="M331.6,455.2c1,1.6,3.6,0.1,2.6-1.5c-2.4-3.6-4.9-7.2-7.3-10.8c-1.1-1.6-3.7-0.1-2.6,1.5
				C326.7,448,329.2,451.6,331.6,455.2L331.6,455.2z"/>
		</g>
	</g>
	<g>
		<g>
			<path class="st0" d="M301.8,453.2c-1-1.6-3.6-0.1-2.6,1.5c5.1,8.2,13.8,14.6,20.7,21.2c1.4,1.4,3.5-0.8,2.1-2.1
				c-3.6-3.4-7.2-6.9-10.8-10.3C307.9,460.3,304.3,457.2,301.8,453.2L301.8,453.2z"/>
		</g>
	</g>
	<g>
		<g>
			<path class="st0" d="M303.1,457.2c0.1-1.9-2.9-1.9-2.9,0.2c-0.2,6.2-10.2,16.4-0.7,20.9c-0.1-0.8-0.2-1.6-0.3-2.4
				c-2.2,2.6-2.3,5.2-1.9,8.5c0.4,4.6,0.4,9.4,1.2,14c1.6,8.6,8.7,13.6,15.6,18c1.6,1,3.1-1.6,1.5-2.6c-5.7-3.6-12.1-7.7-13.9-14.6
				c-1-3.6-0.7-7.3-1-11c-0.3-3.3-1.8-7.5,0.5-10.3c0.6-0.7,0.6-1.9-0.3-2.4C294.1,472.3,302.9,462.5,303.1,457.2L303.1,457.2z"/>
		</g>
	</g>
	<g>
		<g>
			<path class="st0" d="M307.9,471.9c-1-1.7-3.6-0.2-2.6,1.5c6.8,10.9,12.6,22.3,17.4,34.2c0.7,1.8,3.6,1,2.9-0.8
				C320.7,494.6,314.8,483,307.9,471.9L307.9,471.9z"/>
		</g>
	</g>
	<g>
		<g>
			<path class="st0" d="M354.3,549.8c1.1-1.5-1.5-3-2.6-1.5c-3.5,4.8-8.5,7.9-14.3,9.1c-1.9,0.4-1.1,3.3,0.8,2.9
				C344.8,558.9,350.3,555.2,354.3,549.8L354.3,549.8z"/>
		</g>
	</g>
	<g>
		<g>
			<path class="st0" d="M356,537.5c1.5-1.2,0-3.8-1.5-2.6c-10.1,7.7-20.9,19-33.7,21.6c-1.9,0.4-1.1,3.3,0.8,2.9
				C334.8,556.7,345.7,545.4,356,537.5L356,537.5z"/>
		</g>
	</g>
	<g>
		<g>
			<path class="st0" d="M348.1,529.9c1.5-1.2-0.6-3.3-2.2-2.1c-6,5-12,10.1-18.2,14.9c-3.4,2.7-6.7,4.6-10.8,6
				c-2.4,0.9-4.6,1.6-6.8,3.1c-1.6,1.1-0.1,3.7,1.5,2.6c2.8-2,6.1-2.6,9.2-3.9c3.3-1.3,6.1-3.3,8.8-5.4
				C335.9,540.2,341.9,535,348.1,529.9L348.1,529.9z"/>
		</g>
	</g>
	<g>
		<g>
			<path class="st0" d="M331.7,528.5c1.4-1.4-0.8-3.5-2.1-2.2c-5.5,5.7-12,9.8-19.5,12.3c-1.8,0.6-1,3.5,0.8,2.9
				C318.9,538.9,325.9,534.5,331.7,528.5L331.7,528.5z"/>
		</g>
	</g>
	<g>
		<g>
			<path class="st0" d="M258.1,557.6c-0.6,1.8,2.3,2.6,2.7,1c2.9-8,0.7-13.3-7.9-14.6c-10.5-1.6-21.2-0.7-31.8-0.3
				c-11.5,0.5-22.6-1.2-34-1.2c-2.8,0-6.5-0.3-8.1,2.5c-1.7,3.2-0.7,9.2-0.8,12.6c-0.1,1.9,2.9,1.9,3,0c0.1-2.3,0.1-4.5,0.2-6.7
				c0.1-2.8,0.9-4.3,3.9-5.4c2.9-1,8.2,0.2,11.2,0.5c7.3,0.6,14.5,1,21.8,0.8c7.3-0.3,14.7-0.9,22-0.8c4.3,0,8.7,0.1,12.9,0.9
				c2.9,0.5,5.9,0.9,6.3,5.3C259.6,553.9,258.7,556,258.1,557.6L258.1,557.6z"/>
		</g>
	</g>
	<g>
		<g>
			<path class="st0" d="M236.9,541.5c-1.5,1.2,0.6,3.3,2.1,2c3.5-2.9,1.8-7.8-1.8-9.7c-3.1-1.6-7.3-1.2-10.7-1.2
				c-4.5-0.1-9-0.1-13.5-0.2c-9.6-0.1-19.3-0.4-28.9-0.4c-2,0-3.5-0.3-4.5,1.5c-1.2,2.2,0.3,7.2,0.5,9.6c0.2,1.9,3.2,1.9,3,0
				c-0.2-1.6-1.3-5.8-0.7-7.3c0.5-1.2,1-0.8,2.6-0.8c1.3,0.1,2.6,0.1,3.9,0.1c5.1,0.1,10.3,0.1,15.4,0.2c5.5,0.1,10.9,0.1,16.4,0.2
				c2.6,0,5.1,0.1,7.7,0.1c1.2,0.1,2.3,0,3.5,0.1c0.9,0.2,1.8,0.3,2.7,0.4C235.4,537.9,236.1,539.7,236.9,541.5L236.9,541.5z"/>
		</g>
	</g>
	<g>
		<g>
			<path class="st0" d="M216.3,529.3c-1.2,1.5,1.4,3,2.6,1.5c1.4-2,0.9-4.5-0.9-6.1c-2.5-2.4-6.2-1.4-9.3-1.5
				c-3.9-0.2-8-1.5-11.3,1.2c-1.9,1.6-2.7,3.8-2,6.2c0.6,1.8,3.5,1.1,2.9-0.8c-1.6-5.4,6.6-3.9,9-3.7
				C208,526.2,218.9,525.8,216.3,529.3L216.3,529.3z"/>
		</g>
	</g>
	<g>
		<g>
			<path class="st0" d="M369.3,578c1.2-1.6-1.4-3.1-2.6-1.6c-3.4,4.8-7.7,8.8-12.5,12.1c-1.6,1.1-0.1,3.7,1.5,2.6
				C361,587.5,365.5,583.2,369.3,578L369.3,578z"/>
		</g>
	</g>
	<g>
		<g>
			<path class="st0" d="M356.1,590.1c1.9,0,1.9-3,0-3c-4.1,0.1-13.2,1.6-16-1.7c-1.4-1.7-2.2-4.4-3.4-6.3c-1-1.4-2-2.8-3.1-4.1
				c-1.2-1.5-3.3,0.6-2.1,2.1c2.2,2.9,4.1,5.9,5.7,9.1c0.6,1.2,1,2.8,2.3,3.5c1.7,0.9,4.8,0.4,6.7,0.4
				C349.5,590.1,352.8,590.1,356.1,590.1L356.1,590.1z"/>
		</g>
	</g>
	<g>
		<g>
			<path class="st0" d="M345,577.8c0.5-1.9-2.4-2.7-2.9-0.8c-0.9,3-1.7,6.1-2.5,9.1c-0.5,1.9,2.4,2.7,2.9,0.8
				C343.4,583.9,344.2,580.8,345,577.8L345,577.8z"/>
		</g>
	</g>
	<g>
		<g>
			<path class="st0" d="M223.1,577.3c0.9-1.8-1.7-3.3-2.6-1.6c-2,4.2-5.2,12.4-10.4,13.4c-2,0.4-5.1-0.5-7.2-0.7
				c-2.4-0.2-4.8-0.5-7.2-0.7c-1.9-0.2-1.9,2.8,0,3c3.6,0.4,7.2,0.7,10.8,1.1c2,0.2,4.8,1,6.8,0c1.9-0.9,3.3-3.4,4.4-5
				C219.8,583.8,221.5,580.6,223.1,577.3L223.1,577.3z"/>
		</g>
	</g>
	<g>
		<g>
			<path class="st0" d="M195.6,574.8c-0.5-1.8-3.4-1-2.8,0.8c1.1,4,1.6,8.1,1.5,12.3c-0.1,1.9,2.9,1.9,3,0
				C197.4,583.5,196.8,579.1,195.6,574.8L195.6,574.8z"/>
		</g>
	</g>
	<g>
		<g>
			<path class="st0" d="M194.3,589.4c1.4,1.3,3.5-0.8,2.1-2.1c-4-3.8-7.8-7.8-11.5-11.9c-1.3-1.5-3.4,0.7-2.1,2.1
				C186.5,581.6,190.3,585.6,194.3,589.4L194.3,589.4z"/>
		</g>
	</g>
	<g>
		<g>
			<path class="st0" d="M836.5,284.4c0-1.9-3-1.9-3,0c0,28.2,0,56.3,0,84.5c0,1.9,3,1.9,3,0C836.5,340.7,836.5,312.6,836.5,284.4
				L836.5,284.4z"/>
		</g>
	</g>
	<g>
		<g>
			<path class="st0" d="M834.1,371.2c2,0,2-3,0-3c-35.7,0-71.5,0-107.2,0c-1.9,0-1.9,3,0,3C762.6,371.2,798.4,371.2,834.1,371.2
				L834.1,371.2z"/>
		</g>
	</g>
	<g>
		<g>
			<path class="st0" d="M834.1,285.9c2,0,2-3,0-3c-34.7,0-69.3,0-104,0c-1.9,0-1.9,3,0,3C764.8,285.9,799.4,285.9,834.1,285.9
				L834.1,285.9z"/>
		</g>
	</g>
	<g>
		<g>
			<path class="st0" d="M730.1,284.4c0-1.9-3-1.9-3,0c0,28.2,0,56.3,0,84.5c0,1.9,3,1.9,3,0C730.1,340.7,730.1,312.6,730.1,284.4
				L730.1,284.4z"/>
		</g>
	</g>
	<g>
		<g>
			<path class="st0" d="M780.7,281.9c-0.1,2,2.9,2,3-0.1c0.2-3.1-1.9-9.4-6-8.9c-1.9,0.2-2.7,2.1-3.3,3.7c-0.9,2.5-1.1,5.1-0.9,7.7
				c0.2,1.9,3.2,1.9,3,0c-0.2-1.5-0.2-3,0.1-4.5c0.1-0.8,0.4-3.1,1.2-3.6c0.7-0.5,1.9,1.3,2.2,2
				C780.6,279.4,780.8,280.6,780.7,281.9L780.7,281.9z"/>
		</g>
	</g>
	<g>
		<g>
			<path class="st0" d="M830.8,294.1c0-1.9-3-1.9-3,0c0,22.5,0,44.9,0,67.4c0,1.9,3,1.9,3,0C830.8,339,830.8,316.6,830.8,294.1
				L830.8,294.1z"/>
		</g>
	</g>
	<g>
		<g>
			<path class="st0" d="M829.3,363c1.9,0,1.9-3,0-3c-31.4,0-62.8,0-94.2,0c-1.9,0-1.9,3,0,3C766.5,363,797.9,363,829.3,363
				L829.3,363z"/>
		</g>
	</g>
	<g>
		<g>
			<path class="st0" d="M732.7,360.7c0,2,3,2,3,0c0-22.5,0-44.9,0-67.4c0-1.9-3-1.9-3,0C732.7,315.8,732.7,338.2,732.7,360.7
				L732.7,360.7z"/>
		</g>
	</g>
	<g>
		<g>
			<path class="st0" d="M828.5,296.4c1.9,0,1.9-3,0-3c-30.4,0-60.7,0-91,0c-1.9,0-1.9,3,0,3C767.9,296.4,798.2,296.4,828.5,296.4
				L828.5,296.4z"/>
		</g>
	</g>
	<g>
		<g>
			<path class="st0" d="M828,347.1c1.8,0.6,2.6-2.3,0.8-2.9c-10.6-3.2-22-6.4-32.9-2.8c-10.1,3.4-18.1,11.1-28.7,13.1
				c-1.9,0.4-1.1,3.2,0.8,2.9c9.3-1.7,16.5-7.6,24.8-11.5C804.4,340.5,816.3,343.6,828,347.1L828,347.1z"/>
		</g>
	</g>
	<g>
		<g>
			<path class="st0" d="M789,345.4c1.8,0.7,2.6-2.2,0.8-2.9c-14.5-5.1-29.7-6.9-45-5.4c-1.9,0.2-1.9,3.2,0,3
				C759.8,338.6,774.7,340.4,789,345.4L789,345.4z"/>
		</g>
	</g>
	<g>
		<g>
			<path class="st0" d="M785.9,322.2c-0.9,1.7,1.6,3.2,2.7,1.6c2-3.5,1.1-8.4-2.6-10.4c-3.4-1.8-8.2-0.5-9.8,3.1
				c-1.6,3.4,0.4,8.1,4.1,9.1c4,1.1,8.1-2.3,8-6.3c0-1.9-3-1.9-3,0c0,2.2-2.5,4.3-4.7,3.2c-1.9-1-2.6-3.7-1.4-5.4
				c1.2-1.6,3.9-2.1,5.6-0.9C786.7,317.5,787,320.3,785.9,322.2L785.9,322.2z"/>
		</g>
	</g>
	<g>
		<g>
			<path class="st0" d="M298.8,298.9c1.2-1.6-1.4-3.1-2.6-1.6c-2.5,3.4-3.6,7.4-5.5,11.1c-1.2,2.3-2.8,4.5-5.2,5.5
				c-2.8,1.1-5.9,0.1-8.6-0.8c-1.8-0.6-2.6,2.3-0.8,2.9c5,1.8,9.9,2.4,14-1.6C294.5,310.2,295.2,303.7,298.8,298.9L298.8,298.9z"/>
		</g>
	</g>
	<g>
		<g>
			<path class="st0" d="M276.5,314.8c1.5,1.3,3.6-0.9,2.1-2.1c-4.6-3.9-8.7-8.4-12.1-13.4c-1.1-1.6-3.7-0.1-2.6,1.5
				C267.5,306,271.7,310.7,276.5,314.8L276.5,314.8z"/>
		</g>
	</g>
	<g>
		<g>
			<path class="st0" d="M283.8,297.8c0.7-1.8-1.9-3.3-2.6-1.5c-1.6,3.7-2.4,7.6-2.3,11.7c0.1,1.9,3.1,1.9,3,0
				C281.8,304.5,282.4,301.1,283.8,297.8L283.8,297.8z"/>
		</g>
	</g>
	<g>
		<g>
			<path class="st0" d="M363.9,689c0-1.9-3-1.9-3,0c0,13.3,0,26.7,0,40c0,1.9,3,1.9,3,0C363.9,715.7,363.9,702.3,363.9,689
				L363.9,689z"/>
		</g>
	</g>
	<g>
		<g>
			<path class="st0" d="M400.4,734.5c1.9,0,1.9-3,0-3c-35.3,0-70.7,0-106,0c-1.9,0-1.9,3,0,3C329.7,734.5,365.1,734.5,400.4,734.5
				L400.4,734.5z"/>
		</g>
	</g>
	<g>
		<g>
			<path class="st0" d="M342.9,737c0-1.9-3-1.9-3,0c0,8.3,0,16.7,0,25c0,1.9,3,1.9,3,0C342.9,753.7,342.9,745.3,342.9,737L342.9,737
				z"/>
		</g>
	</g>
	<g>
		<g>
			<path class="st0" d="M401.4,766.5c1.9,0,1.9-3,0-3c-31.3,0-62.7,0-94,0c-1.9,0-1.9,3,0,3C338.7,766.5,370.1,766.5,401.4,766.5
				L401.4,766.5z"/>
		</g>
	</g>
	<g>
		<g>
			<path class="st0" d="M377.9,769c0-1.9-3-1.9-3,0c0,6.3,0,12.7,0,19c0,1.9,3,1.9,3,0C377.9,781.7,377.9,775.3,377.9,769L377.9,769
				z"/>
		</g>
	</g>
	<g>
		<g>
			<path class="st0" d="M367.9,284.8c0,2,3,2,2.9,0c0-4,0-8.1,0-12.1c0-2.1,0.2-4.6-1-6.4c-1-1.5-2.5-2-4.2-2.3
				c-3.8-0.6-7.8-0.6-11.6-0.8c-1.9-0.1-1.9,2.9,0,3c4.7,0.3,12.8-0.8,13.9,5C368.7,275.3,367.9,280.6,367.9,284.8L367.9,284.8z"/>
		</g>
	</g>
	<g>
		<g>
			<path class="st0" d="M385.5,173.1c1.9,0.6,2.7-2.3,0.8-2.9c-9.6-2.6-19.3-2.1-28.5,1.6c-1.8,0.7-1,3.6,0.8,2.9
				C367.3,171.2,376.4,170.6,385.5,173.1L385.5,173.1z"/>
		</g>
	</g>
	<g>
		<g>
			<path class="st0" d="M389.2,164.1c1.6,1.1,3.1-1.5,1.5-2.6c-8.5-5.9-19.3-7.1-28.9-3.2c-1.8,0.7-1,3.6,0.8,2.9
				C371.6,157.6,381.2,158.6,389.2,164.1L389.2,164.1z"/>
		</g>
	</g>
	<g>
		<g>
			<path class="st0" d="M421.7,216.5c-1.6-1.1-3.1,1.5-1.6,2.6c2.1,1.4,5.7,3.1,7.1,5.1c2.4,3.4,0.6,6.3-0.7,9.6
				c-2.2,5.6-4.6,11.2-7.1,16.7c-4.7,10.4-9.8,20.6-15.3,30.6c-0.9,1.7,1.7,3.2,2.6,1.5c7.2-13,13.7-26.4,19.5-40.1
				c1.5-3.5,2.9-7,4.3-10.5c0.8-2,1.8-4,1.4-6.2C431,221.6,424.9,218.7,421.7,216.5L421.7,216.5z"/>
		</g>
	</g>
</g>
<g id="hand_r">
	<path class="st1" d="M794.2,732.4c-9.4,14.9-6.1,33.1,0.9,69.4c5.8,29.8,8.9,44.8,19.1,51.2c15.7,9.8,39.3,2.6,56.4-2.6
		c9.3-2.9,16.7-6.2,21.7-8.7c5.2,4.4,16.9,12.9,33.8,14.8c12.3,1.4,21.5-1.4,31.2-4.3c11.5-3.5,22.6-6.8,23.4-13
		c1.2-9.2-21.4-19.8-20.8-20.8c0.6-1.1,20.3,14.6,39,9.5c3.3-0.9,5.9-2.3,7.8-3.5c-12.2-6.8-28.8-14.3-49.5-19.1
		c-34.7-8-64.1-4.5-81.6-0.9c-7.7-15.6-10.1-28.7-10.7-38c-0.9-13.4,1.6-19.5-1-29.9c-3.6-14-13.5-23.8-21.7-29.9
		C831.8,707.9,806.5,712.5,794.2,732.4z"/>
	<g>
		<g>
			<path class="st2" d="M878.8,805.5c1.8-0.7,1.1-3.6-0.8-2.9c-12.8,4.8-23.5,13.4-30.8,25c-1,1.6,1.6,3.1,2.6,1.5
				C856.7,818.2,866.7,810,878.8,805.5L878.8,805.5z"/>
		</g>
	</g>
	<g>
		<g>
			<path class="st2" d="M943.2,825.2c-1.9-0.3-2.7,2.6-0.8,2.9c10.8,1.8,19.8,8.9,23.7,19.1c0.7,1.8,3.6,1,2.9-0.8
				C964.7,835.2,955.1,827.2,943.2,825.2L943.2,825.2z"/>
		</g>
	</g>
	<g>
		<g>
			<path class="st2" d="M929.2,835.2c-1.6-1.1-3.1,1.5-1.5,2.5c4.7,3,9.7,6.2,13.5,10.2c4,4.1-0.2,8.6-4.9,8.8
				c-2.9,0.1-5.9-1.2-8.6-2.2c-1.8-0.7-2.6,2.2-0.8,2.9c6.2,2.4,17.6,4.5,19.1-5c0.6-3.6-2.2-6.2-4.7-8.4
				C937.5,840.8,933.5,837.8,929.2,835.2L929.2,835.2z"/>
		</g>
	</g>
	<path class="st3" d="M729.1,641.4c2.2,25.4,18.3,43.7,26.4,52.9c4.3,4.8,8.2,8.5,11.1,11c1.9,9.1,3.7,18.3,5.6,27.4
		c2.2,10.8,4.4,21.7,6.6,32.5c4.2-2.7,10.3-6.6,18-10.6c20.5-10.7,42.1-22.1,64.6-17c3.9,0.9,8.9,2.5,14.4,5.7
		c-1.4-7.2-3.8-17.3-8-29c-10.5-29.5-25.1-49.6-34.5-62.4c-11.2-15.2-20.6-24.7-29.9-34.2c-7.3-7.4-13.7-13.3-22.5-18.9
		c-5.7-3.7-11-6.4-13.1-7.4c-7.3-3.6-13.8-6.2-18.9-7.9C743.8,589.7,726.4,612.1,729.1,641.4z"/>
	<g>
		<g>
			<path class="st2" d="M754.8,584.7c-1.9-0.3-2.7,2.6-0.8,2.8c12,1.8,21.7,8.8,30.8,16.3c8.5,7.1,16.6,14.7,24.3,22.7
				c15.8,16.5,29.4,34.9,40.8,54.7c1,1.7,3.6,0.2,2.6-1.5c-11.8-20.5-26.1-39.5-42.5-56.5c-8.4-8.8-17.4-17.1-27-24.6
				C774.7,592,765.5,586.3,754.8,584.7L754.8,584.7z"/>
		</g>
	</g>
	<g>
		<g>
			<path class="st2" d="M759,693.9c-1.3-1.4-3.4,0.7-2.1,2.1c7.4,7.5,15,14.8,22.7,21.9c1.4,1.3,3.5-0.8,2.1-2.1
				C774,708.7,766.4,701.4,759,693.9L759,693.9z"/>
		</g>
	</g>
	<g>
		<g>
			<path class="st2" d="M769.4,707.6c-0.3-1.9-3.2-1.1-2.8,0.7c3.5,19.2,6.9,38.5,10.4,57.7c0.2,0.9,1.4,1.4,2.2,0.9
				c14.3-9.9,30-17.7,46.7-22.8c14.5-4.4,35.2-10.4,48,1c1.4,1.3,3.5-0.8,2.1-2.1c-12.6-11.1-31.3-7.2-46-3.2
				c-18.8,5.2-36.5,13.5-52.4,24.6c0.7,0.3,1.5,0.6,2.2,0.9C776.3,746.1,772.9,726.8,769.4,707.6L769.4,707.6z"/>
		</g>
	</g>
	<g>
		<g>
			<path class="st2" d="M851.8,678.3c-0.8-1.7-3.4-0.2-2.6,1.5c10.2,19.9,23,40.3,23.9,63.2c0.1,1.9,3.1,1.9,3,0
				C875.2,719.5,862.2,698.6,851.8,678.3L851.8,678.3z"/>
		</g>
	</g>
	<path class="st4" d="M778.3,767.1c4-3.1,8-6.2,12-9.3c-0.6,24.8,3.1,44.5,6.7,58c5.2,19.9,8.5,31.7,19.3,38c14.7,8.5,35.1,2.1,42,0
		c16.2-5.1,21.8-12.8,34-10.7c5.8,1,4.4,2.8,17.3,8c11.4,4.6,20.5,8.1,29.3,4.7c1.1-0.5,8.5-3.3,9.3-8.7c0.8-5.7-6.3-10.7-8.7-12.7
		c-21.4-17.6-46.6-1-80.6-13.3c-16.2-5.9-26.5-15.4-30-18.7c-21.5-20.2-24.4-44.5-32.7-75.3c-5.7-21-15.4-51-33.3-86.6
		C768,682.7,773.1,724.9,778.3,767.1z"/>
	<path class="st5" d="M778.3,766.3c3.1-2,6.2-4,9.3-6c4,22.6,8.1,43.2,12,61.3c3.1,14.7,5.2,23.7,13.3,30c11.5,9,27.4,6.2,34,4.7
		c-11.8-8.2-28.8-22.6-39.3-45.3c-9.8-20.9-7.5-34.9-14.7-64.6c-3.6-14.8-10.3-36.7-24-62.6C772,711.3,775.1,738.9,778.3,766.3z"/>
</g>
<g id="torso">
	<path class="st3" d="M680.1,568.1c-9.2-1.6-30.6-5.6-56.6-5.8c-6.4-0.1-10.7,0.1-15.5,0.7c-16.8,2-28.5,7.6-41.1,13.7
		c-18.3,8.8-33.5,16.1-49.7,24c15.6,53.7,18.5,97.2,18.4,126.8c-0.7,145.4-1.7,170.3-1.7,170.3c-0.2,3.1-0.7,15.9,4.2,31
		c2.3,7.1,5.7,17.1,14.5,25.2c3.7,3.4,6.4,4.8,21.6,11.9c16.8,7.9,25.2,11.8,26.4,12.3c22,8.8,42.5,10.1,52.8,10.6
		c0,0,48.8,2.5,92.9-18.8c9.2-4.4,18.3-11,36.5-24c1.9-1.3,5.9-3.8,8.9-8.7c3-4.8,3.8-9.6,4-12.6c-9.6-89.2-21-179.9-34.2-272.2
		c-3.4-23.8-6.9-47.5-10.5-71C722.2,575.4,698,571,680.1,568.1z"/>
	<g>
		<g>
			<path class="st2" d="M751.8,585c1.9,0.4,2.7-2.5,0.7-2.9c-31.2-6.7-62.8-12-94.5-15.9c0.3,0.9,0.5,1.9,0.8,2.8
				c0.5-0.2,0.9-0.5,1.3-0.7c1.7-1,0.2-3.6-1.5-2.6c-0.5,0.2-0.9,0.5-1.3,0.7c-1.4,0.8-0.6,2.6,0.8,2.8
				C689.5,573.1,720.8,578.4,751.8,585L751.8,585z"/>
		</g>
	</g>
	<g>
		<g>
			<path class="st2" d="M761.1,637.4c-0.3-1.9-3.2-1.1-3,0.8c6,42.4,11.6,84.9,17,127.4c4.8,37.4,9.2,74.8,13.5,112.3
				c1.1,9.2,2.1,18.4,3.1,27.6c0.5,4.9,1.1,9.9,1.6,14.8c0.4,3.9,1,8-0.2,11.7c-2.6,7.7-12.8,14.1-19.1,18.8
				c-6.2,4.6-12.7,8.8-19.4,12.6c-58.3,33.1-131.1,31.7-188.3-3.2c-1.6-1-3.1,1.6-1.5,2.6c32.7,20,71.2,29.8,109.5,27.6
				c32.2-1.9,63.9-12.4,91-29.9c6.6-4.3,12.9-9,18.9-14c5.5-4.6,11.5-9.4,12.5-17c1.1-8.6-1.4-18.3-2.3-26.9
				c-1.1-9.9-2.2-19.7-3.3-29.6C782.1,794.3,772.1,715.8,761.1,637.4L761.1,637.4z"/>
		</g>
	</g>
	<g>
		<g>
			<path class="st2" d="M613.8,562.1c1.9-0.4,1.1-3.3-0.8-2.9c-18.2,3.7-35.3,12.2-52.3,19.3c-15.7,6.6-33.2,12-47.1,22.2
				c-1.6,1.1-0.1,3.7,1.5,2.6c14.2-10.4,32.1-15.9,48.2-22.7C579.7,573.7,596.2,565.6,613.8,562.1L613.8,562.1z"/>
		</g>
	</g>
	<g>
		<g>
			<path class="st2" d="M535.4,731.7c-0.1-2-3.1-2-2.9,0c0.7,20.2,1.5,40.4,1.9,60.6c0.3,17.6,0.5,35.1,0.1,52.7
				c-0.4,17.3-1.9,34.5-2.1,51.7c-0.4,25.4,6.5,55.7,33.1,65.6c1.8,0.7,2.6-2.2,0.8-2.9c-16.7-6.2-26.1-22.9-29.3-39.6
				c-3.8-20.3-0.6-41.5,0.1-61.9C538.6,815.9,537,773.8,535.4,731.7L535.4,731.7z"/>
		</g>
	</g>
	<path class="st5" d="M539.8,695.1c-7.1,1.4-3.2,45.4-2.1,99.8c0.6,26.3,0.6,63.1-1.9,107.8c39.5-5.2,79.6-10.3,120.2-15.1
		c36.8-4.4,73.2-8.5,109.2-12.3c-26.8-3.7-131.7-21.3-189-109.4c-12.8-19.8-21.1-39.7-26.4-57.9
		C544.5,696.6,541.5,694.7,539.8,695.1z"/>
	<path class="st6" d="M537.2,891.2c142.4-13.1,170.6-17.6,170.5-19.2c-0.2-2.8-77.2,14.7-116.6-25.8c-14.1-14.5-25-38.1-36.4-62.6
		c-8.1-17.3-13.6-32.3-17.2-42.9C537.3,790.9,537.2,841,537.2,891.2z"/>
</g>
<g id="table">
	<path class="st1" d="M140.8,915.6c331.1-32.6,662.3-65.3,993.4-97.9c108.3,62.8,216.7,125.6,325,188.4
		c-367,48.9-734.1,97.9-1101.1,146.9C285.7,1073.9,213.3,994.7,140.8,915.6z"/>
	<path class="st7" d="M359.2,1161c367.8-48.8,735.7-97.6,1103.6-146.4"/>
	<path class="st7" d="M135,918.6c77,81.5,154.1,163.1,231.2,244.6"/>
	<g>
		<g>
			<path class="st2" d="M489,949c-1.5-1.2-3.6,1-2.1,2.1c37.4,29.3,74.2,59.5,110.3,90.5c1.4,1.3,3.6-0.8,2.1-2.1
				C563.2,1008.5,526.5,978.3,489,949L489,949z"/>
		</g>
	</g>
	<g>
		<g>
			<path class="st2" d="M597.9,1041.1c1.9-0.4,1.1-3.3-0.7-2.8c-12.8,2.7-25.8,2.3-38.8,2.6c-11.9,0.2-23.3,1.7-34.7,4.9
				c-11.9,3.3-23.5,6.9-35.7,8.9c-13,2.1-26.1,2.9-39.2,2.6c-1.9,0-1.9,3,0,3c25.5,0.6,49.4-4.1,73.8-11.2c13-3.8,25.8-5.2,39.4-5.4
				C574.1,1043.6,586.1,1043.6,597.9,1041.1L597.9,1041.1z"/>
		</g>
	</g>
	<g>
		<g>
			<path class="st2" d="M486.8,951.2c1.9-0.2,1.9-3.2,0-3c-39.9,3.2-79.5,9.5-118.3,19c-1.9,0.5-1.1,3.4,0.8,2.9
				C407.9,960.7,447.2,954.4,486.8,951.2L486.8,951.2z"/>
		</g>
	</g>
	<g>
		<g>
			<path class="st2" d="M446.5,1058.5c1.4,1.4,3.5-0.7,2.1-2.1c-27.9-27.7-54.7-56.5-80.1-86.4c-1.2-1.5-3.3,0.6-2.1,2.1
				C391.8,1002.1,418.6,1030.9,446.5,1058.5L446.5,1058.5z"/>
		</g>
	</g>
	<g>
		<g>
			<path class="st2" d="M563,1029.2c1.9,0.2,1.9-2.8,0-3c-34.6-4.2-69.8,0.2-102.3,12.8c-1.8,0.7-1,3.6,0.8,2.9
				C493.8,1029.3,528.6,1025,563,1029.2L563,1029.2z"/>
		</g>
	</g>
	<g>
		<g>
			<path class="st2" d="M510.9,1018.2c1.9-0.1,2-3.1,0-3c-21.5,1.6-42.7,4.9-63.6,9.9c-1.9,0.5-1.1,3.4,0.8,2.9
				C468.8,1023.1,489.7,1019.8,510.9,1018.2L510.9,1018.2z"/>
		</g>
	</g>
	<g>
		<g>
			<path class="st2" d="M526.8,996.1c1.9,0,1.9-3,0-3c-32.2,0.7-64.1,5.4-95.1,13.9c-1.9,0.5-1.1,3.4,0.8,2.9
				C463.3,1001.4,494.9,996.8,526.8,996.1L526.8,996.1z"/>
		</g>
	</g>
	<g>
		<g>
			<path class="st2" d="M487.2,986.9c1.9-0.3,1.1-3.2-0.8-2.9c-17.2,2.4-34.2,5.4-51.2,9c-1.9,0.4-1.1,3.3,0.8,2.9
				C453,992.3,470,989.3,487.2,986.9L487.2,986.9z"/>
		</g>
	</g>
	<g>
		<g>
			<path class="st2" d="M509.1,1054c-1.1-1.6-3.7-0.1-2.6,1.5c6.2,9.3,12.3,18.7,18.4,28.1c0.4-0.8,0.9-1.5,1.3-2.3
				c-49.6-5.5-99.8-2.3-148.3,9.6c-1.9,0.5-1.1,3.4,0.8,2.9c48.2-11.8,98.2-15,147.5-9.4c1.1,0.1,1.9-1.4,1.3-2.3
				C521.3,1072.8,515.2,1063.4,509.1,1054L509.1,1054z"/>
		</g>
	</g>
	<g>
		<g>
			<path class="st2" d="M388.2,997.2c1.9,0.1,1.9-2.9-0.1-3c-19.3-0.4-38.5-0.8-57.8-1.2c-0.8,0-1.8,1-1.4,1.9
				c13.3,31.7,26.7,63.3,40,95c0.7,1.8,3.6,1,2.9-0.8c-13.3-31.7-26.7-63.3-40-95c-0.4,0.6-0.9,1.3-1.4,1.9
				C349.7,996.4,368.9,996.8,388.2,997.2L388.2,997.2z"/>
		</g>
	</g>
	<g>
		<g>
			<path class="st2" d="M461.3,1071.7c1.9,0.3,2.7-2.6,0.8-2.9c-5.4-1-10.7-1.3-16.2-0.9c-1.9,0.1-1.9,3.1,0,3
				C451.1,1070.5,456.2,1070.7,461.3,1071.7L461.3,1071.7z"/>
		</g>
	</g>
	<g>
		<g>
			<path class="st2" d="M432.9,1072c1.9-0.1,1.9-3.1,0-3c-16,0.6-32,2.1-47.8,4.6c-1.9,0.3-1.1,3.2,0.8,2.9
				C401.5,1074.1,417.2,1072.6,432.9,1072L432.9,1072z"/>
		</g>
	</g>
	<g>
		<g>
			<path class="st2" d="M432,1053.2c1.9,0,1.9-3,0-3c-3.8,0-7.5,0-11.2,0c-1.9,0-1.9,3,0,3C424.6,1053.2,428.3,1053.2,432,1053.2
				L432,1053.2z"/>
		</g>
	</g>
	<g>
		<g>
			<path class="st2" d="M408.7,1052.9c1.9,0,1.9-3,0-3c-12.6,0.4-25.1,1.6-37.5,3.6c-1.9,0.3-1.1,3.2,0.8,2.9
				C384.2,1054.4,396.4,1053.2,408.7,1052.9L408.7,1052.9z"/>
		</g>
	</g>
	<g>
		<g>
			<path class="st2" d="M410.6,1035.8c1.9-0.1,1.9-3.1,0-3c-14,0.1-27.9,1-41.8,2.6c-1.9,0.2-1.9,3.2,0,3
				C382.7,1036.8,396.6,1036,410.6,1035.8L410.6,1035.8z"/>
		</g>
	</g>
	<g>
		<g>
			<path class="st2" d="M504.5,1069c1.9,0,1.9-3,0-3c-6.5,0.2-12.8-0.5-19.1-2.1c-1.9-0.5-2.7,2.4-0.8,2.9
				C491.2,1068.4,497.8,1069.2,504.5,1069L504.5,1069z"/>
		</g>
	</g>
	<g>
		<g>
			<path class="st2" d="M457,912.3c-1.2-1.6-3.3,0.6-2.1,2.1c1.5,1.9,2.6,4.2,2.7,6.7c0.1,3.2-1.8,3.3-4.4,3.7
				c-3.5,0.5-7.2,0.3-10.7,0.5c-7.2,0.3-14.3,0.7-21.5,1c-14.7,0.7-29.3,1.4-44,2.1c-1.9,0.1-1.9,3.1,0,3
				c19.9-0.9,39.7-1.9,59.6-2.8c4.9-0.2,9.8-0.5,14.7-0.7c2.7-0.1,6.3,0.4,8.2-2C462.6,922,459.6,915.5,457,912.3L457,912.3z"/>
		</g>
	</g>
	<g>
		<g>
			<path class="st2" d="M454.3,916.1c1.9,0,1.9-3,0-3.1c-18.7,0.6-37.5,1.3-56.3,1.9c-8.7,0.3-17.6,0.1-26.2,1.2
				c-5.8,0.8-11.2,2.5-15.2,6.9c-1.3,1.4,0.8,3.5,2.1,2.1c5.3-5.7,13.1-6.2,20.5-6.5c8.2-0.3,16.5-0.5,24.7-0.8
				C420.7,917.2,437.5,916.7,454.3,916.1L454.3,916.1z"/>
		</g>
	</g>
	<g>
		<g>
			<path class="st2" d="M378,931.5c2,0,2-3,0-3c-7.3,0.1-13.9-2.2-19.7-6.5c-1.5-1.1-3,1.5-1.5,2.6C363,929.2,370.3,931.6,378,931.5
				L378,931.5z"/>
		</g>
	</g>
	<g>
		<g>
			<path class="st2" d="M375.6,916.1c-1.6-1.1-3.1,1.5-1.5,2.5c3.1,2.1,4.3,6,3.3,9.5c-0.5,1.9,2.4,2.6,2.9,0.8
				C381.7,924.1,379.8,918.9,375.6,916.1L375.6,916.1z"/>
		</g>
	</g>
</g>
<g id="color_1_">
	<g>
		<g>
			<path class="st3" d="M1105.3,556.6c-3.3,6.9,7,13,10.3,5.9c-5-1.3-6.7-0.7-5,1.7c0.5,1.1,0.9,2.2,1.2,3.4
				c0.5,1.8,0.7,3.5,0.3,5.4c-0.6,2.7-2.5,5.1-4.2,7.3c-4.1,5.2-8.4,9.9-10.3,16.4c3.7-0.4,7.3-0.9,11-1.4
				c-5.9-11.6-15.9-20.8-20.9-32.9c-0.3-0.7-0.6-1.4-0.8-2.2c-0.2-2.4-1.5-2.5-4.1-0.3c-0.1,0.5,2.6,3.3,2.9,3.8
				c1.9,2.6,3.4,5.4,4.9,8.3c2.5,5,5.3,9.7,10.4,12.4c3.4,1.9,7.7,0.2,8.8-3.6c1.2-4.2,2.5-8.5,3.8-12.8c1.7-5.5-6-10.3-10-5.8
				c-1.9,2.2-3-1.2-4-2.8c-1.6-2.5-3.2-4.7-5.5-6.6c-4.1-3.3-11.5-6.4-16.5-3.2c-1.7,1.1-3.1,3.1-3,5.2c0,0.2,0,0.5,0,0.7
				c0.2,2.7,1.7,5,4.4,5.8c0.2,0.1,0.4,0.1,0.6,0.2c7.4,2.3,10.5-9.3,3.2-11.6c-0.2-0.1-0.4-0.1-0.6-0.2c1.5,1.9,2.9,3.9,4.4,5.8
				c0-0.2,0-0.5,0-0.7c-1,1.7-2,3.5-3,5.2c-2.1,0.3-2.2,0.5-0.2,0.6c1,0.3,2,0.7,2.8,1.3c1.2,0.8,1.9,1.9,2.7,3.1
				c1.7,2.6,3.1,5.3,5.6,7.3c5.4,4.3,13.1,3.6,17.6-1.5c-3.3-1.9-6.7-3.9-10-5.8c-1.2,4.2-2.5,8.5-3.8,12.8c2.9-1.2,5.9-2.4,8.8-3.6
				c-3.5-1.9-4.9-5.9-6.7-9.3c-2-3.9-4.4-7.5-7.1-11c-2.7-3.4-5.9-6.2-10.5-5.7c-3.8,0.4-6.9,3.4-7.9,6.9
				c-2.4,8.2,4.3,18.1,8.7,24.5c5,7.2,10.6,14,14.6,21.9c2.4,4.8,9.6,3.3,11-1.4c3-10.3,14.2-15.7,15.1-27.2
				c0.4-5.7-1.5-13.8-5.6-18C1114.9,551,1107.8,551.4,1105.3,556.6L1105.3,556.6z"/>
		</g>
	</g>
	<g>
		<g>
			<path class="st3" d="M1098.8,589.4c5,5.9,13.4-2.6,8.5-8.5c-8.2-9.7-15.1-20.3-21-31.6c-3.6-6.8-14-0.7-10.4,6.1
				C1082.3,567.5,1090,578.8,1098.8,589.4L1098.8,589.4z"/>
		</g>
	</g>
	<g>
		<g>
			<path class="st8" d="M1075.1,419.7c-0.8-5.7-9.5-3.3-8.7,2.4c1.4,8.8,0.7,17.7-1.6,26.3c-1.5,5.6,7.2,8,8.7,2.4
				C1076.3,440.5,1076.7,430.2,1075.1,419.7L1075.1,419.7z"/>
		</g>
	</g>
	<g>
		<g>
			<path class="st8" d="M1071.7,424.3c5.3-2.2,0.7-10-5.4-8.6c-5.1,2.2-6.7-5.9-6.6-9.1c0.1-3.6,0.7-7.2-2.2-10
				c-4.5-4.3-11.6-1.5-14.9,2.9c-2.6,3.4-3.1,7.5-7.9,8.2c-3.1,0.5-6.2,0.1-9.2,0.8c-7.4,1.8-10.3,8.1-10.2,15.3
				c0.1,4.4,0.6,8.7,0.9,13.1c0.3,3.7-0.2,8.4,2.5,11.3c2.1,2.4,6.1,2.9,9.1,3.6c4.5,1,9,1.7,13.6,2c4.8,0.3,9.6,0.1,14.3-0.4
				c3.5-0.4,7.2-0.6,10-2.8c6.1-4.8,6.6-14.6,5.5-21.6c-0.6-3.7-6.7-4.5-8.2-1.1c-2.4,5.4-4.7,10.7-7.1,16c2.7,0.4,5.5,0.7,8.2,1.1
				c-2.4-10.8,1-22-2.5-32.7c-0.9-3-5.2-4.8-7.5-2c-7.1,8.6-3.6,21.5-8.8,31.2c2.8,0.8,5.6,1.5,8.4,2.3c0.7-12,1.5-24.1,2.3-36.1
				c0.4-5.4-7.1-5.6-8.8-1.2c-4.8,12.7-5.3,26.5-1.5,39.5c0.7,2.5,4.2,4.5,6.6,2.7c6.8-5.2,12.3-11.6,15.9-19.5
				c-2.8-0.8-5.6-1.5-8.4-2.3c-0.2,4-0.3,8-0.5,12c-0.2,5.8,8.7,5.8,9,0c0.3-7.6-0.4-15.2-2.6-22.4c-1.5-4.9-3.8-12.5-10.4-11.8
				c-6,0.7-8.6,7.9-10.2,12.9c-2.2,6.8-2.9,14-2.1,21.1c0.4,4,6.3,6.7,8.4,2.3c3.8-7.9,6-16.3,6-25c0-5.4-0.4-14.9-7.8-15.1
				c-7.6-0.3-10.7,11.2-12.4,16.9c-2.4,8.1-3.1,16.6-2.2,25c0.4,4,6.3,6.8,8.4,2.3c3-6.3,5.6-13.4,5.6-20.6c0-4.9-1.6-12.4-6.8-14.3
				c-6.5-2.3-8.9,6.5-10.1,11c-2,7.6-2.1,15.3-0.9,23c0.8,4.7,7.4,3.8,8.7,0c2.5-7.5,8.5-31.3-6-31c-6.5,0.2-8.1,7-9,12.2
				c-1.2,6.9-0.6,13.8,1.4,20.5c1,3.5,6.5,4.8,8.2,1.1c3-6.5,6.9-17,3.6-24.1c-1.3-2.8-4.4-4.6-7.5-4c-3.7,0.7-5,4.4-5.6,7.7
				c-3.1,16.7,11.5,29.5,27.5,27.2c2-0.2,3.2-2.5,3.3-4.3c0.1-4,1.3-9-2.8-11.5c-3.3-2-7.5-0.5-10.6,1.4c-6.3,3.9-6.1,15.9,3,15.1
				c-0.4-2.9-0.8-5.9-1.2-8.8c-2.8,0.8-8.5,4.3-11.5,3c-3.1-1.4-3.1-7-2.8-9.8c0.6-6,7.1-11.5,4.2-17.7c-2.1-4.5-8-6.5-12.4-4.2
				c-5.1,2.7-5.7,8.9-3.5,13.7c1.9,4,8.7,2.1,8.4-2.3c-0.1-1.9-0.3-3.7-0.4-5.6c-0.3-5.1-7.2-6.1-8.8-1.2c-2.1,6.4-1.9,13,0.6,19.3
				c2.2,5.3,10.9,3,8.7-2.4c-2-4.9-2.3-9.5-0.6-14.5c-2.9-0.4-5.9-0.8-8.8-1.2c0.1,1.9,0.3,3.7,0.4,5.6c2.8-0.8,5.6-1.5,8.4-2.3
				c0.2-1.3,0-1.5-0.4-0.6c-0.4,0.6-0.8,1.2-1.1,1.8c-0.5,1-1,2-1.4,3c-1,2.2-1.6,4.5-1.9,7c-0.6,4.5-0.2,9.3,1.7,13.4
				c1.8,3.9,5.1,6.5,9.5,7c5.1,0.6,9.5-2,14.3-3.3c4.8-1.3,4-9.3-1.2-8.8c-3.8,0.4,5.3,1.7,3.6,0.6c-0.7-0.9-1.4-1.8-2.1-2.7
				c0.6,1.7,0,4.3-0.1,6.1c1.1-1.4,2.2-2.9,3.3-4.3c-9.7,1.4-21.1-9.5-15.4-19.3c-0.9,0.7-1.8,1.4-2.7,2.1c-1.6-1.1-2.3-1-2,0.4
				c0.1,0.6,0,1.2,0,1.8c-0.1,1.4-0.2,2.8-0.5,4.2c-0.5,2.9-1.5,5.7-2.7,8.3c2.7,0.4,5.5,0.7,8.2,1.1c-2-6.8-2.4-14.1-0.2-21
				c-1,3.1-0.7,6.4-1.2,9.6c-0.5,3.3-1.3,6.6-2.4,9.8c2.9,0,5.8,0,8.7,0c-0.6-4.3-0.7-8.8-0.1-13.1c0.3-1.8,1.3-9.7,2.9-10.5
				c-1.2,0.2-2.3,0.3-3.5,0.5c-0.9-0.3-0.8,0.2,0.3,1.4c0.3,1,0.5,2,0.6,3c0.2,1.8,0,3.6-0.3,5.4c-0.8,4.2-2.2,8.3-4,12.2
				c2.8,0.8,5.6,1.5,8.4,2.3c-1.1-10.4,0.3-21,4.9-30.4c0.4-0.8,0.8-1.5,1.2-2.3c-0.7-0.1-1.4-0.1-2.1-0.2c-0.2,0.2,0.3,3,0.3,3.4
				c0.2,2.7,0.1,5.4-0.2,8.1c-0.6,5.2-2.1,10.2-4.4,14.9c2.8,0.8,5.6,1.5,8.4,2.3c-0.8-7.9-0.2-18.1,4.6-24.9
				c-1.7-0.4-1.9,0.2-0.6,1.8c0.4,1.1,0.8,2.3,1.1,3.4c0.5,1.7,0.9,3.5,1.3,5.2c1,4.9,1.2,9.8,1,14.8c3,0,6,0,9,0
				c0.2-4,0.3-8,0.5-12c0.2-4.3-6.5-6.4-8.4-2.3c-2.9,6.4-7.1,12-12.7,16.3c2.2,0.9,4.4,1.8,6.6,2.7c-3.3-11.6-2.7-23.4,1.5-34.7
				c-2.9-0.4-5.9-0.8-8.8-1.2c-0.7,12-1.5,24.1-2.3,36.1c-0.3,4.5,6.3,6.1,8.4,2.3c2.3-4.4,3.7-9,4.5-14c0.7-4.3,0-11.8,2.9-15.3
				c-2.5-0.7-5-1.3-7.5-2c3.4,10.6,0.1,21.9,2.5,32.7c0.8,3.6,6.6,4.6,8.2,1.1c2.4-5.4,4.7-10.7,7.1-16c-2.7-0.4-5.5-0.7-8.2-1.1
				c0.5,3.3,0.4,7.7-1.4,10.6c-2,3.1-7.3,2.7-10.8,2.9c-6.7,0.4-13.5-0.2-20.1-1.7c-1.1-0.3-4.4-0.5-5.2-1.4c1.3,1.3,0.4-2.1,0.3-3
				c-0.3-3.6-0.6-7.3-0.8-10.9c-0.2-2.6-1-6.5,0.5-8.8c1.5-2.4,4.5-2.1,7-2.2c5.1-0.3,9.9-0.9,13.4-5c1.7-2,2.5-4.6,4.1-6.6
				c0.4-0.9,1.1-1.4,2-1.7c-0.1,0-0.3,0-0.5,0c0.4,0.9-0.2,3.6-0.2,4.6C1051.9,419.8,1060.7,429,1071.7,424.3L1071.7,424.3z"/>
		</g>
	</g>
	<g>
		<g>
			<path class="st8" d="M1336.7,474.1c4.3-3.9-2.1-10.2-6.1-6.7c-9.7,8.9-18.4,18.8-25.7,29.8c-0.5,0.7-1.9,3.7-2.7,4.1
				c-2.1,1.1-4.7-1.8-5.9-2.8c-2.8-2.3-5.6-4.6-8.4-6.9c-2.8-2.3-5.6-4.6-8.4-6.9c-1.8-1.5-7.3-4.7-7.7-6.9c-0.4-1.9,4.9-7,6.2-8.7
				c2.4-3.1,4.9-6.2,7.3-9.3c2.2-2.8,4.5-5.7,6.7-8.5c1.1-1.5,2.2-3.2,3.6-4.6s1.3-1.1,3-0.5c5.7,1.9,11.7,6.7,16.5,10.3
				c5.3,4,10.3,8.4,15,13.2c0.3-2.4,0.6-4.7,0.9-7.1c-10.6,5.3-20.3,12.5-28.4,21.3c-3.2,3.4-8.6,8.3-8.3,13.5
				c0.2,4.3,4.7,7.7,8.9,6c3.5-1.4,4.7-6,1.1-8.2c-9.8-5.9-18.6-13.2-26.3-21.7c-1.9,2.4-3.7,4.7-5.5,7.1
				c7.6,4.2,15.6,7.6,23.9,10.2c3.7,1.2,7.2-3.3,5.1-6.6c-4.6-7.4-10.2-13.9-16.9-19.4c-3.7-3-10.1,1-7.1,5.5
				c6.5,9.6,14.3,17.7,23.6,24.5c3.3,2.4,7.6-1.6,6.6-5.1c-3.2-11.8-10.1-21.6-19.9-29c-4-2.9-8,2.6-6.2,6.2
				c5.2,10.3,12.8,18.8,22.2,25.5c1.3,0.9,3.1,0.7,4.5,0c6.8-3.5,2.4-13.2,0.3-18.3c-3.2-7.7-7.8-14.6-13.6-20.6
				c-3.8-3.8-9.2,1.1-7.1,5.5c5.6,11.5,13.5,21.8,23.2,30.2c2.7,2.3,8.1,1,7.7-3.2c-1.3-14.2-7.1-27.2-17.1-37.4
				c-3.7-3.7-9.4,1.1-7.1,5.5c4.8,9.2,12.1,16.8,21.1,22c3.1,1.7,6.7-0.5,6.8-3.9c0.4-9.3-4.3-21.6-13.5-25.6
				c-4.2-1.8-8.6,0.4-9.2,5.1c-0.6,5,3,10.5,5.5,14.5c2.9,4.8,12.4,19.4,19,10.8c2.8-3.7,0.5-9.9-0.9-13.7
				c-1.5-4.1-3.6-7.9-6.3-11.4c-5.1-6.6-15-14.3-21-4.1c-4.4,7.6-8.9,20.6-6.3,29.4c2.9,9.9,13.2,6.7,18.5,0.8
				c6.4-7.2,7.6-17.8,2.9-26.3c-4.1-7.3-13.5-13.3-21.5-8c-3.7,2.4-5.5,6.6-6.9,10.6c-2,5.6-3.6,11.3-5.4,17
				c-1.4,4.4,4.4,7.5,7.5,4.4c7.2-7.2,11.2-16.5,11.4-26.7c0.1-2.7-3-5.3-5.7-4.3c-14.2,5.3-17.9,19.5-19.9,33.1
				c-0.8,5.7,7.9,8.1,8.7,2.4c1.4-9.6,3.1-22.8,13.6-26.8c-1.9-1.4-3.8-2.9-5.7-4.3c-0.2,7.9-3.2,14.9-8.8,20.4
				c2.5,1.5,5,2.9,7.5,4.4c1.6-5,3.1-10,4.7-14.9c1.1-3.4,2.5-9.4,7.2-7.8c9.3,3.1,8.6,16.8,2.3,22.2c-2.2,1.9-2.2,1.8-2.2-0.9
				c0-2.3,0.6-4.7,1.1-7s1.2-4.6,2-6.8c0.4-1,1.9-6.6,3-6.8c2.3-0.5,7.5,8.1,8.4,9.6c1.5,2.7,4.8,8.7,3.8,11.9
				c0.7-0.9,1.4-1.8,2.1-2.7c1.2-0.3,1.1-0.9-0.3-1.7c-0.9-1-1.6-2-2.4-3c-1-1.3-1.9-2.7-2.8-4.1c-0.8-1.4-1.6-2.8-2.4-4.3
				c-0.5-1-0.9-2-1.4-3c-0.1-2-0.8-2.1-2.1-0.5c-2.8,1.8,0.2,2.3,1.8,4.2c1,1.1,1.9,2.4,2.6,3.8c1.7,3.2,2.2,6.7,2.1,10.3
				c2.3-1.3,4.5-2.6,6.8-3.9c-7.8-4.5-13.8-10.8-17.9-18.8c-2.4,1.9-4.7,3.7-7.1,5.5c8.3,8.5,13.4,19.3,14.5,31.1
				c2.6-1.1,5.1-2.1,7.7-3.2c-9.2-8-16.5-17.5-21.8-28.4c-2.4,1.9-4.7,3.7-7.1,5.5c3.7,3.8,6.8,7.9,9.3,12.6c1.3,2.5,2.5,5,3.4,7.7
				c0.4,1.1,0.7,2.1,1,3.1c0.2,0.7,0.4,1.5,0.6,2.3c0.3-0.3,0.5-0.7,0.8-1c1.5,0,3,0,4.5,0c-8.1-5.8-14.4-13.4-18.9-22.3
				c-2.1,2.1-4.1,4.1-6.2,6.2c7.9,5.9,13.2,14.2,15.8,23.6c2.2-1.7,4.4-3.4,6.6-5.1c-7.9-5.9-14.8-13.1-20.3-21.3
				c-2.4,1.9-4.7,3.7-7.1,5.5c6.1,5.1,11.3,10.9,15.5,17.6c1.7-2.2,3.4-4.4,5.1-6.6c-7.5-2.4-14.7-5.5-21.7-9.3
				c-4.6-2.5-8.9,3.3-5.5,7.1c8.2,9,17.7,16.8,28.1,23.1c0.4-2.7,0.7-5.5,1.1-8.2c1.6,2.8,2.9,2.9,3.8,0.5c0.7-0.8,1.4-1.7,2.1-2.5
				c1.1-1.3,2.2-2.5,3.3-3.7c2.3-2.4,4.7-4.7,7.2-6.8c5.6-4.8,11.8-8.7,18.3-12c2.6-1.4,2.8-5.1,0.9-7.1c-6.2-6.4-13-12.1-20.3-17.1
				c-3.7-2.5-7.6-4.9-11.6-7c-3-1.6-6.3-3.7-9.9-2.9c-4,0.9-6.2,4.9-8.6,7.9c-3.2,4.1-6.5,8.2-9.7,12.3c-3.2,4.1-6.5,8.2-9.7,12.3
				c-2.3,2.9-4.8,5.8-4.6,9.7c0.2,4.1,3.5,6.3,6.4,8.7c4.1,3.4,8.1,6.7,12.2,10.1s8.1,6.8,12.2,10.1c3,2.4,6.2,4.5,10.2,3.7
				c6.8-1.4,10.7-11.4,14.5-16.4C1323.1,487.4,1329.7,480.5,1336.7,474.1L1336.7,474.1z"/>
		</g>
	</g>
	<g>
		<g>
			<path class="st8" d="M1331.9,466.1c2.6-5.1-5.2-9.7-7.8-4.5c-3,5.8-6.4,11.4-10.3,16.7c-2,2.7-4.2,5.2-6.4,7.7
				c-1.1,1.3-5.2,7-6.9,6.8c1.3,0.7,2.6,1.5,3.9,2.2c-0.2-0.2-0.3-0.5-0.5-0.7c-3.4-4.7-11.2-0.2-7.8,4.5
				C1305.7,512.1,1328.3,473.1,1331.9,466.1L1331.9,466.1z"/>
		</g>
	</g>
	<g>
		<g>
			<path class="st3" d="M1153,342.6c-6.2,4.5-0.2,14.9,5.9,10.2c15.3-11.2,21.9-31.9,13.7-49.4c-7-14.8-25.6-23.9-40.4-14.1
				c-7.7,5.1-10.6,13.5-10.8,22.4c-0.1,5.1,0.4,10.2,0.6,15.2c0.2,4,0.3,8.2,2,12c1,2.4,2.6,4,4.2,6c1.4,1.8,1.2,2.7,1.7,4.9
				c0.8,3.5,2.9,6.5,6,8.3c5.9,3.5,17.3,5.1,21.4-1.7c2.6-4.2,3.4-10,4.8-14.8c1.5-5.1,3.2-10.3,4.4-15.5c2.3-9.6,1.8-19.2-4.8-27
				c-1.6-1.8-5.4-2.4-7.3-0.9c-6.5,4.8-7.7,11.6-8,19.3c-0.5,10.1-0.9,20.2-1.3,30.3c4,0,8,0,12,0c-1-10.2,1.2-20.3,0.7-30.5
				c-0.4-6.8-2-21.1-10.2-23.2c-8.5-2.3-12.5,9.6-13.5,15.8c-1.4,8.4-1.1,17,0.1,25.4c0.9,6.4,3.9,15.6,12.4,13.1
				c7.7-2.3,7.8-13.3,7.9-19.7c0.1-7.9-0.8-17.8-4.8-24.8s-13.1-6.9-16.2,0.7c-3.2,7.9-3.6,17.4-2.5,25.8c1,7.1,3.2,15.1,11.1,17
				c7.5,1.8,10.7-9.8,3.2-11.6c-2.3-0.5-2.5-7-2.7-9c-0.4-4.3-0.2-8.6,0.7-12.8c0.2-0.7,1.8-4.5,1.4-5.2c-4.7-0.9-6.3,0-4.8,2.6
				c0.4,1.2,0.7,2.3,1,3.5c1,4,1.5,7.9,1.6,12c0.1,2.1,0,4.3-0.2,6.4c-0.1,0.9-1.2,4.1-0.8,4.9c4.4,1.5,6.1,0.9,5.1-1.5
				c-0.2-1.2-0.4-2.4-0.6-3.6c-0.3-2-0.5-3.9-0.6-5.8c-0.2-4.2-0.2-8.5,0.2-12.7c0.2-1.5,0.4-3.1,0.8-4.6c0.2-0.8,1.6-4.5,1.3-4.4
				c-1.5-0.2-3.1-0.4-4.6-0.6c-1-1.3-1-1.1,0.1,0.6c0.5,1,1,2.1,1.3,3.2c0.5,1.6,0.9,3.2,1.1,4.9c0.5,3.4,0.5,6.9,0.3,10.3
				c-0.3,8-1.4,15.8-0.6,23.7c0.8,7.6,11.7,7.9,12,0c0.3-7.5,0.6-15,0.9-22.5c0.2-3.6-1.1-14.2,2.4-16.8c-2.5-0.3-4.9-0.6-7.3-0.9
				c5.8,6.9,1.2,17.8-1,25.2c-1.3,4.4-2.6,8.9-3.9,13.3c-0.4,1.3-0.7,2.5-1.1,3.8c1.6-0.7,1.6-1,0-0.8c-0.9-0.3-2.3-0.2-3.3-0.5
				c-3.5-1-2.2-3.6-3.4-6.6c-1.4-3.5-5-5.4-6-8.9s-0.6-7.7-0.8-11.3c-0.1-3.8-0.5-7.7-0.2-11.5c0.5-6.8,4-12,11.2-12.8
				c7-0.8,13,3.9,16.3,9.7C1167.8,318.8,1163.7,334.8,1153,342.6L1153,342.6z"/>
		</g>
	</g>
	<g>
		<g>
			<path class="st3" d="M1153.6,369.1c1.8-2.8,0.5-6.5-2-8.2c-2.8-1.8-6.5-0.5-8.2,2.2c5.1-0.9,6.6-1.6,4.5-2.1
				c0.2,0,0.4,0.1,0.6,0.2c-1.1-0.8,0.5,0.7-0.2-0.2c-0.8-1-1.9-1.9-3-2.5c-3.4-2-7.1-1.6-10,0.9c-2.5,2.2-2.1,6.3,0,8.5
				c2.3,2.5,6.1,2,8.5,0c-4.8-0.2-6.3,0.1-4.4,1.1c-0.4-0.4-0.5-0.4-0.2-0.1c0.3,0.4,0.7,0.7,1,1c1.2,1.1,2.6,2,4.2,2.5
				C1148,373.5,1151.6,372.3,1153.6,369.1L1153.6,369.1z"/>
		</g>
	</g>
	<g>
		<g>
			<path class="st3" d="M1150.8,377c0-1.7-0.7-3.1-1.8-4.2c-1-1.2-2.6-1.7-4.2-1.8c-1.5,0-3.2,0.8-4.2,1.8c-1.1,1-1.8,2.7-1.8,4.2
				c0,0.3,0,0.6,0,0.9c0,1.6,0.7,3,1.8,4.2c1,1.2,2.6,1.7,4.2,1.8c1.5,0,3.2-0.8,4.2-1.8c1.1-1,1.8-2.7,1.8-4.2
				C1150.8,377.6,1150.8,377.3,1150.8,377L1150.8,377z"/>
		</g>
	</g>
	<g>
		<g>
			<path class="st3" d="M1210.2,266.4c4.9,6,13.4-2.6,8.4-8.7c-25.7-30.5-50.3-61.9-73.8-94.1c-1.6-2.2-4.1-3.7-6.8-2.8
				c-4.2,1.3-7.9,3.5-11,6.7c-1.7,1.8-2.4,5.1-0.9,7.3c23.1,33,46.1,65.9,69.2,98.9c1.8,2.7,5.3,4,8.2,2.2c2-1.3,4-2.5,6-3.7
				c2.5-1.5,4.2-5.6,2.2-8.2c-10.5-13.7-20.1-28-28.8-42.8c-3.9-6.6-14.3-0.6-10.4,6.1c8.7,14.9,18.3,29.1,28.8,42.8
				c0.8-2.7,1.5-5.5,2.2-8.2c-2,1.3-4,2.5-6,3.7c2.7,0.8,5.5,1.5,8.2,2.2c-23.1-33-46.1-65.9-69.2-98.9c-0.3,2.5-0.6,4.9-0.9,7.3
				c1.7-1.7,3.4-2.9,5.7-3.6c-2.3-1-4.5-1.9-6.8-2.8C1158.7,202.9,1183.9,235.1,1210.2,266.4L1210.2,266.4z"/>
		</g>
	</g>
	<g>
		<g>
			<path class="st3" d="M1277.5,606.4c0,7.8,12,7.8,12,0c0-0.3,0-0.6,0-0.9c0-7.7-12-7.7-12,0
				C1277.5,605.8,1277.5,606.1,1277.5,606.4c0,7.8,12,7.8,12,0c0-0.3,0-0.6,0-0.9c0-7.7-12-7.7-12,0
				C1277.5,605.8,1277.5,606.1,1277.5,606.4L1277.5,606.4z"/>
		</g>
	</g>
	<g>
		<g>
			<path class="st3" d="M1373.3,522.7c7.7,0,7.7-12,0-12C1365.6,510.7,1365.6,522.7,1373.3,522.7L1373.3,522.7z"/>
		</g>
	</g>
	<g>
		<g>
			<path class="st8" d="M1346.2,528c5.8,0,5.8-9,0-9C1340.4,519,1340.4,528,1346.2,528L1346.2,528z"/>
		</g>
	</g>
	<g>
		<g>
			<path class="st8" d="M978.7,299.4c5.8,0,5.8-9,0-9S972.9,299.4,978.7,299.4L978.7,299.4z"/>
		</g>
	</g>
	<g>
		<g>
			<path class="st8" d="M922.3,435.4c0-1.2-0.5-2.3-1.3-3.2c-0.8-0.9-2-1.2-3.2-1.3c-1.1-0.1-2.4,0.5-3.2,1.3
				c-0.8,0.8-1.3,2-1.3,3.2c0,0.6,0,1.1,0,1.7c0,1.2,0.5,2.3,1.3,3.2s2,1.2,3.2,1.3c1.1,0.1,2.4-0.5,3.2-1.3c0.8-0.8,1.3-2,1.3-3.2
				C922.3,436.5,922.3,436,922.3,435.4L922.3,435.4z"/>
		</g>
	</g>
</g>
<g id="doodles">
	<g>
		<g>
			<path class="st2" d="M958.6,364c1.9-0.3,1.1-3.2-1-2.7C941,363.9,918.5,371,920,392c1.5,20.7,22.8,31.7,36.4,44.1
				c8.5,7.6,16.2,16,23.1,25.1c4.8,6.3,18.8,22.9,7.6,29.4c-4,2.3-8.8,3.2-12.9,5.4c-3.4,1.9-6.7,4.1-9.5,6.8
				c-5.7,5.3-9.3,12.7-8.2,20.6c2.7,20.2,26.9,26.6,36.4,42.6c1,1.7,3.6,0.2,2.6-1.5c-5.3-8.8-13.8-14.3-21.6-20.7
				c-8.7-7.1-17.9-17.7-13.5-29.7c3.3-8.9,12.3-14.7,20.8-18c5.9-2.3,12.4-4.1,13-11.5c0.7-8.3-5.5-16-10-22.2
				c-5.7-7.8-11.9-15.2-18.7-22c-7.1-7.1-14.8-13.3-22.6-19.6c-7.9-6.5-15.9-13.8-18.8-24C917.8,374.6,941.6,366.7,958.6,364
				L958.6,364z"/>
		</g>
	</g>
	<g>
		<g>
			<path class="st2" d="M1254,360.8c-1.2-1.5-3.3,0.6-1.9,2c19.3,23.7,41.4,45.1,65.8,63.6c21.2,16,44.2,28.8,67.3,41.8
				c22,12.4,44.1,25.3,62.5,42.7c8.7,8.3,20.7,19.3,22,32c2,19.7-25.5,11.4-35.8,9.4c-14.7-2.8-29.3-6.5-44.1-8.4
				c-9.7-1.2-22.3,1.8-22.7,13.6c-0.1,1.9,2.9,1.9,3,0c0.4-12.7,16.3-11.2,24.8-9.6c8.9,1.7,17.8,3.5,26.7,5.2
				c8.7,1.7,17.4,3.6,26.2,5.1c5.4,0.9,11.5,1.7,16.7-0.6c9.5-4.3,9.2-15.1,5.5-23.4c-4.8-10.7-14.2-19.7-22.7-27.4
				c-19-17.3-41.4-30.1-63.6-42.6c-24.1-13.5-47.8-27.1-69.6-44.2C1291.9,402.6,1271.8,382.7,1254,360.8L1254,360.8z"/>
		</g>
	</g>
	<g>
		<g>
			<path class="st2" d="M1413.1,566.2c-1.3-1.5-3.4,0.6-2.1,2c10.5,12.7,25,32.6,11.2,48.4c-7.4,8.5-18.2,5.2-26.9,0.9
				c-8.4-4.1-16.7-8.2-25.5-11.4c-14.4-5.2-30.6-8.7-45.9-6.6c-10.3,1.5-22.3,7.8-20,20c1.4,7.5,7.2,13.9,11.1,20.2
				c4.4,7.2,8.3,14.7,11.6,22.5c1.9,4.4,3.6,8.9,5.1,13.5c1.4,4.4,3.6,9.6,1.9,14.1c-3.5,9.2-16.1,6.1-22,1.9
				c-6.6-4.7-12.1-11-18.6-16.1c-5.8-4.5-11.8-8.6-18.2-12.2c-13-7.4-27.3-12.8-41.9-16s-29.8-4.3-44.7-2.9
				c-11.4,1.1-26.2,2.9-31.6,14.6c-0.8,1.7,1.8,3.2,2.6,1.5c3.9-8.3,13.2-10.9,21.5-12.2c9.3-1.5,18.8-1.8,28.2-1.3
				c18.5,1,36.9,5.6,53.8,13.4c15.1,7,28.2,16.4,40.3,27.7c7.9,7.4,22.2,16.7,31.6,5.8c4.4-5,2.3-11.7,0.5-17.4
				c-2.4-7.6-5.4-15.1-8.8-22.3c-3.8-7.9-8.1-15.4-13-22.7c-5-7.6-10.8-17.8-1.4-24.6c6.2-4.6,14.6-5.1,22-5
				c9.3,0.2,18.6,1.9,27.5,4.5c9,2.7,17.7,6.4,26.2,10.5c6.8,3.3,13.7,7.6,21.5,8.1c12.2,0.8,20.3-9.8,21.5-21.1
				C1432.2,589.3,1421.9,576.8,1413.1,566.2L1413.1,566.2z"/>
		</g>
	</g>
	<g>
		<g>
			<path class="st2" d="M1355.6,616.8c1.9,0.6,2.6-2.3,0.8-2.9c-9.5-3-18.7,4.4-21.1,13.5c-3,11.6,4.9,22.7,12.5,30.5
				c1.3,1.4,3.5-0.7,2.1-2.1c-6.2-6.4-12.4-14.5-12.2-23.9C1337.9,623,1346.2,613.8,1355.6,616.8L1355.6,616.8z"/>
		</g>
	</g>
	<g>
		<g>
			<path class="st2" d="M1006.3,358.8c1.5-1.2-0.6-3.3-2.1-2.1c-6.4,5.2-15.4,4.1-22.6,7.5c-5.1,2.4-9.3,6.4-12.3,11
				c-6.4,9.8-7.6,22.6-1.8,33c1,1.7,3.5,0.2,2.6-1.5c-6-10.8-3.5-24.5,4.6-33.6c4.3-4.8,9.7-7.2,15.9-8.5
				C996.3,363.4,1001.7,362.6,1006.3,358.8L1006.3,358.8z"/>
		</g>
	</g>
	<g>
		<g>
			<path class="st2" d="M1373,571.8c0.7-1.8-2.2-2.6-2.9-0.7c-3.6,9.8-15.2,10-23.5,6.9c-7.8-2.9-15.1-7.8-21.4-13.1
				c-10.7-9.1-17.8-22.2-29.5-30.1c-10.6-7.2-23.1-8-33.1,0.6c-5.3,4.5-9.2,10.5-14.6,14.9c-6,4.8-16.4,7.6-21.3-0.4
				c-1-1.7-3.6-0.2-2.6,1.5c7.7,12.7,23,4.5,30.6-3.5c5.8-6.2,11.3-14.3,20.4-15.8c10.1-1.7,19.5,4.5,26.2,11.3
				c6.1,6.2,11.1,13.4,17.3,19.5c5.8,5.6,12.4,10.5,19.5,14.3C1349.2,583.2,1367.3,587.1,1373,571.8L1373,571.8z"/>
		</g>
	</g>
	<g>
		<g>
			<path class="st2" d="M1348,478.6c1.5-1.2-0.7-3.4-2.1-2.1c-13.1,11.3-23.9,24.6-32.3,39.7c-0.9,1.7,1.7,3.2,2.6,1.5
				C1324.5,502.9,1335.2,489.7,1348,478.6L1348,478.6z"/>
		</g>
	</g>
	<g>
		<g>
			<path class="st2" d="M1345.4,475.4c1.1,1.5,3.7,0,2.7-1.5c-6.6-8.6-14.1-16.4-22.6-23.1c-7.3-5.7-16.2-12.5-25.5-14.7
				c-10.7-2.5-15.7,6.3-21.2,13.8c-7.3,9.9-14.2,20.2-20.6,30.7c-1,1.6,1.6,3.1,2.6,1.5c5.1-8.4,10.5-16.7,16.2-24.7
				c2.9-4,5.8-8,8.8-11.9c2.1-2.8,4.2-5.9,7.8-6.7c2.9-0.7,6,0.2,8.7,1.2C1319.3,446.5,1334.6,461.1,1345.4,475.4L1345.4,475.4z"/>
		</g>
	</g>
	<g>
		<g>
			<path class="st2" d="M1314.4,519c1.8,0.8,2.6-2.1,0.8-2.9c-19.9-8.3-37.7-20.8-52.4-36.6c-1.3-1.4-3.4,0.7-2.1,2.1
				C1275.8,497.8,1294,510.4,1314.4,519L1314.4,519z"/>
		</g>
	</g>
	<g>
		<g>
			<path class="st2" d="M1333.8,477.4c1.4,1.3,3.6-0.9,2.1-2.1c-11.6-10.5-24.5-19.2-38.7-25.8c-1.7-0.8-3.2,1.8-1.5,2.6
				C1309.7,458.6,1322.4,467.1,1333.8,477.4L1333.8,477.4z"/>
		</g>
	</g>
	<g>
		<g>
			<path class="st2" d="M1325.5,482.4c1.6,1.2,3.1-1.4,1.5-2.6c-6.2-4.5-12.4-8.9-18.6-13.4c-1.6-1.1-3.1,1.5-1.5,2.6
				C1313.1,473.5,1319.3,477.9,1325.5,482.4L1325.5,482.4z"/>
		</g>
	</g>
	<g>
		<g>
			<path class="st2" d="M1321.3,489.3c1.6,1.1,3.1-1.5,1.5-2.6c-10.4-7.3-20.8-14.7-31.2-22c-1.6-1.1-3.1,1.5-1.5,2.6
				C1300.5,474.6,1310.9,482,1321.3,489.3L1321.3,489.3z"/>
		</g>
	</g>
	<g>
		<g>
			<path class="st2" d="M1312.5,497.5c1.5,1.2,3.6-0.9,2.1-2.2c-6.5-5.3-13.4-10.2-20.7-14.5c-1.6-1-3.2,1.6-1.5,2.6
				C1299.4,487.7,1306.1,492.3,1312.5,497.5L1312.5,497.5z"/>
		</g>
	</g>
	<g>
		<g>
			<path class="st2" d="M1307.9,505.7c1.5,1.2,3.6-0.9,2.1-2.1c-9.6-7.8-19.9-14.5-31.1-19.9c-1.7-0.8-3.2,1.8-1.5,2.6
				C1288.3,491.6,1298.5,498,1307.9,505.7L1307.9,505.7z"/>
		</g>
	</g>
	<g>
		<g>
			<path class="st2" d="M1102.3,568.5c1.2,1.5,3.3-0.6,2-2c-4.7-6.1,5-11,9.5-11.2c3.8-0.2,7.9,1.3,10.8,3.8
				c7.2,6.3,6.2,17.9,0.5,24.8c-8.1,9.7-27.6,14.7-23.7,30.9c0.5,1.9,3.4,1.1,2.9-0.8c-3.4-14.2,15.6-19.4,22.9-28
				c5.7-6.6,7.5-16.8,3.1-24.6c-3.9-7-12.8-10.7-20.6-8.5C1103.2,554.7,1097.4,562.3,1102.3,568.5L1102.3,568.5z"/>
		</g>
	</g>
	<g>
		<g>
			<path class="st2" d="M1100.7,567.9c0.3,2,3.2,1.1,2.7-0.8c-1.6-10.3-9.4-19.2-19.6-21.6c-4.2-1-8.8-0.8-10.9,3.6
				c-1.7,3.8-0.9,8.8,0.1,12.7c5.2,20.4,27.9,33,28.8,54.9c0.1,1.9,3.1,1.9,3,0c-0.7-16.3-13-28-21.6-40.8
				c-2.4-3.6-4.7-7.4-6.2-11.5c-0.7-1.9-1.3-3.8-1.6-5.8c-0.1-1-0.3-2.1-0.3-3.2c-0.1-2.9,0-3.5,2.3-5.6c2.3-2,2.9-2,5.7-1.4
				c1.3,0.3,2.6,0.8,3.8,1.3c2.4,1.1,4.6,2.5,6.5,4.3C1097.4,557.7,1099.9,562.5,1100.7,567.9L1100.7,567.9z"/>
		</g>
	</g>
	<g>
		<g>
			<path class="st2" d="M1083.7,416.9c-0.3-1.9-3.2-1.1-3,0.9c1.7,8.7,1.9,17.5,0.4,26.2c-0.8,4.8-2.4,7.4-7.8,7.4
				c-3.5-0.1-6.8-0.1-10.3,0.4c-15,2.1-35.6,10.4-45.4-6.5c-1-1.7-3.6-0.2-2.6,1.5c11.5,19.8,34.7,8.7,52.2,7.5
				c7.7-0.5,14.4,1.5,16.5-7.8C1085.9,436.8,1085.5,426.6,1083.7,416.9L1083.7,416.9z"/>
		</g>
	</g>
	<g>
		<g>
			<path class="st2" d="M1083.3,421.7c1.6,1.1,3.1-1.5,1.5-2.6c-2.7-1.6-5.5-3-8.6-3.9c-2.6-0.8-6.3-0.4-8.7-1.4
				c-3.4-1.3-1.9-7.7-2.1-10.9c-0.2-2.7-0.6-5.3-1.8-7.8c-4.3-9.1-15.1-10.2-21.4-2.4c-3.5,4.4-3.4,13-9.2,15.1
				c-3,1.1-6.2,0.5-9.1,1.7c-1.9,0.8-3.6,2-5.1,3.5c-9.1,9.1-5.7,22.7-2.3,33.6c0.6,1.8,3.5,1,2.9-0.8c-3.2-10.5-7.7-30,7.4-34.1
				c3.9-1.1,8-0.2,11.1-3.5c2.4-2.5,3.1-6.1,4.3-9.2c2.5-6.6,10.6-12.4,16.6-5.9c5.4,5.8,2.5,12.8,3.6,19.6c0.4,2.7,2.1,3.7,4.7,4.1
				C1073.2,417.8,1077.9,418.4,1083.3,421.7L1083.3,421.7z"/>
		</g>
	</g>
	<g>
		<g>
			<path class="st2" d="M1071.4,418.6c-0.3-1.9-3.3-1.9-3,0c1.5,11.3-0.3,22.5-5.3,32.7c-0.8,1.7,1.8,3.2,2.6,1.5
				C1070.9,442.1,1072.9,430.4,1071.4,418.6L1071.4,418.6z"/>
		</g>
	</g>
	<g>
		<g>
			<path class="st2" d="M1167.6,352.1c-1.7,0.8-0.2,3.4,1.6,2.7c12.5-5.9,20.5-18.8,21.3-32.5c0.7-12.4-5-24.7-13.8-33.3
				c-9-8.8-22.3-15.9-34.8-10.6c-24.9,10.5-28,45.8-14.4,66.1c1.1,1.6,3.7,0.1,2.6-1.5c-8.2-12.3-10.1-28-4.9-41.8
				c2.9-7.6,8-14.7,15.2-18.8c7.9-4.6,16.2-3.3,24,1c12.5,6.9,22.3,20.1,23.1,34.6C1188.2,332.2,1180.5,346.1,1167.6,352.1
				L1167.6,352.1z"/>
		</g>
	</g>
	<g>
		<g>
			<path class="st2" d="M1169,355.7c-1.4-1.4-3.5,0.7-2.2,2.2c3.8,4-3.7,5.4-6.3,5.3c-1.8-0.1-3.8-0.6-5.6-0.9
				c-2.9-0.5-5.8-1.2-8.7-1.9c-3.1-0.8-6.2-1.7-9.2-2.8c-3.6-1.4-9.6-5.9-5-9.8c1.5-1.2-0.6-3.3-2.1-2.1c-3.1,2.7-3.1,7.1-0.7,10.3
				c4,5.2,12.9,6.5,18.8,7.9c5.5,1.3,14.5,4.4,19.7,1C1170.9,362.8,1171.6,358.5,1169,355.7L1169,355.7z"/>
		</g>
	</g>
	<g>
		<g>
			<path class="st2" d="M1163.2,366.4c0.1-1.9-2.9-1.9-3.1,0c-0.4,6.2-7.8,8.2-12.8,6.4c-4.9-1.7-8.6-6.2-11.9-10.1
				c-1.2-1.5-3.3,0.6-2.1,2.1c4.7,5.5,10.7,12.2,18.7,11.7C1157.8,376.1,1162.8,372.3,1163.2,366.4L1163.2,366.4z"/>
		</g>
	</g>
	<g>
		<g>
			<path class="st2" d="M1155.1,377.6c-0.4-1.9-3.3-1.1-2.9,0.8c0.5,2.2-1,4.8-3.3,5.3c-2.7,0.6-5.1-1.9-5.1-4.4c0-1.9-3-1.9-3,0
				c0.1,4.2,3.9,8.1,8.3,7.4C1153.4,386,1155.9,381.7,1155.1,377.6L1155.1,377.6z"/>
		</g>
	</g>
	<g>
		<g>
			<path class="st2" d="M1175.6,314.3c1.7-1,0.2-3.6-1.5-2.6c-9.1,5.8-16.1,13.8-20.5,23.6c-0.8,1.7,1.8,3.3,2.6,1.5
				C1160.4,327.5,1167,319.8,1175.6,314.3L1175.6,314.3z"/>
		</g>
	</g>
	<g>
		<g>
			<path class="st2" d="M1160.2,307c0.2-1.9-2.6-2.7-2.9-0.8c-1.9,14.3-3.9,28.7-5.8,43.1c-0.2,1.9,2.6,2.7,2.9,0.8
				C1156.3,335.8,1158.3,321.4,1160.2,307L1160.2,307z"/>
		</g>
	</g>
	<g>
		<g>
			<path class="st2" d="M1155,331.5c0.5,1.9,3.4,1.1,2.9-0.8c-2.8-10.1-9.4-18.5-18.5-23.6c-1.7-0.9-3.2,1.7-1.5,2.6
				C1146.4,314.5,1152.4,322.1,1155,331.5L1155,331.5z"/>
		</g>
	</g>
	<g>
		<g>
			<path class="st2" d="M1264,588.6c0.8-1.8-1.8-3.3-2.6-1.5c-2.7,5.9-5.5,11.8-8.6,17.5c-1.3,2.5-8.1,18-11.9,16.4
				c-1.7-0.7-3.3,1.8-1.5,2.6c5.9,2.5,9.1-5.3,11.5-9.4C1255.7,605.9,1260,597.3,1264,588.6L1264,588.6z"/>
		</g>
	</g>
	<g>
		<g>
			<path class="st2" d="M1261.3,590.4c1.5,1.2,3.6-0.9,2.2-2c-9.6-7.5-19-15.2-28.8-22.4c-8.3-6-17.5-11.6-27.7-13.2
				c-20.5-3.3-29.1,17.9-36.4,32.9c-0.8,1.7,1.8,3.2,2.6,1.5c3.8-7.8,7.2-16.2,12.8-23c6.6-8,15.2-10.3,25.1-7.4
				c9.2,2.6,17.3,8.1,24.8,13.8C1244.5,577,1252.8,583.8,1261.3,590.4L1261.3,590.4z"/>
		</g>
	</g>
	<g>
		<g>
			<path class="st2" d="M1243.5,623.9c1.9,0.5,2.7-2.4,0.8-2.8c-25.6-5.7-49.4-17.5-69.3-34.6c-1.4-1.3-3.6,0.8-2.1,2.1
				C1193.2,606,1217.4,618.2,1243.5,623.9L1243.5,623.9z"/>
		</g>
	</g>
	<g>
		<g>
			<path class="st2" d="M1219.2,595.7c-1.9,0.5-1.1,3.4,0.8,2.9c7.1-1.8,12.5-9.1,10.3-16.5c-1.9-6.6-9.4-11.1-16-8.7
				c-6.1,2.2-10,9.7-7.6,15.9c2.4,6.3,9.9,9.3,16.1,7.1c1.8-0.6,1-3.5-0.8-2.9c-11,3.9-18.3-11.5-7.6-16.9c5.3-2.6,12,1.4,13.2,6.9
				C1228.9,589.2,1224.5,594.4,1219.2,595.7L1219.2,595.7z"/>
		</g>
	</g>
	<g>
		<g>
			<path class="st2" d="M1165.9,519.8c-0.2,1.9,2.8,1.9,3,0c1-8.7,1.7-19.2-5.9-25.4c-3.6-3-8.2-2.9-12.5-4.3
				c-5.3-1.8-9.4-6.3-10.9-11.6c-2.5-8.9,4.9-17.3-1.4-25.6c-4.1-5.3-10.8-7.8-17.2-5.8c-1.8,0.6-1,3.5,0.8,2.9
				c4.4-1.4,8.9-0.2,12.3,2.9c4.2,3.9,4.3,8.4,3.2,13.6c-1.5,6.6-2,12.2,1.8,18.2c3.7,5.9,9,7.8,15.4,9.3
				C1167.2,496.9,1167.1,509.1,1165.9,519.8L1165.9,519.8z"/>
		</g>
	</g>
	<g>
		<g>
			<path class="st2" d="M1190.3,463.8c-1.5,1.2,0.6,3.3,2.1,2.2c2.6-2.1,3-6,1.3-8.8c-1.9-3-5.8-3.5-8.7-1.7
				c-2.9,1.8-4.2,5.6-2.2,8.6c1.9,2.8,5.7,3.9,8.8,2.4c1.7-0.9,0.2-3.5-1.5-2.6c-1.7,0.9-4,0-4.9-1.7c-0.9-1.7,0.1-3.6,1.7-4.4
				C1190.9,455.7,1193.4,461.3,1190.3,463.8L1190.3,463.8z"/>
		</g>
	</g>
	<g>
		<g>
			<path class="st2" d="M1053.5,308.8c-1,1.6,1.6,3.1,2.6,1.7c2.7-4.5,4-10.6,0.7-15.1c-2.2-3.1-6.6-4.5-10.2-3.3
				c-3.8,1.2-5.7,5.3-4.2,9c1.6,4.1,6.3,6.7,10.6,6.2c1.9-0.2,1.9-3.2,0-3c-2.9,0.4-6-0.9-7.5-3.5c-1.7-2.8,0-5.8,3.2-6.1
				c2.9-0.3,5.7,1.4,6.6,4.2C1056.4,302.2,1055.3,305.9,1053.5,308.8L1053.5,308.8z"/>
		</g>
	</g>
	<g>
		<g>
			<path class="st2" d="M1214.8,431.4c0.9-1.7-1.7-3.2-2.3-1.6c-4.5,8.1-13.1,13-22.3,12.5c-10.1-0.6-18-7.1-22.8-15.6
				c-3.8-6.9-6.4-14.4-11.1-20.8c-4.3-5.8-9.8-10.8-16-14.5c-7-4.2-14.6-6.4-22.7-7.6c-9.1-1.3-19.3-2.4-25.1-10.5
				c-3.3-4.6-2.7-8.7-1.1-13.7c1-3.1,1.6-6,0.8-9.2c-1.4-5.9-6.1-10.3-11.9-11.6c-1.9-0.4-2.7,2.5-0.8,2.9c4.8,1,8.6,4.6,9.8,9.5
				c1,4.5-1.6,8.1-2.3,12.4c-0.9,5.6,1.8,10.9,5.8,14.7c10.4,9.9,26.7,7.2,39.3,12.5c13.9,5.9,22.6,16.9,28.9,30.3
				c5.4,11.6,12.7,22,26.3,24C1198.4,446.7,1209.4,441.2,1214.8,431.4L1214.8,431.4z"/>
		</g>
	</g>
	<g>
		<g>
			<path class="st2" d="M1235.7,267.4c-0.3-1.9-3.2-1.1-2.9,0.8c1.6,12.5,3.3,25,5,37.5c0.3,1.9,3.2,1.1,2.9-0.8
				C1239.1,292.4,1237.4,279.9,1235.7,267.4L1235.7,267.4z"/>
		</g>
	</g>
	<g>
		<g>
			<path class="st2" d="M1236.2,306.6c1.6,1.1,3.1-1.5,1.5-2.6c-11.8-8.5-23.6-17-35.4-25.5c-1.6-1.1-3.1,1.5-1.5,2.6
				C1212.6,289.6,1224.4,298.1,1236.2,306.6L1236.2,306.6z"/>
		</g>
	</g>
	<g>
		<g>
			<path class="st2" d="M1233.8,269.1c1.1,1.5,3.7,0,2.6-1.5c-29.6-39.6-58.7-79.7-87.3-120.1c-1.1-1.6-3.7-0.1-2.6,1.5
				C1175.1,189.4,1204.2,229.4,1233.8,269.1L1233.8,269.1z"/>
		</g>
	</g>
	<g>
		<g>
			<path class="st2" d="M1197.1,276.6c1.2,1.5,3.8,0,2.6-1.5c-27.2-36-53.6-72.7-79.2-109.8c-1.1-1.6-3.7-0.1-2.6,1.5
				C1143.5,204,1169.9,240.6,1197.1,276.6L1197.1,276.6z"/>
		</g>
	</g>
	<g>
		<g>
			<path class="st2" d="M1147.4,149c0.9,1.7,3.5,0.2,2.6-1.5c-5.7-10.9-13.5-24.2-27.4-24.6c-10.6-0.3-19.3,9-19.4,19.3
				c0,1.9,3,1.9,3,0c0.2-10.7,10.3-18.5,20.6-15.6C1137.2,129.5,1142.7,140.2,1147.4,149L1147.4,149z"/>
		</g>
	</g>
	<g>
		<g>
			<path class="st2" d="M1117.3,166.5c1,1.6,3.6,0,2.6-1.5c-5.1-7.6-9.7-15.4-13.8-23.6c-0.9-1.7-3.5-0.2-2.6,1.5
				C1107.6,151.1,1112.2,158.9,1117.3,166.5L1117.3,166.5z"/>
		</g>
	</g>
	<g>
		<g>
			<path class="st2" d="M1149.6,153.9c1.6,1.1,3.1-1.5,1.5-2.6c-12.7-8.7-29.8-4-36.2,10.1c-0.8,1.7,1.8,3.3,2.6,1.5
				C1123.2,150.3,1138.1,146.1,1149.6,153.9L1149.6,153.9z"/>
		</g>
	</g>
	<g>
		<g>
			<path class="st2" d="M1154.9,162.9c1.6,1.1,3.1-1.5,1.5-2.6c-11.8-7.5-28.3-2-33.7,10.8c-0.7,1.8,2.2,2.6,2.9,0.8
				C1130.2,160.7,1144.9,156.5,1154.9,162.9L1154.9,162.9z"/>
		</g>
	</g>
	<g>
		<g>
			<path class="st2" d="M1235.6,270.5c1.6-1,0.1-3.6-1.6-2.6c-3,1.8-7.7-2.9-10.9-3.7c-2.5-0.6-5.2-0.6-7.8,0c-2.6,0.6-5,1.8-7,3.5
				c-2.9,2.5-3.9,6.9-7.3,8.7c-1.7,0.9-0.2,3.5,1.5,2.6c2.9-1.5,3.8-4,5.6-6.6c2.5-3.6,6.5-5.6,10.8-5.7
				C1224.6,266.6,1230.1,273.8,1235.6,270.5L1235.6,270.5z"/>
		</g>
	</g>
	<g>
		<g>
			<path class="st2" d="M1219.2,265.1c1.1,1.5,3.7,0,2.6-1.5c-20.2-26.6-40.5-53.3-60.7-79.9c-1.2-1.5-3.8,0-2.6,1.5
				C1178.7,211.8,1199,238.5,1219.2,265.1L1219.2,265.1z"/>
		</g>
	</g>
	<g>
		<g>
			<path class="st2" d="M1187.5,245.1c1,1.6,3.6,0.1,2.6-1.5c-18.9-27.8-39.1-54.7-60.3-80.8c-1.2-1.5-3.3,0.6-2.1,2.1
				C1148.8,190.8,1168.7,217.5,1187.5,245.1L1187.5,245.1z"/>
		</g>
	</g>
	<g>
		<g>
			<path class="st2" d="M1236.8,297.1c1.5,1.2,3.6-0.9,2.2-2.1c-1.9-1.6-4.5-2.1-6.7-0.8c-2.2,1.3-3.1,3.8-2.6,6.2
				c0.4,1.9,3.3,1.1,2.9-0.8C1232.1,297.1,1234.9,295.5,1236.8,297.1L1236.8,297.1z"/>
		</g>
	</g>
	<g>
		<g>
			<path class="st2" d="M1235.9,296.7c-0.5-1.9-3.4-1.1-3,0.6c0.7,2.6,1.9,4.9,3.5,7c1,1.2,2.9-0.2,2.5-1.5c-0.7-2.7-2.1-5.1-4.2-7
				c-0.7-0.6-2-0.6-2.4,0.3c-1.2,2.5-0.5,5.5,2,7c0.8,0.5,2,0,2.2-0.9c0.6-2.4,0-4.8-1.6-6.7c-0.4-0.5-1.3-0.5-1.8-0.2
				c-2.7,1.5-2.7,5.7,0.1,7.1c0.6,0.4,1.3,0.3,1.8-0.2c2-1.7,3.9-5.5,1.8-7.8c-2-2.1-5.6,0.2-4.2,2.8c0.9,1.7,3.5,0.2,2.6-1.5
				c-0.3-0.6-0.5,1.5-0.5,1.7c-0.1,0.4-0.2,0.7-0.3,1c-0.3,0.7-0.8,1.3-1.4,1.8c0.6,0,1.2-0.1,1.8-0.2c-0.8-0.4-0.9-1.5-0.1-1.9
				c-0.6,0-1.2-0.1-1.8-0.2c0.9,1.1,1.2,2.4,0.8,3.8c0.7-0.3,1.5-0.6,2.2-0.9c-1-0.6-1.4-1.8-0.9-2.9c-0.8,0.1-1.6,0.2-2.4,0.3
				c1.7,1.6,2.9,3.5,3.5,5.7c0.8-0.5,1.7-1,2.5-1.5C1237.3,300.7,1236.4,298.8,1235.9,296.7L1235.9,296.7z"/>
		</g>
	</g>
	<g>
		<g>
			<path class="st2" d="M1241.5,312.4c-0.3-1.9-3.2-1.1-2.9,0.7c2.1,11.4,7,21.6,14.4,30.5c1.2,1.5,3.3-0.6,2.1-2.1
				C1248,333.1,1243.5,323.2,1241.5,312.4L1241.5,312.4z"/>
		</g>
	</g>
	<g>
		<g>
			<path class="st2" d="M1262.4,324.9c-1.6-1.2-3.1,1.4-1.5,2.6c10.4,7.7,21.4,14.6,32.8,20.7c1.7,0.9,3.2-1.7,1.5-2.6
				C1283.8,339.5,1272.8,332.6,1262.4,324.9L1262.4,324.9z"/>
		</g>
	</g>
	<g>
		<g>
			<path class="st2" d="M1018.3,553.5c-1,1.6,1.6,3.1,2.6,1.4c2.3-3.7,9.3,8.9,10.3,10.4s2,3,2.8,4.6c0.7,1.2,1.2,2.5,1.6,3.9
				c0.9,2,0.3,3.5-1.6,4.6c-2.3,2.5-3.1,2.2-6,3.1c-1,0.3-2,0.7-2.9,1.2c-1.6,1-2.8,2.5-3.5,4.3c-4.3,11.2,8.2,17.3,16.6,20
				c1.8,0.6,2.6-2.3,0.8-2.9c-4.2-1.4-8.9-2.8-12.1-6.1c-4-4.1-4.4-11.5,1.9-13.6c5.3-1.7,10.6-2.5,10-9.5c-0.3-3.5-2.3-6.6-4-9.4
				c-2.2-3.6-4.3-7.5-6.9-10.8C1025.5,551.5,1021,549.3,1018.3,553.5L1018.3,553.5z"/>
		</g>
	</g>
	<g>
		<g>
			<path class="st2" d="M1190,671.2c1.9,0.5,2.7-2.4,0.7-2.9c-10.9-2.8-19.6,8.1-14.9,18.2c0.8,1.8,3.4,0.2,2.6-1.5
				C1174.8,677.2,1181.8,669.1,1190,671.2L1190,671.2z"/>
		</g>
	</g>
	<g>
		<g>
			<path class="st2" d="M1036.8,506.5c-1.5,1.1,0,3.7,1.5,2.6c3.3-2.4,5.1-6.7,3.8-10.7c-1.3-3.6-5.1-5.7-8.8-5.1
				c-3.6,0.5-6.3,3.7-5.6,7.4c0.6,3.6,3.8,6.3,7.5,5.7c1.9-0.3,1.1-3.2-0.8-2.9c-2.1,0.3-3.8-2-3.8-3.9c-0.1-2.3,2.1-3.5,4.2-3.4
				C1040.6,496.4,1040.6,503.7,1036.8,506.5L1036.8,506.5z"/>
		</g>
	</g>
	<g>
		<g>
			<path class="st2" d="M1454.8,494.1c0.5,1.9,3.4,1.1,2.9-0.8c-2.4-9.7-14.1-15.2-21.6-20.4c-11.1-7.8-22.2-15.5-33.3-23.3
				c-1.6-1.1-3.1,1.5-1.5,2.6c9.5,6.7,19,13.3,28.5,20c4.8,3.3,9.6,6.7,14.3,10C1448.6,485.3,1453.4,488.5,1454.8,494.1
				L1454.8,494.1z"/>
		</g>
	</g>
</g>
<g id="laptop">
	<path class="st1" d="M580.9,945.2c115.3-25.7,230.7-51.4,346.1-77.1c73.8,29.8,147.6,59.5,221.4,89.3
		c-121.5,20.8-243,41.6-364.5,62.4C716.2,994.9,648.5,970.1,580.9,945.2z"/>
	<g>
		<g>
			<path class="st2" d="M788.9,1021.3c0.5-1.9-2.4-2.7-2.8-0.6c-0.4,1.2-0.7,2.5-1.1,3.7c0.9,0.1,1.9,0.3,2.9,0.4c0-1,0-1.9,0-2.9
				c-1,0-2,0-3,0c0,1.4,0.3,2.8,0.8,4.2c0.5,1.3,2.4,1.5,2.9,0c0.5-1.8,0.6-3.7,0.2-5.5c-0.2-1.4-2-1.3-2.7-0.4
				c-0.9,1.1-0.9,2.6-0.1,3.8c0.6,1,2.4,0.9,2.7-0.4c0.4-1.5,0.2-3-0.6-4.3c-0.7-1.1-3-0.7-2.8,0.8c0.2,1.6,0.4,3.1,0.6,4.7
				c0.1,0.8,0.6,1.5,1.5,1.5c0.7,0,1.6-0.7,1.5-1.5c-0.2-1.6-0.4-3.1-0.6-4.7c-0.9,0.3-1.9,0.5-2.8,0.8c0.4,0.6,0.5,1.2,0.3,1.9
				c0.9-0.2,1.8-0.3,2.7-0.4c-0.2-0.3-0.2-0.5,0.1-0.8c-0.9-0.2-1.8-0.3-2.7-0.4c0.3,1.4,0.2,2.6-0.2,3.9c1,0,1.9,0,2.9,0
				c-0.5-1.1-0.7-2.2-0.7-3.4c0-1.9-3-1.9-3,0c0,1,0,1.9,0,2.9c0,1.7,2.4,2,2.9,0.4C788.2,1023.8,788.5,1022.5,788.9,1021.3
				L788.9,1021.3z"/>
		</g>
	</g>
	<g>
		<g>
			<path class="st2" d="M786.6,1028.5c1.7,0.9,3.2-1.7,1.6-2.6c-15.6-8-32.5-12.4-49.2-17.2c-8.5-2.4-16.9-4.9-25.1-8.1
				c-9-3.5-17.6-8.2-26.4-12.2c-16.9-7.7-35-12.9-52.6-18.7c-18.6-6.1-37.1-12.3-55.7-18.5c-1.8-0.6-2.6,2.3-0.8,2.9
				c18.6,6.1,37.1,12.3,55.7,18.5c17.9,5.9,36.4,11.1,53.5,19.1c7.7,3.6,15.2,7.6,23,10.8c8.1,3.4,16.5,6,25,8.4
				C752.9,1015.8,770.5,1020.2,786.6,1028.5L786.6,1028.5z"/>
		</g>
	</g>
	<g>
		<g>
			<path class="st2" d="M785.2,1027.9c5.5,1.9,7.8-6.8,2.4-8.7c-69.1-23.9-138.1-48.1-206.9-72.7c-5.5-1.9-7.8,6.8-2.4,8.7
				C647.2,979.8,716.1,1004,785.2,1027.9L785.2,1027.9z"/>
		</g>
	</g>
	<g>
		<g>
			<path class="st2" d="M793,931.3c1.9-0.1,1.9-3.1,0-3c-13.4,1.3-24.7,9.2-37.7,11.8c-1.9,0.4-1.1,3.3,0.8,2.9
				C768.9,940.5,780,932.6,793,931.3L793,931.3z"/>
		</g>
	</g>
	<g>
		<g>
			<path class="st2" d="M755.2,941.6c1.7,1,3.2-1.6,1.5-2.6c-7.7-4.1-14.8-9.1-21.4-14.9c-1.4-1.3-3.5,0.8-2.1,2.1
				C739.9,932.2,747.3,937.3,755.2,941.6L755.2,941.6z"/>
		</g>
	</g>
	<g>
		<g>
			<path class="st2" d="M789.9,925.6c1.6,1.2,3.1-1.4,1.5-2.6c-6.3-4.6-12.8-8.8-19.5-12.8c-1.6-1-3.2,1.6-1.5,2.6
				C777.1,916.8,783.6,921.1,789.9,925.6L789.9,925.6z"/>
		</g>
	</g>
	<g>
		<g>
			<path class="st2" d="M769.9,913.3c1.8-0.6,1-3.5-0.8-2.9c-11.5,4.3-22.9,8.5-34.3,12.8c-1.8,0.7-1,3.6,0.8,2.9
				C747.1,921.8,758.5,917.6,769.9,913.3L769.9,913.3z"/>
		</g>
	</g>
	<g>
		<g>
			<path class="st2" d="M802,942.7c1.9-0.6,1.1-3.5-0.8-2.9c-30.1,9.3-59.8,20-88.9,32.1c-1.8,0.7-1,3.6,0.8,2.9
				C742.2,962.7,771.9,952,802,942.7L802,942.7z"/>
		</g>
	</g>
	<g>
		<g>
			<path class="st2" d="M799.1,966c1.7-0.8,0.2-3.4-1.5-2.6c-18.7,9-37.6,17.6-56.7,25.8c-1.8,0.8-0.3,3.4,1.5,2.6
				C761.5,983.5,780.4,975,799.1,966L799.1,966z"/>
		</g>
	</g>
	<g>
		<g>
			<path class="st2" d="M796.4,991.7c1.7-0.9,0.2-3.5-1.5-2.6c-10.2,5.2-20.4,10.5-30.6,15.7c-1.7,0.9-0.2,3.5,1.5,2.6
				C776,1002.2,786.2,996.9,796.4,991.7L796.4,991.7z"/>
		</g>
	</g>
	<g>
		<g>
			<path class="st2" d="M790.6,992.6c1.5,1.3,3.6-0.8,2.1-2.1c-14.3-12.1-29.3-23.4-44.9-33.7c-1.6-1.1-3.1,1.5-1.5,2.6
				C761.7,969.6,776.5,980.6,790.6,992.6L790.6,992.6z"/>
		</g>
	</g>
	<g>
		<g>
			<path class="st2" d="M794.3,972.1c1.5,1.1,3-1.5,1.5-2.6c-8-5.7-16-11.3-24-16.9c-1.6-1.1-3.1,1.5-1.5,2.6
				C778.3,960.9,786.3,966.5,794.3,972.1L794.3,972.1z"/>
		</g>
	</g>
	<path class="st1" d="M796.1,749.4c135.3-18.3,270.5-36.5,405.8-54.7c-11.8,89.3-23.7,178.5-35.5,267.8
		c-125.7,21.4-251.4,42.8-377.1,64.2C791.5,934.2,793.8,841.8,796.1,749.4z"/>
	<g>
		<g>
			<path class="st2" d="M1013.3,872.2c-1.8,0.6-1,3.5,0.8,3c12.3-3.8,18.9-14.1,19.9-26.6c1-12.9-2.2-25.3-14.6-31.4
				c-10.7-5.3-23-3-32.1,4.5c-8.8,7.3-15.6,21.3-8.4,31.9c1.1,1.6,3.7,0.1,2.6-1.5c-6.7-9.9,0.7-22.8,9-29.1s19.4-7.8,28.7-2.6
				c10.5,5.9,12.7,16.8,11.8,28.1C1030.1,859.6,1024.2,868.8,1013.3,872.2L1013.3,872.2z"/>
		</g>
	</g>
	<g>
		<g>
			<path class="st2" d="M1010.5,873.3c-1,1.6,1.6,3.1,2.6,1.5c5.4-8.8,3.6-21.2-5-27.4c-8.6-6.1-21-3.9-27.6,4
				c-1.2,1.5,0.9,3.6,2.1,2.1c5.6-6.8,16.2-9,23.6-3.7C1013.6,855.1,1015.1,865.7,1010.5,873.3L1010.5,873.3z"/>
		</g>
	</g>
	<g>
		<g>
			<path class="st2" d="M1000.2,877.5c-1.3,1.4,0.8,3.5,2.1,2.2c6-6.4,5-18-2.9-22.6c-7.9-4.6-18.4,0.4-21,8.8
				c-0.6,1.9,2.3,2.6,2.9,0.8c2-6.6,10.4-10.7,16.6-7.1C1004.2,863.2,1004.9,872.5,1000.2,877.5L1000.2,877.5z"/>
		</g>
	</g>
	<g>
		<g>
			<path class="st2" d="M992.5,884.5c1.8-0.6,1-3.5-0.8-2.8c-2.4,0.9-5.2-0.3-6.3-2.7c-1.1-2.5,0.5-4.9,2.8-5.8
				c5.3-2.2,8.1,5.1,4.1,8.2c-1.5,1.2,0.6,3.3,2.1,2.1c3-2.4,3.6-6.9,1.8-10.2c-1.9-3.4-6.1-4.3-9.6-2.7s-5.6,5.6-4,9.3
				C984.1,883.6,988.6,885.9,992.5,884.5L992.5,884.5z"/>
		</g>
	</g>
	<g id="Layer_8">
	</g>
	<line class="st9" x1="787.3" y1="1024.8" x2="796.1" y2="749.3"/>
	<path class="st9" d="M787.4,1020.9c2.7-90.6,5.4-181.2,8.1-271.8"/>
	<path class="st10" d="M802.3,752.2c-3.6,92.4-7.2,184.7-10.8,277.1c-69.8-23.8-139.7-47.7-209.5-71.6c-9.5,5.9-18.9,11.7-28.4,17.6
		c15.4,19.5,42.3,48.8,83.8,71.6c55.3,30.4,106.3,32.7,139.2,33.8c147.8,5,283-79.7,321.7-105.4c-26.6-2.8-124.7-16-174.3-90.6
		c-9.2-13.8-23.8-36.4-21.6-66.2c3.9-54,59.7-84.4,66.2-87.8C913.2,738,857.8,745.2,802.3,752.2z"/>
	<path class="st11" d="M806,1006.4c-3.6-35.5-7.3-71.1-10.9-106.7c-2,42.3-4.1,84.7-6.2,127c-130.5-51.9-159.8-57.1-162.2-52.1
		c-3.8,8,54.6,56.5,130.1,74.2c103.9,24.3,199.8-19.5,232.2-34.3c26-11.8,46.1-24.1,59.1-32.7C967.4,990,886.7,998.3,806,1006.4z"/>
</g>
<g id="color">
	<path class="st8" d="M1014.2,872c0.5-0.9,4.1-8.7,0-17.1c-0.4-0.7-4.3-8.4-13.3-10.5c-7.3-1.7-15.1,1-20.2,6.9
		c-0.7-1.3-1.6-3.4-1.9-6.1c0,0-0.5-4.8,1.7-10c3-6.8,11.3-14,21.6-14.4c11.7-0.4,21.5,8.1,25.2,18c3.6,9.8,1.2,21-6.1,29
		C1018.9,869.1,1016.6,870.5,1014.2,872z"/>
</g>
<g id="hand_L">
	<path class="st1" d="M465.9,753.4c-10.2,12.1-6.5,31.2,0.9,69.4c5.8,29.8,8.9,44.8,19.1,51.2c15.7,9.8,39.3,2.6,56.4-2.6
		c9.3-2.9,16.7-6.2,21.7-8.7c5.2,4.4,16.9,12.9,33.8,14.8c12.3,1.4,21.5-1.4,31.2-4.3c11.5-3.5,22.6-6.8,23.4-13
		c1.2-9.2-21.4-19.8-20.8-20.8c0.6-1.1,20.3,14.6,39,9.5c3.3-0.9,5.9-2.3,7.8-3.5c-12.2-6.8-28.8-14.3-49.5-19.1
		c-34.7-8-64.1-4.5-81.6-0.9c1.4-10.1,4.1-41.2-15.6-67.7c-5.3-7.1-11.1-12.5-16.5-16.5C506.5,740,479.4,737.3,465.9,753.4z"/>
	<g>
		<g>
			<path class="st2" d="M550.7,826.4c1.8-0.6,1-3.5-0.8-2.9c-12.8,4.8-23.5,13.4-30.8,25c-1,1.6,1.6,3.1,2.6,1.5
				C528.6,839.1,538.6,830.9,550.7,826.4L550.7,826.4z"/>
		</g>
	</g>
	<g>
		<g>
			<path class="st2" d="M615,846.2c-1.9-0.3-2.7,2.6-0.8,2.9c10.8,1.8,19.8,8.9,23.7,19.1c0.7,1.8,3.6,1,2.9-0.8
				C636.5,856.2,626.9,848.2,615,846.2L615,846.2z"/>
		</g>
	</g>
	<g>
		<g>
			<path class="st2" d="M639.4,869.3c1.4-1.4-0.7-3.5-2.1-2.1c-5.4,5.2-12.9,6.8-20,4.5c-1.8-0.6-2.6,2.3-0.8,2.9
				C624.6,877.2,633.2,875.2,639.4,869.3L639.4,869.3z"/>
		</g>
	</g>
	<g>
		<g>
			<path class="st2" d="M601.1,856.1c-1.7-1-3.2,1.6-1.5,2.5c4.7,3,9.7,6.2,13.5,10.2c4,4.1-0.2,8.6-4.9,8.8
				c-2.9,0.1-5.9-1.2-8.6-2.2c-1.8-0.7-2.6,2.2-0.8,2.9c6.2,2.4,17.6,4.5,19.1-5c0.6-3.6-2.2-6.2-4.7-8.4
				C609.4,861.7,605.4,858.7,601.1,856.1L601.1,856.1z"/>
		</g>
	</g>
	<path class="st3" d="M555.6,647.6c5.4,24.9-4,47.1-8.7,58.4c-2.4,5.9-5,10.6-6.9,13.9c1,9.3,1.9,18.6,2.9,27.8
		c1.2,11,2.3,22,3.5,33c-4.7-1.3-11.5-3.1-19.7-4.6c-21.9-4-45.1-8.2-64.2,3.5c-3.4,2-7.5,5.1-11.6,9.8c-0.8-7.3-1.6-17.7-1.2-30.1
		c0.9-31.4,8.4-55,13.3-70c5.8-17.8,11.6-29.7,17.4-41.6c4.5-9.3,8.6-16.9,15-24.9c4.1-5.2,8.2-9.4,9.8-11
		c5.6-5.7,10.9-10.1,15-13.3C526.7,602.8,549.2,619,555.6,647.6z"/>
	<g>
		<g>
			<path class="st2" d="M516.7,604c1.7-0.9,0.2-3.5-1.6-2.7c-9.4,4.9-16.1,13.1-21.8,21.9c-6.4,9.9-12,20.2-17.1,30.8
				c-10.4,21.6-18,44.3-22.8,67.7c-0.4,1.9,2.5,2.7,2.9,0.8C461,700,468.2,678,478,657.2c4.8-10.2,10.2-20.1,16.2-29.7
				C500,618.2,506.7,609.2,516.7,604L516.7,604z"/>
		</g>
	</g>
	<g>
		<g>
			<path class="st2" d="M547.9,705.7c0.9-1.8-1.7-3.3-2.6-1.5c-4.6,9.4-9.4,18.6-14.4,27.8c-0.9,1.7,1.7,3.2,2.6,1.5
				C538.5,724.3,543.3,715.1,547.9,705.7L547.9,705.7z"/>
		</g>
	</g>
	<g>
		<g>
			<path class="st2" d="M540.8,722.9c-0.3-1.9-3.3-1.9-3.1-0.1c2.4,19.4,4.9,38.8,7.4,58.2c0.6-0.4,1.3-0.9,1.9-1.4
				c-18.9-6-38.9-8.6-58.8-7.2c-13.8,0.9-30.2,3.6-37.7,16.8c-0.9,1.7,1.6,3.2,2.6,1.5c7.9-13.8,26.6-15.1,40.7-15.6
				c17.8-0.6,35.5,2,52.5,7.4c0.8,0.3,2-0.4,1.9-1.4C545.8,761.7,543.3,742.3,540.8,722.9L540.8,722.9z"/>
		</g>
	</g>
	<g>
		<g>
			<path class="st2" d="M456.5,721c0.3-1.9-2.6-2.7-2.9-0.8c-3.6,22.6-9.3,46.4-3.3,69c0.5,1.9,3.4,1.1,2.9-0.8
				C447.3,766.3,453,743,456.5,721L456.5,721z"/>
		</g>
	</g>
	<path class="st12" d="M511.4,605.2c-31.4,24.2-40.8,57.6-56.5,113c-3.9,13.7-8,30.5-5.9,51.8c0.8,8.2,2.3,14.9,3.5,19.4
		c2.5-2.5,5.1-5.1,7.6-7.6c1.3,9.3,2.6,17.1,3.5,22.9c4.2,26.1,7.4,40.5,13.5,55.9c3.9,9.7,5.7,11.6,6.5,12.4
		c10.4,10,29.2,6.2,45.3,2.9c9.2-1.8,22.2-5.4,37.1-12.9c4.7,4,20.6,16.6,42.4,15.3c7.1-0.4,13-2.2,17.6-4.1
		c-4.6-6.6-25-34.3-58.8-40c-16.1-2.7-31.2,0.3-35.3,1.2c-12.6,2.8-22.4,7.5-28.8,11.2c3.3-23.7,6.7-47.5,10-71.2
		c-10.2-0.6-20.4-1.2-30.6-1.8c0.3-30.9,4.3-72.2,19.4-118.2c7.7-23.3,16.8-43.6,25.9-60.6C523.9,596.9,517.9,600.4,511.4,605.2z"/>
	<path class="st13" d="M459.1,706.2c-5.9,20.1-11,37.7-10.1,60.9c0.3,9.6,1.6,17.4,2.6,22.5c2.9-2.5,5.9-5,8.8-7.5
		c3.2,18.3,5.1,32.9,6.2,42.9c0.7,6.2,1.2,11.5,3,18.8c3.1,12.3,7.9,21.7,11.5,27.8c3.4,2.2,6.9,3.7,10.1,4.9
		c30.6,10.9,61.9-8.8,70.6-14.6c-9.2,3.5-47.7,17.3-69.3-0.9c-11.4-9.6-14.4-30.2-20.3-71.5c-2-13.7-3.9-27.3-4.4-45.9
		c-0.5-20,0.4-47.7,7.1-80.3C467.3,680.4,462.3,695.2,459.1,706.2z"/>
</g>
<g id="head">
	<path class="st14" d="M722.3,354.6c-37.2-28.3-93.4-6.5-121.5,13.1c-27.3,19-38.5,43.3-42.8,53.1c-4.8,10.7-12.3,28.7-6.2,46.9
		c1.6,4.6,5.3,15.7,13.9,18.4c5.2,1.6,8.8-0.8,15.8,1.6c4.9,1.7,7.7,5.1,11,7.6c8.6,6.6,17.1,15.1,24.8,26.2
		c0.8,9.4,0.7,23.2-4.1,38.7c-2.2,7-4.9,13-7.6,17.9c0.4,0.9,8.8,17.5,25.5,18.6c2.1,0.2,11.8,0.8,17.9-5.5c5-5.2,3.8-11.1,6.2-30.4
		c1-7.5,2-13.7,2.8-17.9c2.3-0.2,4.6-0.5,6.9-0.7c14.2-3.3,24.3-8.9,30.4-13.1c25.3-17.1,35-43.3,40.1-57c3.4-9.1,5-16.4,7.6-27.9
		c4-17.7,5.8-32.7,6.8-43.4C743.3,372.6,728.7,359.5,722.3,354.6z"/>
	<path class="st8" d="M748.6,400.6c-8.7,2.6-28.3,7-51.9,0.8c-29.8-7.9-46.6-27.8-51.9-34.6c-13.4,7.7-40.8,26.3-53.4,60.2
		c-2.7,7.1-4.3,14-5.3,20.3c-11-9.9-23.7-14.1-30.1-9.8c-8.7,5.8-6.6,27.5,5.3,38.4c8.7,7.9,20.1,7.7,23.3,7.5
		c5.7,8.3,11.3,16.5,16.9,24.8c-6.2,1-17.5,2-29.7-3c-23.3-9.5-31.4-33.2-33.9-40.6c-3.4-10.2-4.7-20.9-3-40.6
		c3.6-43,5.4-64.8,21.8-85.1c27.6-34.3,73.7-36.3,87.3-36.9c24.6-1,42.7,5,61.7,11.3c32,10.7,57.5,19.2,71.5,43.7
		c8.9,15.6,17.5,45.1,1.5,66.2c-10.5,13.9-26.7,17.7-33.1,18.8C746.6,428.2,747.6,414.4,748.6,400.6z"/>
	<g>
		<g>
			<path class="st2" d="M750.6,403.4c0.3-1.9-2.7-1.9-3,0c-4,29.9-8.1,60.9-22.4,87.9c-12,22.7-31.6,42.3-57,48.8
				c-1.9,0.5-1.1,3.4,0.8,2.9c25.7-6.5,45.7-26,58.1-48.8C742.2,466.4,746.5,434.3,750.6,403.4L750.6,403.4z"/>
		</g>
	</g>
	<g>
		<g>
			<path class="st2" d="M669,543.4c2,0,2-3,0-3c-17.5,0-35.9-9.5-49.8-19.7c-13.9-10.1-25.2-23.3-33.3-38.5
				c-0.9-1.7-3.5-0.2-2.6,1.5c8.4,15.6,20.1,29.1,34.4,39.6C631.9,533.7,650.9,543.4,669,543.4L669,543.4z"/>
		</g>
	</g>
	<g>
		<g>
			<path class="st2" d="M617.8,520.9c-0.2-1.9-3.2-1.9-3,0c1.9,19.7-1.7,39.3-10.7,57c-0.9,1.7,1.7,3.2,2.6,1.5
				C615.9,561.3,619.8,541.1,617.8,520.9L617.8,520.9z"/>
		</g>
	</g>
	<g>
		<g>
			<path class="st2" d="M661.3,542.9c0.5-1.8-2.4-2.6-3-0.8c-2.5,8.6-4.6,17.4-6.4,26.2c-0.8,4.1-1.5,8.2-2.2,12.3
				c-0.6,3.9-1,8.5-4,11.4c-5.1,4.9-14.2,3.1-20.2,1.4c-7.2-2.1-14.2-6.1-17-13.4c-0.7-1.8-3.6-1-2.9,0.8
				c5,12.9,24.2,20.7,37.2,16.3c8.7-2.9,9.2-11.7,10.5-19.5C655.3,565.9,658,554.3,661.3,542.9L661.3,542.9z"/>
		</g>
	</g>
	<g>
		<g>
			<path class="st2" d="M657,555.3c1.9,0.3,1.9-2.7,0-3c-16.6-2.1-27.6-15.4-35.5-29c-1-1.7-3.6-0.2-2.6,1.5
				C627.5,539.4,639.2,553,657,555.3L657,555.3z"/>
		</g>
	</g>
	<g>
		<g>
			<path class="st2" d="M657.7,545.1c1.9,0.2,1.8-2.8,0-3c-13.1-1.5-24.9-7.8-33.6-17.7c-1.3-1.5-3.4,0.7-2.1,2.1
				C631.3,537,643.8,543.5,657.7,545.1L657.7,545.1z"/>
		</g>
	</g>
	<g>
		<g>
			<path class="st2" d="M657.2,542.9c1.9,0.3,2.7-2.6,0.8-2.8c-10.7-1.5-20.4-5.8-28.6-12.8c-1.4-1.3-3.6,0.8-2.1,2.1
				C635.9,536.7,646,541.3,657.2,542.9L657.2,542.9z"/>
		</g>
	</g>
	<g>
		<g>
			<path class="st2" d="M657.8,545.4c0.4-1.9-2.5-2.7-3-0.8c-0.1,0.7-0.4,5-1.1,5.4c-1.1,0.7-3.6-1-4.7-1.6c-2.7-1.5-5.3-3.1-7.8-5
				c-5.3-4-9.8-8.9-13.5-14.4c-1.1-1.6-3.7-0.1-2.6,1.5c5.2,7.6,11.8,14.1,19.7,18.9c2.3,1.4,6.7,4.8,9.6,4
				C657.4,552.6,657.3,547.8,657.8,545.4L657.8,545.4z"/>
		</g>
	</g>
	<g>
		<g>
			<path class="st2" d="M656.4,548.2c1.8,0.7,2.6-2.2,0.8-2.9c-8.4-3.4-16.2-7.7-23.6-12.9c-1.6-1.1-3.1,1.5-1.5,2.6
				C639.7,540.3,647.8,544.7,656.4,548.2L656.4,548.2z"/>
		</g>
	</g>
	<g>
		<g>
			<path class="st2" d="M654.9,551.2c1.8,0.7,2.6-2.2,0.8-2.9c-9.1-3.2-17-8.4-23.7-15.3c-1.3-1.4-3.4,0.7-2.1,2.1
				C636.9,542.5,645.3,547.8,654.9,551.2L654.9,551.2z"/>
		</g>
	</g>
	<g>
		<g>
			<path class="st2" d="M653.3,549.6c1.8,0.8,3.3-1.8,1.5-2.6c-6.9-3-13.1-7-18.6-12.2c-1.4-1.3-3.5,0.8-2.1,2.1
				C639.7,542.3,646.2,546.5,653.3,549.6L653.3,549.6z"/>
		</g>
	</g>
	<g>
		<g>
			<path class="st2" d="M735,479.4c-1.8,0.6-1,3.5,0.6,2.9c16.6-5.8,22.9-25.7,22.6-41.8c-0.3-14.7-8.2-30.8-23.4-34.9
				c-6.5-1.7-13.9-0.8-19.7,2.9c-6.7,4.2-9.7,11.8-12,19.1c-5,15.7-6.2,35.6,5.5,48.7c9.2,10.3,26.3,12.6,35.4,0.9
				c1.2-1.5-0.9-3.6-2.1-2.1c-5.4,6.9-14.9,8.9-22.9,5.3c-8-3.6-13.1-11.5-15.2-19.8c-2.4-9.4-1.3-19.6,1.2-28.8
				c2.4-8.7,5.7-18.5,14.6-22.3c18.6-7.9,33.8,10.5,35.5,27.4C756.7,452.3,751.3,473.6,735,479.4L735,479.4z"/>
		</g>
	</g>
	<g>
		<g>
			<path class="st2" d="M700.4,449.5c1.6,1,3.1-1.6,1.6-2.6c-10.8-6.5-23.8-7-35-1.4c-1.7,0.9-0.2,3.5,1.5,2.6
				C678.7,443,690.6,443.6,700.4,449.5L700.4,449.5z"/>
		</g>
	</g>
	<g>
		<g>
			<path class="st2" d="M652.6,470.8c-1.4,1.3,0.7,3.5,2.3,2.1c11.6-11.2,16.6-28.2,12.9-43.9c-3.2-13.6-13.8-26.6-28.2-28.9
				c-15.1-2.5-26.9,6.7-30.9,20.9c-4.4,15.6-2.3,35.1,8.3,47.9c4.7,5.7,11.6,9.9,19.2,10.2c8,0.3,14.8-4.2,21.1-8.7
				c1.6-1.1,0.1-3.7-1.5-2.6c-7.7,5.4-16,10.5-25.6,7.1s-15.4-12.7-18.3-22c-4.9-15.8-3.9-42.7,14.9-48.9c17-5.6,32.8,8,37.4,23.8
				C668.6,443,663.9,459.9,652.6,470.8L652.6,470.8z"/>
		</g>
	</g>
	<g>
		<g>
			<path class="st2" d="M725.9,437.9c-0.3-1.9-3.2-1.1-2.8,0.8c0.9,5.5-0.2,10.8-3.2,15.5c0.9,0.2,1.8,0.3,2.7,0.4
				c-2.2-6.2,1-12,4.1-17.3c-0.9-0.3-1.9-0.5-2.8-0.8c-0.1,5.1-1.2,9.9-3.1,14.6c-0.7,1.8,2.2,2.6,2.9,0.8c2-4.9,3.1-10.1,3.2-15.4
				c0-1.5-2.1-2.1-2.8-0.8c-3.4,5.9-6.8,12.7-4.4,19.6c0.4,1.3,2,1.5,2.7,0.4C725.8,450.3,726.9,444.2,725.9,437.9L725.9,437.9z"/>
		</g>
	</g>
	<g>
		<g>
			<path class="st2" d="M637.4,435.1c0,1.9,3,1.9,3,0.1c0.1-0.4,0.2-0.8,0.3-1.2c-0.9-0.3-1.9-0.5-2.8-0.8
				c-0.1,5.4-0.3,11.3-4.6,15.2c0.9,0.4,1.7,0.7,2.6,1.1c-0.7-6.6,1-12.8,5.1-18c-0.8-0.5-1.7-1-2.5-1.5c-1.1,4.9-2.6,9.6-4.5,14.3
				c-0.7,1.8,2.2,2.6,2.9,0.8c1.8-4.6,3.3-9.4,4.5-14.3c0.3-1.4-1.5-2.7-2.5-1.5c-4.6,5.8-6.8,12.7-6,20.1c0.2,1.3,1.6,2,2.6,1.1
				c4.8-4.4,5.3-11.1,5.4-17.3c0-1.5-2.1-2.1-2.8-0.8C637.5,433.5,637.4,433.8,637.4,435.1L637.4,435.1z"/>
		</g>
	</g>
	<g>
		<g>
			<path class="st2" d="M690.4,454.8c-0.6-1.8-3.5-1-3,0.7c2.2,6.6,4,13.3,5.2,20.2c0.3,1.7,1.3,5.6,1,7.1c-0.5,2.7-2.4,3.1-4.8,3.3
				c-4.1,0.3-8.1-0.6-11.8-2.4c-1.7-0.8-3.2,1.8-1.5,2.6c4.6,2.2,17.9,6.3,20.9-0.4c1.5-3.3-0.6-9.5-1.2-12.8
				C694.1,466.9,692.4,460.8,690.4,454.8L690.4,454.8z"/>
		</g>
	</g>
	<g>
		<g>
			<path class="st2" d="M675.3,512.5c1.8,0.3,2.7-2.6,0.8-2.9c-6.9-0.9-12.5-5-15.5-11.3c-0.8-1.8-3.4-0.2-2.6,1.5
				C661.3,506.7,667.8,511.5,675.3,512.5L675.3,512.5z"/>
		</g>
	</g>
	<g>
		<g>
			<path class="st2" d="M732.2,429.3c1.3,1.4,3.4-0.7,2.1-2.1c-3.1-3.5-8.5-3.7-12-0.7c-1.5,1.2,0.6,3.4,2.1,2.1
				C726.8,426.6,730.3,427,732.2,429.3L732.2,429.3z"/>
		</g>
	</g>
	<g>
		<g>
			<path class="st2" d="M646.4,423.7c1.4,1.3,3.6-0.8,2.2-2.1c-4.4-3.8-10.8-3.9-15.2-0.1c-1.5,1.2,0.6,3.3,2.1,2.1
				C638.6,421,643.3,421,646.4,423.7L646.4,423.7z"/>
		</g>
	</g>
	<g>
		<g>
			<path class="st2" d="M607,437.5c1.9,0.7,2.6-2.2,0.8-2.9c-11.1-3.9-22.5-6.2-34.2-6.8c-1.9-0.1-1.9,2.9,0,3
				C585.1,431.4,596.2,433.7,607,437.5L607,437.5z"/>
		</g>
	</g>
	<path class="st4" d="M562.8,331.8c-13.4,13.6-18.1,28.8-21.1,39.1c-2.8,9.5-3.5,16.7-4.7,30.8c-2.8,31.7-4.4,49.3,3.6,69.3
		c2.9,7.2,7.3,17.8,18.1,26.5c11,8.8,22.6,10.9,25.5,11.3c6.7,1,12.5,0.5,16.3-0.1c-5.7-8.2-11.5-16.3-17.2-24.4
		c-4.4,0.1-13.1-0.5-20.5-6.3c-13.5-10.6-16.1-33.3-8.5-39.7c2.6-2.1,6.2-2.4,7.7-2.5c5-0.3,8.9,1.8,15,5.2c2.3,1.3,5.4,3.2,9,6
		c-6.3-9.4-16.3-27.2-18.7-51.4c-4.3-43.4,18.8-75,24.8-82.7C583.2,316.2,572.4,321.8,562.8,331.8z"/>
	<path class="st15" d="M665.3,386.6c-10.1-7.3-16.6-15.3-20.5-20.9c-1.6-9-3.3-18-5-27c4.6,7.9,10.2,16.4,16.9,25.2
		c10.8,14.2,22,25.6,32,34.5C682.6,396.4,674.2,392.9,665.3,386.6z"/>
	<path class="st16" d="M589.5,430.8c-1.9,5.1-3.3,9.9-4.4,14.5c-10.9-9-23.3-12.8-29.8-8.3c-9.1,6.3-7.1,27.7,4.4,38.6
		c9.5,9.1,22.7,8.2,25.4,7.9c16.4,26.4,34.1,38.9,45.6,45.1c7.3,4,20.6,9.9,21,9.2c0.3-0.6-6.8-4.8-9.6-6.6
		c-28.7-18.8-31.5-73.3-32-83.7c-0.7-14-0.1-35.2,7.5-60.5C608.3,396.6,597,411,589.5,430.8z"/>
	<path class="st17" d="M616,522.4c0.6,5.7,0.8,12.5,0,20.2c-1.6,14.8-6.2,26.5-10.1,34.2c0.5,2,1.9,6.8,6.2,11.2s9.2,5.8,11.2,6.2
		c3.5-11,7-22.1,10.6-33.1c2.6-8.1,5.2-16.1,7.8-24.1C633.1,532.2,624.5,527.3,616,522.4z"/>
	<path class="st18" d="M696.6,485.3c-4.8,1.5-9.7,3-14.5,4.5c8.2,0.2,16.3,0.3,24.5,0.5c-5-10.7-10-21.3-15-32
		C693.3,467.3,695,476.3,696.6,485.3z"/>
</g>
</svg>
