<?xml version="1.0" encoding="utf-8"?>
<!-- Generator: Adobe Illustrator 25.2.2, SVG Export Plug-In . SVG Version: 6.00 Build 0)  -->
<svg version="1.1" id="Layer_1" xmlns="http://www.w3.org/2000/svg" xmlns:xlink="http://www.w3.org/1999/xlink" x="0px" y="0px"
	 viewBox="0 0 1129.3 1129.3" style="enable-background:new 0 0 1129.3 1129.3;" xml:space="preserve">
<style type="text/css">
	.st0{fill:#FFFFFF;}
	.st1{fill-rule:evenodd;clip-rule:evenodd;}
</style>
<g transform="rotate(0 402.7702217102051 614.1225624084473)">
	<g transform="translate(0 459)">
		<path class="st0" d="M248.9,661.1c61.2,1.7,119.1,3.6,180.2,0c97.8-6,384.8,4.9,447.9,0c4.8-0.4,21.1,4.9,21.5,0
			c2.8-33.8,4.6-375.8-3.7-399.4c-8.2-23.5-48.9-136.7-100.7-189.4C779.6,58,757.7,52.5,745.5,36c-10.5-18-9.7-28.5-20-37.9
			C721-6,710.4-7.7,702.6-13.4c-7.9-7.9-0.4-25.2-3.7-36.1c-6.7-27.3-31.3-44.9-58.3-49c-37.4-9-77-0.5-94.9,28.9
			c-6.7,10.9-3.1,24.3-11.3,41.8C535-14.5,519.5-11.3,510.3-6l-18.4,18.6c-56.6,31.8-123.2,49-172.8,91.8
			c-42.2,42.8-84.1,92.2-102.8,150.1c-3.9,15.8-5.1,32.1-6.7,48.2c-4.6,47.1-17.3,92.8-28.3,138.7c-12.5,57.8-24.2,119.1-7.3,177.5
			C178.8,631.1,237.9,660.5,248.9,661.1z"/>
		<path class="st1" d="M545.2-64.5c-0.2-1.5-2.3-2-2.8-0.4c-4.8,15.6-7.4,31.8-12.1,47.4c-0.3,0.9-0.6,1.8-0.9,2.8
			c-2.3,6.5-5.7,13.1-6.2,19.8c-0.5,7.4,4.4,12.1,9.4,16.8c0.6,0.6,1.3,1.2,1.9,1.8l17.6,17.2l17.6,17.2C575.9,64,582,70,588.1,75.9
			c3.7,3.6,7.3,7.4,11.1,11c-3.5-1-7.2-1.5-10.4-1.5c-11.6-0.2-22.5,4.8-32.2,10.8c-16,9.8-31.7,20.2-47.3,30.7l-10,6.7
			c2.3-25.5,3.1-51.2,2.4-76.9c-0.2-7.2-0.6-14.3-1.1-21.4c-0.2-2.6-0.5-5.2-0.8-7.8c-0.6-4.7-1.1-9.4-1-14.1
			c0.2-6.1,6.3-10.2,10.8-13.9l1.2-1c5.3-4.4,11.2-8.4,15.7-13.7c0.2-0.2,0-0.4-0.2-0.4c-6.9,1.3-13.2,4.9-19.1,8.6L506-6.1
			c-5,3.1-11.3,6.4-14.6,11.5c-1.4,2.2-2.2,4.7-2.6,7.2l-1-0.2l0-0.1c0-0.6-0.4-1.3-1.1-1.2c-25.4,2-50.2,6.8-74.1,15.6
			c-23.5,8.6-45.9,20.5-66.2,35c-40.7,28.9-72.5,68.1-96.1,112c-11.8,21.9-21.6,44.7-30,68.1c7.1,4.5,14.5,8.3,21.5,12.9
			c4.3,2.8,0.3,9.7-4,6.9c-6.6-4.3-13.5-7.9-20.2-12c-7.5,21.9-13.8,44.1-19.2,66.5c-5.9,24.2-10.8,48.7-15.9,73l-0.7,3.4
			c-5.2,24.8-10.1,49.7-13.8,74.8c-3.9,26.2-6.7,52.6-6.7,79.1c0,12.6,0.6,25.2,2.2,37.7c1.3,10.6,2.8,21.4,6.7,31.4
			c2.5,6.4,5.7,12.2,9.7,17.5c5.5-3.2,11.1-6.3,16.4-9.8c4.3-2.8,8.3,4.1,4,6.9c-4.9,3.2-10.1,6.1-15.2,9.1
			c5,5.3,10.9,9.8,17.6,13.3c14.8,7.8,31.6,10.8,48.1,12.2c14.9,1.2,29.9,0.9,44.8,0.4l7.5-0.3c14.7-0.5,29.3-0.6,44-0.5
			c-5.8-34.5-9.7-69.3-9.8-104.4c0-5.2,8-5.1,8,0c0.1,35.1,4.1,69.9,9.9,104.4l14.7,0.1c61.9,0.4,123.8,0.6,185.7,0.6l23,0
			c12.4,0,24.8,0,37.2,0h0.1c41.2,0,82.3,0.1,123.5,0c39.5-0.1,79.1-0.1,118.7-0.5c-2.4-19.1-3.4-38.4-6.8-57.4
			c-0.9-5,6.8-7.2,7.7-2.1c3.5,19.7,4.5,39.7,7.1,59.5c18.5-0.2,37-0.5,55.5-1c5.4-0.1,10.8-0.5,15.7-3c4.9-2.4,7.5-5.7,10.3-10
			l0.5-0.8c3.7-5.8-5.5-11.2-9.2-5.4c-0.3,0.5-0.8,0.8-1.5,1.2c1.1-2,1.7-4.2,1.7-6.2c0.6-91.9-8.6-184.1-23.2-274.8
			c-4.7-29.5-10.4-59-16.7-88.2c-11.7,4.5-24.2,6.8-35.2,13.1c-4.5,2.6-8.5-4.3-4-6.9c11.7-6.8,25-9.3,37.5-14.1
			c-2.8-12.6-5.7-25.3-8.8-37.8c-9.9-40.7-21.9-81.9-43.9-117.9c-20.1-32.9-47.5-60.9-83.2-76c-1.2-0.7-10.7-3.6-12.1-3.1l-1-3
			c-3.7-11.2-7.8-22.5-15.7-31.4c-3.4-3.9-8-6-12.6-8.2l-2-1c-4.9-2.3-10.1-3.5-15.5-3c-1.2,0.1-1.6,1.8-0.3,2.2
			c5.3,1.6,10.8,4,14.7,8.1c1.9,2.1,2.5,4.6,4.1,6.9c1.5,2.2,3,4.4,4.3,6.8c5.5,9.8,8.6,21,11.9,31.7l0.6,2.1
			c3.3,10.6,6.7,21.1,10.1,31.7l6.7,21.1c-2.9-1.3-6-2.3-8.9-3.5l-16.1-6.6c-1.8-0.8-3.7-1.6-5.7-2.5c-7.7-3.5-16.1-7.3-24.2-6.1
			c-8.3,1.2-16.3,6.9-23.2,12l-3,2.3c-7.5,5.7-14.6,12.1-19.9,19.9c-0.5,0.8,0.2,1.7,1,1.7c0.2,0,0.4-0.1,0.5-0.2
			c7.4-5.1,14.4-10.5,22.1-15.2c0.7-0.4,1.4-0.8,2.1-1.3c6.7-4.1,14.9-9.2,22.6-9.2c3.7,0,7.1,1.4,10.5,2.8c0,0,1,0.6,1.3,1.4
			c0.4,0.8,0.4,1.1,0.2,2.1c-0.2,0.9-11.1,7.1-11.6,7.5l-0.2,0.1c-2.6,1.4-5.3,2.5-8,3.6c-5.5,2.2-11.2,4-17,5.5
			c-7.3,1.8-14.8,3-22.3,3.5c-4.5,0.3-9,0.4-13.5,0.2c-22.1-0.8-43.7-6-63.7-15.3c1.9-0.6,3.8-1.1,5.8-1.4c4.3-0.7,8.8-0.5,12.9,0.9
			c4.1,1.3,7.4,4.1,11.4,5.6c3.5,1.4,6.8-2.7,5.9-5.9c-0.5-1.6-1.2-3.1-2.1-4.3c2.4-0.3,4.7-1.5,6-3.2c2.6-3.5,2-7.5-0.6-10.8
			c-4.9-6-11.2-11.2-16.8-16.6l-16.2-15.8c-11.1-10.7-22.1-21.5-33.2-32.2l-5.7-5.5L542,7.9c-0.6-0.6-2-1.6-2.5-2.4
			c0.2-0.8,0.3-1.5,0.5-2.3c1.4-7.1,1.9-14.6,2.9-21.9C544.8-33.6,546.8-49.4,545.2-64.5z M711.9-4.4c-0.1-0.4,0.3-0.8,0.6-0.6
			c8.9,3.3,4.3,14.9,1.5,21.9l-0.1,0.2l-0.5,1.3c-4.4,11.3-10.5,22.3-17.1,32.4c-7,10.6-14.7,20.7-23.1,30.2
			c-3.6,4.1-7.4,8.1-11.3,12l-1.5,1.5c-0.7,0.6-1.3,1.4-2.1,2.1c-3.6,3.8-8,8.4-13.1,7.8c-6.6-0.8-10.2-7.8-5.5-13.2
			c3.4-3.8,8.1-6.8,11.9-10.2c3.8-3.4,7.4-6.9,11-10.5c7.3-7.4,14.1-15.2,20.4-23.5c6.1-8,11.9-16.2,17.2-24.7l1.1-1.7
			c0.9-1.4,2-3,3.1-4.6C708.8,9.8,714.1,2.3,711.9-4.4z M389.8,86.3c-4.2-2.9-0.2-9.8,4-6.9c7.8,5.3,14.6,11.8,23,16.1l0.2,0.1
			c4.3,2.5,0.3,9.2-4.2,6.8C404.4,98.1,397.6,91.7,389.8,86.3z M628,172c-5-1.3-2.9-9,2.1-7.7c9.1,2.3,17.8,5.5,26.3,9.6
			c4.6,2.3,0.6,9.2-4,6.9C644.6,176.9,636.5,174.2,628,172z M788.6,214.7c3.7-3.5-1.8-9-5.5-5.8l-0.1,0.1
			c-6.9,6.5-16.9,8.3-25.9,10.5c-5,1.2-2.9,9,2.1,7.7l4.1-1C772.4,224,781.6,221.3,788.6,214.7z M356.2,239.7
			c3.2-3.8,9.9,0.1,6.8,4.2c-4.4,5.8-9.5,11-15.2,15.5c-3.9,3.1-8.4,6.8-13.6,7.2c-5.1,0.4-5.1-7.6,0-8c3.3-0.3,7.7-4.6,10.1-6.7
			l0.8-0.6c4-3.5,7.8-7.3,11.1-11.4L356.2,239.7z M584.4,251.4l-0.8-0.8c-3.7-3.6-9.3,2-5.7,5.7c9.2,9,20.1,15.9,31.1,22.5l2,1.2
			c4.4,2.7,8.5-4.3,4-6.9l-2.9-1.8C602.3,265.3,592.7,259.2,584.4,251.4z M707.2,328.3l-1.1,0.6c-3.6,2-6.8,4.5-10.4,6.3
			c-4.6,2.4-8.6-4.6-4-6.9l1.1-0.6c3.6-2,6.8-4.5,10.4-6.3C707.7,319,711.7,325.9,707.2,328.3z M406,349.7l0.7-0.3
			c4.8-1.7,2.7-9.5-2.1-7.7c-7.3,2.6-13,7.6-19.4,11.9c-4.2,2.9-0.2,9.8,4,6.9C394.7,356.8,399.8,352.1,406,349.7z M850.3,363.4
			c-5.2,0-5.1-8,0-8c6.3,0,12.4,0.1,18.1,2.9c4.7,2.2,0.6,9.1-4,6.9l-0.5-0.2c-3.8-1.6-8-1.6-12.1-1.6c-0.2,0-0.4,0-0.6,0
			L850.3,363.4z M552.8,413.5c4.2-2.9,0.2-9.8-4-6.9c-5.8,4-11.1,8.6-16.9,12.7l-1.6,1.1c-4.2,2.9-0.2,9.8,4,6.9
			C540.7,423,546.4,417.8,552.8,413.5z M264.8,450.4c4.6-2.3,0.6-9.2-4-6.9l-27.6,13.8c-4.6,2.3-0.6,9.2,4,6.9L264.8,450.4z
			 M811.1,460.1c-5.1-0.1-5.1-8.1,0-8c6.3,0.2,12.5,2.4,18.1,5.2c4.6,2.3,0.6,9.1-4,6.9C820.9,462.1,816,460.3,811.1,460.1z
			 M730,477.4c-3.7-3.6,2-9.2,5.7-5.7c3.1,3,6.6,5.6,11,5.7l0.2,0c4.9,0.4,4.8,8.1-0.2,8C740,485.3,734.6,481.9,730,477.4z
			 M457.4,523.7c-5-1.3-7.1,6.4-2.1,7.7l2.5,0.6c8.4,2.1,16.3,3.6,25,1.7c5-1.1,3-8.6-1.9-7.8l-0.2,0c-7.6,1.7-14.6-0.1-21.9-2
			C458.2,523.9,457.8,523.8,457.4,523.7z M579.7,604.3c11.6-2.2,22.8-2.2,34.4,0c5.1,1,2.9,8.7-2.1,7.7c-10.1-1.9-20-1.9-30.1,0
			C576.7,613,574.6,605.3,579.7,604.3z M770.2,605.4c-3.6-3.6-9.3,2-5.7,5.7l1.9,1.9c3.2,3.2,6.4,6.5,8.6,10.5l0.3,0.6
			c2.4,4.6,9.3,0.5,6.9-4C779.4,614.4,774.6,609.8,770.2,605.4z"/>
	</g>
	<g transform="translate(225 0)">
		<g>
			<g>
				<path class="st0" d="M551,144.3C515.8,51.7,452.4-16.1,345.5,26.5c-3.1-2.1-7.1-2.6-10.9-0.2c-58.2,36.6-100.2,95.2-118.4,161.3
					c-11.1,2.1-21.8,5.8-31.4,11.8c-20.9,13.1-34.9,33.9-48.1,54.1c-4,6.1-0.3,16.2,7.1,17.6c3.2,0.6,6.4,1,9.6,1.1
					c-0.8,2.8-1.8,5.5-3.1,8c-4.7,9,4.2,18.6,12.5,16.1c0.9,0.5,1.9,0.9,2.9,1.2c0.1,5.1,2.7,12,7.9,13c8.4,1.8,19.6-4.6,17.6-14
					c2.5,0.4,5.1,0.5,7.5,0.2c0.3,4.9,0.2,10,0.9,14.5c2.2,21.3,23.5,35.6,43.8,29.1c1.2,6.6,2.7,16,9.2,19.6
					c7.6,21.4,20.8,45.9,42.4,55.6c-1.9,4.9-0.9,10.9,4.9,14.2c39.5,22.5,87,30.2,131.7,21.8c17.9-1.1,35.3-5.1,52-13.7
					c12.2-6.3,23.4-14.2,34.3-22.4c10.9-8.2,22.6-16.2,31.4-26.9c9.5-11.6,13.9-25.2,16.8-39.7c13.1-65.8,8.6-130.5-15.3-193.2
					C521.5,77.9,580.5,221.9,551,144.3z"/>
				<path class="st1" d="M434.4,15.7c-17.1-5.4-35.5-8.5-53.5-7.2c-16.4,1.2-32.1,5.8-47,12.7c-55.6,25.8-98.3,80.9-111.5,140.4
					c-1.3,6.1-2.2,11.8-2.4,17.9c-38.5,2.5-69.6,33.7-84.7,68.2c-3.5,8.1-6.2,20,3.1,25.4c3.1,1.8,6.1,2,9.1,1.3
					c-1.6,6.1-2.2,12.4-1.1,18.3c0.9,5.1,4.7,8.8,10,8.4c1.6-0.1,3.2-0.7,4.6-1.4c0.9,4.9,3.8,9.6,8.3,12.1
					c11.4,6.4,26.5-4.2,25.6-16.8c-0.4-5.8-8.2-5.6-8.9,0l0,0.2c-0.8,5.2-7.2,11.5-12.5,7.7c-3.7-2.7-3.9-8.6-0.5-11.5l0.2-0.1
					c3.8-3.5-0.6-8.9-5-8.1c-3.3,0.6-5.8,2.5-8.1,4.8c-0.1,0.1-0.4,0.4-0.8,0.8c-1.1,1.2-2.8,3.1-3.1,3c-0.4-0.1-0.3-2.5-0.2-4.2
					l0.1-2.3c0.5-8.3,3-16.3,7.1-23.6l0.1-0.2c2.8-5.4-5-9.8-8.4-4.7c-2,3-4.6,6.4-8,7.9c-4.2,1.8-5.5-1.6-5.1-5.2
					c0.7-6.3,4.2-12.7,7.6-18.5l2.5-4.3c8.7-14.7,20.5-27.9,35.3-36.6c28.2-16.6,68.3-15.4,87.7,14.1c11,16.7,8.1,37.3,13.5,55.7
					c-12.5,6.5-25.2-4-25.8-17.8c0-1.1-1.6-1.3-1.9-0.3c-2.8,8.1,0.4,17.3,7.2,22.4c7.8,5.9,18.7,5.7,26.7,0.5
					c1.4-0.9,2.1-2.5,1.7-4.2c-5.3-21.4-1.6-44.5-15.3-63.3c-11.2-15.4-28.7-25.2-47.6-27.3c-3.7-0.4-7.3-0.5-10.9-0.4
					c4.3-12.5,8-25.2,13.4-37.3c5.7-12.9,12.3-25.4,20.1-37.1c16-24.2,36.9-45.5,61.1-61.5c27.4-18,58.8-27.7,91.6-22.3
					c27.9,4.5,54.5,16.6,76.7,34c21.3,16.6,38.9,38,51,62.1c14.4,28.6,18.5,61.1,21.4,92.6l0.5,5.6c1.4,15.5,2.5,31,4.5,46.4
					c2.2,17.4,6.2,34.6,7.2,52.2c1.6,29.5-9.7,55.4-30.1,76.4c-19.4,20-44.7,35-71.1,43.8c-26.7,9-56.5,12.4-83.5,2.8
					c-6.5-2.3-12.5-5.7-18.2-9.5c-8.1-5.4-16,7.9-7.7,13.1c53.6,33.7,125.4,11.4,171.4-25.2c22.4-17.8,41.3-42,47.6-70.4
					c3.8-17.1,2.2-34.4-0.5-51.6l-0.4-2.8c-2.8-17.6-5.5-35.1-7.2-52.8c-3.2-35.1-5-71.1-16.5-104.7c-9.6-27.9-25.3-53.2-46.6-73.7
					C486.9,39.6,461.8,24.3,434.4,15.7z M235.1,246.3l0.5-0.1c6-1.3,21.8-2.8,19.9,7.3c-0.1,0.5-0.8,0.4-0.9,0
					c-1.9-6.4-14.5-1.3-18.2,0.3c-5.1,2.1-10.1,5.2-14.3,8.8c-9.1,7.9-15.2,19.1-16.2,31.2c-0.9,12,2.6,25,11.2,33.7
					c4.2,4.3,9.7,7.2,15.8,7.4c2.2,0.1,4.5-0.6,6.7-1.2c3.4-1,6.8-1.9,9.9-0.4c1,0.5,1.8,1.8,1.7,3c-0.2,2.1-1.1,3.7-2.5,5
					c8.5,15.4,15.4,31.7,26.2,45.7c5.4,7,11.5,13.5,18.5,19.1c3.3,2.6,6.9,4.9,10.6,7c4.3,2.4,8.1,3.9,11.2,7.9
					c2.6,3.4,0,10.1-4.4,10.7c-10.2,1.4-20.1-6.8-27.6-13l-0.2-0.1c-7.5-6.2-14-13.9-19.4-22c-10.3-15.6-17.4-34-20.2-52.6
					c-3.3,1-7,1.4-9.7,1.4c-7.4,0-14.4-2.6-20.2-7.1c-21.2-16.4-23.6-50.1-8.6-71.4C212.1,256.7,223,249.2,235.1,246.3z
					 M249.7,287.4c-4.6-1.7-9.5-2.5-14.5-2c-7.6,0.7-14.3,3.7-18.5,10.1c-0.5,0.7,0.5,1.7,1.2,1.2c5.6-3.8,12.6-4.1,18.9-1.9
					c7,2.5,12.7,8.4,19.7,10.3c6.3,1.8,10.8-6.2,6.3-10.8c-2.9-3-7.2-4.8-11.2-6.2L249.7,287.4z"/>
			</g>
		</g>
		<g transform="translate(159 186)">
			<g>
				<path class="st1" d="M353.7,32c4.4-0.1,8.6,0.2,12.9,1.2c8.5,1.8,18.7,5.1,25.4,10.7c-1.4-4.6-2.8-9.2-5.7-13.2
					c-3.5-4.7-7.9-8.5-13-11.4c-5.2-2.9-11-4.7-16.9-5.5c-5.9-0.8-14.6-1.7-19.6,2.1c-1.7,1.3-3,2.7-3.9,4.4c-0.7,1.4-1,3.1-0.7,4.9
					c0.3,1.8,1.1,3.7,2.4,5.2c1.1,1.3,2.5,2.2,4.2,2.6c3.1,0.6,6.1,0.1,9-0.4l0.1,0C349.8,32.4,351.8,32,353.7,32z M270.7,31.9
					c-1.2,0.1-2.4,0.3-3.6,0.5c-3.5,0.6-7,1.2-10.5,2c-6.6,1.5-13.2,3.4-19.6,5.5c-6,2-12,4.3-17.9,6.5c-0.3,0.1-0.6,0.2-1,0.4
					c-2.1,0.8-4.2,1.7-6.3,2.6c-3.2,1.4-6.4,2.7-9.7,3.8c8.6-11.9,21.9-20.7,34.6-27c7.3-3.6,15-6.5,22.8-8.9l4.3-1.3
					c6.4-1.9,13.3-3.6,19.3,0.1c2.4,1.5,3.9,3.8,4.4,6.3c0.5,2.4-0.1,5.1-1.8,7.3c-1.5,1.9-3.3,3-5.3,3.4c-2.2,0.4-4.4,0-6.5-1.1
					c-1.7-0.1-2.2-0.1-2.6,0L270.7,31.9z M374.9,72.9l0,0.2c-0.1,6.5-4.5,19.6-12.9,19.6c-8.6,0-10.2-14.5-9.8-20.6l0-0.8
					c0.7-9.9,4.2-19.4,9.8-19.4C371.2,51.9,374.9,66.5,374.9,72.9z M239.8,75.1l0-0.2c0-6.4,3.7-20.9,12.9-20.9
					c5.7,0,9.2,9.9,9.8,20.1l0,0.4c0.3,6.4-1.5,20.2-9.8,20.2C244.2,94.7,239.9,81.6,239.8,75.1z M349.3,144.7
					c6.3,0.3,11-2.4,13.8-6.6c3.3-4.9,4-11.7,2.3-18c-3-11-9.9-21.7-17.7-30.1c-4-4.3-8.4-8.3-13.1-11.7c-3.4-2.5-7.4-5.4-12-5.7
					c0.3,5.5,4.2,11,7.7,16.1c0.7,1.1,1.4,2.1,2.1,3.1l0.5,0.8c4.5,6.8,9.2,14,12.1,21.7c0.8,2,1.4,4.1,2,6.2
					c0.1,0.5,0.3,1.1,0.4,1.6c0.1,0.5,0.3,1,0.4,1.5c0.1,0.5,0.2,1,0.3,1.5c-0.5-0.1-1-0.2-1.5-0.3c-0.5-0.1-1-0.2-1.6-0.3
					c-7.2-1.5-13.8-4.3-20.4-7.2l-3.6-1.6c-3.6-1.6-7.7-1.7-10.7,0.4l-1.9,1.3l-1.3-2.1c-11.4,1.7-21.3,13.9-27.4,23.1l-0.7,1.1
					c-6.5,10.2-14.6,24.9-8.6,37.1c0.5,0.9,1.4,1.4,2.3,1.5c1.1,0.1,2.2-0.1,3-0.9c5-5.1,7.3-12.3,9.6-19.7
					c1.4-4.3,2.8-8.6,4.7-12.5c2.7-5.4,5.6-10.6,8.9-15.7c0.8-1.3,1.7-2.6,2.6-3.9c0.3-0.5,0.6-0.9,1-1.4l3.1-4.5l0.6,5.5
					c0.3,3.1,2.1,5.9,4.9,7.7C321.6,139.3,336.7,144.1,349.3,144.7z M328.2,191.8c-6.4,0.1-13.6-2.3-18.4-4.2l-1.3-0.5
					c-4.2-1.7-8.4-3.6-11.6-6.8c-1-1-2.1-2.2-2.7-3.5c-0.3-0.7-0.5-1.5-0.1-2.2c1.2-0.1,2.2-0.3,3.3-0.4c0.5-0.1,1-0.2,1.3-0.2
					c1.3,0,2.6,0.2,3.9,0.3l0.1,0c0.2,0,0.4,0,0.6,0.1c1,0.1,2,0.3,3.1,0.4c3,0.4,5.9,0.8,8.9,0.9c2.2,0.1,4.4,0,6.7-0.1
					c0.1,0,0.3,0,0.4,0c5.8-0.3,11.8-0.6,16.3,3.4c1.2,1.1,1.7,2.5,1.7,3.9c0,1.7-0.7,3.4-1.8,4.8
					C336.1,190.7,332.3,191.8,328.2,191.8z"/>
			</g>
		</g>
		<g transform="translate(123 338)">
		</g>
		<g transform="translate(47 241)">
			<g>
				<path class="st1" d="M550.4-15.4c6.3-3,13.6-2.8,20.4-1.9c13.7,6.4-15.7,13.8-19.3,7c3.5,25.4-6.4,67.4-34.6,80.6
					c-32.6,15.9-68-8.3-66.7-47.2c-7-1.7-2.1-21.3,0.7-29.2c-12.3-1.9-24-3-35.8,0.7c6.5,18.4-16.7,73.8-39,84.8
					c-17.3,12-56.4,6.6-71.9-12c-11.1-14.2-16.6-47.1-10.5-70c-0.1,0-0.1,0-0.2-0.1c-0.4,3.6-25.2,3.2-24-3
					c-35.7,0.6-70.3,6.1-105.6,10c-4.3,0.4-4.5,3.4-4.7,6.4c-0.2,2.5-0.3,5-3.1,5.8c-10.5,0.2-5.7-18,3.5-19.7
					c8.8-0.9,17.7-2.1,26.6-3.3c28.1-3.8,56.5-7.6,84.2-2.9c3.9-4.9,10.9-3.2,16.6-1.7c1.6,0.4,3.1,0.8,4.4,1
					c4.7-27.8,80.4-26.1,105.5-14.8c26.8-3.1,54.6-4.8,81.2-7.1c16.8-5.4,36.4-8.2,53.9-2.9c2.4-0.1,2.7,0.3,3.2,1
					c0.1,0.1,0.2,0.3,0.3,0.4C542.4-30.5,548.5-23.6,550.4-15.4z M541.3,15.5c-9.5,64.5-76.1,71.6-87.9,7.6c1.9-0.8,3.3-2.5,3-5.6
					c-0.1-14,4.3-28.7,16.9-36.5c13-8,28.2-8.8,43.3-8.6C545.2-28.3,544.6-4.3,541.3,15.5z M414.4-7.2c8.1-5.5,19.5-5.8,28.5-5.4
					c3.1,0.2,7.3,0,10.2,1.6c3.2-6.2,8-11.5,13.2-15.1c-3,0.2-6.1,0.5-9.1,0.7c-18.9,1.5-38,3-56.6,2.4
					C406.5-19.5,412.2-13.1,414.4-7.2z M403.2,22.3c-25,86-87.4,48.5-94.2,37.5c-12.3-18.2-14.6-62.6-3.9-74.5
					c12.5-8.8,29.3-8.5,44.9-8.3c3.5,0.1,6.9,0.1,10.1,0.1C393.4-22.4,416.9-12.5,403.2,22.3z"/>
			</g>
		</g>
	</g>
</g>
</svg>
