<?xml version="1.0" encoding="utf-8"?>
<!-- Generator: Adobe Illustrator 25.2.2, SVG Export Plug-In . SVG Version: 6.00 Build 0)  -->
<svg version="1.1" id="Layer_1" xmlns="http://www.w3.org/2000/svg" xmlns:xlink="http://www.w3.org/1999/xlink" x="0px" y="0px"
	 viewBox="0 0 1152.8 1152.8" style="enable-background:new 0 0 1152.8 1152.8;" xml:space="preserve">
<style type="text/css">
	.st0{fill:#FFFFFF;}
	.st1{fill-rule:evenodd;clip-rule:evenodd;}
</style>
<g transform="rotate(0 408.51788902282715 625.3099403381348)">
	<g transform="translate(0 459)">
		<path class="st0" d="M348.8,670.3c198.7,5.1,399.4,36.6,597,3.8c7.1,0,17.7-13.8,11-15.5c-3.7-0.6-7-67.5-13.7-94.4
			c-6.2-20.5-11.9-40.9-15.6-62.1c-10.5-61-9.1-123.5-21.7-184.2c-19.4-81.7-61.4-135.9-109.4-202.7c2-1.9,48-63.8-28.9-110
			c-37.7-19.4-55.8,0.3-50-17.9c3.6-15-7.6-26.8-20-33.1c-17.8-10.6-106.8-7-116.8-8.4c-17.9-3.8-36-23.6-54.7-24.5
			c-45.2-4.9-80.4,19.5-109.7,54.1c-42.9,0-76.9,33.6-85.1,69.7C266.1,74.6,208.9,257.8,201,347.8c-4.1,44.3-8.9,88.6-12.6,132.9
			c-6,47.5-2.4,97-17.7,142.3c-1.4,12.4-9.2,46.2,10.2,47.2C236.8,667.9,292.9,668.3,348.8,670.3z"/>
		<path class="st1" d="M580.7-54.7c-0.2,0.1-0.1,0.4,0.1,0.4l7.9-0.3c25.1-1,50.2-1.6,74.9,4.3l2.5,0.6c8.9,2.2,18.2,4.8,25.3,10.7
			c6.8,5.6,10.2,14.3,13.5,22.3l0.4,1.1c3.3,7.9,7.5,15.4,14.8,20.3c9.4,6.4,20.8,5.6,31.6,6.5c19,1.5,34.6,15.3,42.3,32.2
			c4.7,10.2,6.7,21.7,7.1,32.8c0.2,5.7,0.2,11.6-0.5,17.3c-0.2,1.8-2.5,8.4-3.6,8.2c-2.5-0.4-4.8,1-5.6,3
			c-6.3-6-12.7-11.9-19.3-17.6c-16.5-14.1-34.4-26.9-53.1-37.8c-14.3-8.4-29.4-16.7-45.1-23c1.2,0,2.5,0.2,3.6,0.8
			c0.5,0.3,1-0.4,0.6-0.8c-4.9-5.2-10.8-5.9-16.8-4.5c-1.3-0.4-2.5-0.8-3.8-1.2c-0.6-0.2-1,0.7-0.4,1l1.5,0.9
			c-6.5,2.2-12.9,6.4-17.9,9.8c-14.5,9.7-27.3,21.5-40.2,33.2l-2.4,2.1c-11.4,10.2-23.1,20-36,28.2c-6.8,4.3-13.9,8.2-21.3,11.2
			c-6.4,2.5-16.8,4.1-19.8,10.9c-2.7,3.2-1.6,7.4,1.6,9.5c5.3,5.8,15.8,2.1,22.1-0.4c7.6-2.9,14.9-6.4,21.9-10.5
			c13.6-8,26.1-17.9,37.7-28.4c12.2-11,23.6-22.7,35.5-34c5.1-4.9,10.1-9.9,15.3-14.9l2.6-2.4c2.6-2.5,6.4-6.3,10.3-8.6
			c7.5,4.5,15.2,8.8,22.6,13.4c10.4,6.4,20.5,13.3,30.4,20.4c19.1,13.7,37.3,29,54.1,45.5c30.9,30.1,57.2,64.6,80.2,101l1.7,2.8
			c13.1,20.9,25.4,42.4,34.2,65.4c9.6,25.4,14.3,52,16.9,79c2.5,26.7,3.4,53.6,6.2,80.3c2.9,27.4,8.6,54.2,15.1,80.9l1.5,6.3
			c5.9,23.9,11.9,47.9,14.9,72.4c1.6,13.1,2.6,26.4,2.4,39.6c-0.2,13.3-2.3,26.3-4,39.4c-0.6,5,4.3,9.2,8.7,9.9
			c5.1,0.8,9.5-2.5,11.1-7.2c4.9-14.8,5.8-31.1,5.7-46.6c-0.2-15.7-2.2-31.3-5-46.8c-5.6-30.4-14.1-60.2-21.3-90.2
			c-6.3-26.5-10.6-53-12.8-80.1c-2.4-28.1-3.8-56.4-8.1-84.3c-4.3-27.6-12.3-53.9-24.4-79.1c-11-22.9-24.8-44.4-39.2-65.3
			c-17.5-25.4-36.8-49.5-58.3-71.5c1.9-0.1,3.9-0.7,5.7-1.8c5.6-3.5,8.2-10.3,9-16.5c1.9-14.5,1.4-29.7-2.3-43.9
			c-6-22.9-21.7-43.3-44.3-51.5c-5.8-2.1-12-2.9-18.2-3.1c-1.5,0-3,0-4.6,0c-4.5,0.1-9.1,0.1-13.3-1.2c-9-3-12.9-13.6-16.3-21.6
			l-0.2-0.4c-4.3-10.3-9.5-19-18.9-25.4c-10-6.8-22.6-9.9-34.4-11.9l-0.8-0.1C634.7-68.5,605.4-67.7,580.7-54.7z M561.7-28.5
			c2.4,6.4,6.6,11.8,10.1,17.6c3.3,5.4,8,9.6,11.4,14.8l-3.7,4c-1.8,2-3.7,3.9-5.5,5.9l-6.4,6.6c-5,5.1-10,10.3-15.1,15.2
			c-15.2,14.6-30.5,28.7-47.5,41.3c-3.9,2.8-7.8,5.7-11.8,8.3l-1.5,1c-2.7,1.8-5.8,3.6-9.1,3.3c-8.1-0.7-15.3-9.3-20.9-14.6
			l-0.3-0.3c-13.7-13.1-26.4-27.3-37.5-42.7c-2.5-3.4-4.9-6.9-7.2-10.4C421,16.4,421,7.4,421,0.2c0-1.7,0-3.4,0.1-4.8
			c0.2-5.4,0.2-10.7,0.3-16.1l0-1.1c0-0.1,0-0.3,0-0.4c0.1-3.3,0.1-6.5-2-9.3c-0.1-0.2-0.4-0.2-0.6-0.1c-3.1,1.6-4,4.3-5.3,7.3
			l-0.1,0.3c-1.6,3.6-3.1,7.3-4.7,11C407-9,405.5-5.2,404-1.3c-0.7,1.8-1.4,3.6-2,5.4c-0.4,1.2-0.8,2.3-1.2,3.5l-0.1,0.1
			c-0.6,0.5-1,1-1.4,1.5c-1.7,0.9-3.1,2.4-3.7,4.7c-1.3,4.8,1.2,8.7,3.7,12.5c0.1,0.2,0.2,0.4,0.4,0.6
			c10.5,16.2,22.4,31.6,35.6,45.5c6.6,6.9,13.5,13.6,20.7,19.9l1.3,1.1c6.5,5.6,13.5,10.8,22.2,12.1c10.1,1.5,18.4-3.5,26.1-9.3
			l0.8-0.6c7.3-5.6,14.5-11.3,21.5-17.3c14.2-12.3,27.7-25.5,39.8-39.9c11.7-14.1,23.2-29.8,30.4-46.7c0.4-1-0.7-2.1-1.6-1.2
			C592.7-6.1,589.3-2.6,586,1c0-2.2,0.1-4.3,0.2-6.5c0.2-3.1,0.4-6.2,0.1-9.3c-0.7-6.4-0.5-13.5-2.3-19.7c-1.8-6-8.1-9.8-14.2-8.1
			C564.2-41.2,559.5-34.3,561.7-28.5z M406-22.8c-7.5,3.1-15.3,4.4-22.5,8.7c-7.1,4.2-13.4,9.4-19,15.5c-5.1,5.7-9.5,12.5-12.5,19.5
			c-1.5,3.5-2.6,7.3-3.5,11c-0.9,4.1-0.5,8.6-1.9,12.4c-2,5.6-9.7,7.6-13.6,3.7c-12.1,9.8-22.8,21-33.1,32.7
			c-12,13.6-22.2,28.7-31.2,44.5c-18.1,31.8-30.8,66.4-39,102c-20.9,90.8-13.5,185.4-28.2,277.1c-8.4,52.1-20.7,103.3-23,156.3
			c-0.6,14.1-21.5,14.2-21.9,0c-1-37.4,6.8-74.2,14.5-110.8c2-9.7,4.1-19.4,6-29l0.6-3.2c8.4-44,11.6-88.6,14.3-133.2l1.3-20.7
			c5.1-81.5,12.6-167.4,55.5-238.9c10.8-18,23.6-34.7,38.6-49.3C300.3,63,315.2,53,331.3,45.1c-0.1-0.2-0.1-0.5-0.2-0.7
			c-2-8.9,2.5-20,6.4-28.1l0.4-0.8c4.3-8.7,10.4-16.5,17.8-22.8c7-6,15.2-11,24-13.8c7.9-2.5,18.1-5,26.2-2.2
			C406.2-23.2,406.2-22.9,406-22.8z M477.5,134.6c-1.7,16.4-3.3,32.9-4.5,49.4c-1.5,20.6-2.5,41.2-2.9,61.9
			c-1.7,71.9-2,143.9-2.1,215.9c-9.7-0.7-19.5-1.3-29.2-2c-6.6-0.4-13.2-0.8-19.8-1.2l-16.8-1l-6.9-0.4c-0.7,0-1.3-0.1-2-0.2
			c-4.1-0.4-8.5-0.7-11.3,2.8c-1.3,1.7-2,3.8-0.7,5.8c2.8,4.6,7.2,4.4,12.1,4.6c4.6,0.2,9.2,0.4,13.9,0.5c9.9,0.4,19.8,0.7,29.7,1
			c10.4,0.3,20.8,0.5,31.2,0.7c0.1,30.4,1.4,60.7,2.7,91.1l0.6,13.7c1.7,36.9,3.5,73.9,6,110.8c0.2,3,4.5,3,4.7,0
			c2.9-41.5,4.8-83.1,6.6-124.7c1.4-30.2,2.1-60.3,2.5-90.5c1.4,0,2.7,0,4.1,0c39,0.2,78,0.3,117.1,0c-0.1,0.1-0.1,0.2-0.2,0.3
			c-2.8,6.7-3.1,15.2-3,22.3c0.1,8.2,1.2,16.3,3.1,24.3c6.8,28.6,24.2,54.2,44.1,75.4l0.7,0.7c4.7,5,10.1,9.9,13,16.3
			c2.9,6.4,4,14,5.4,20.9l0.2,0.8l5.7,26.2c1.8,8.3,2.3,20.5,8.9,26.5c6.2,5.6,14.3,2.7,17.2-4.5c1.9-4.8,0.6-10-0.7-14.9
			c-0.2-0.9-0.4-1.7-0.6-2.6l-10.5-44.1c-1.7-7.2-3.6-14.4-7.3-20.9c-3.8-6.6-9.4-11.4-15.1-16.3c-10.8-9.3-20.7-19.9-29.1-31.5
			c-8.4-11.5-15.5-24.2-20.6-37.6c-2.5-6.7-4.6-13.6-6-20.6c-1.4-6.6-1.3-13.5-2.8-20.1c-0.1-0.5-0.5-0.8-0.9-0.9
			c0.1-0.3-0.1-0.7-0.5-0.7l-31.9-2.1c-28.4-1.8-56.7-3.7-85.1-5.9l-5-0.4c0.4-40.2,0.1-80.5-0.7-120.8
			c-0.7-36.9-0.7-73.8-1.8-110.8c-0.5-18.3-1.7-36.6-3-54.9c-1.3-18.7-3.5-37.2-5.4-55.9c-0.1-0.9-1.3-0.9-1.4,0L477.5,134.6z
			 M276.3,271.8c0.6,10.5,1.3,21,2,31.5c1.6,22.3,3.1,44.6,3,67c-0.2,32.6-4.4,64.8-10.2,96.8c-5.7,31.2-13.5,62.1-18.9,93.4
			c-2.6,15-5,30.1-6.9,45.2c-1,7.8-1.8,15.5-2.6,23.3c-0.2,2-0.3,4.2-0.4,6.6c-0.2,6.6-0.5,14.1-3.8,18.8
			c-4.8,6.8-13.2,6.7-17.7-0.5c-3.3-5.3-2.5-13.5-1.9-20.4c0.2-1.6,0.3-3.1,0.4-4.5l0.1-2c1-15.3,3.4-30.6,6-45.8
			c2.6-15.4,6.2-30.8,9.5-46c3.4-15.7,7-31.3,10.4-47c6.7-30.6,12.5-61.4,15.6-92.6c6.7-66.2,5.8-132.7,7.2-199.1
			c0.2-8.2,0.3-16.5,0.5-24.7c0-1,1.4-1,1.5,0C272.5,205.2,274.5,238.5,276.3,271.8z M774.8,399.9c-0.6,21.6,0.3,43.3,1.5,64.9
			c2.6,46.4,6.2,92.7,9.2,139l3.9,59.6c0.1,0.9,0.1,1.8,0.2,2.7c0.2,2.6,0.5,5.3,0.1,7.8c-0.3,2.2-1.1,4-2.3,5.8l-1.7,2.2
			c-2,1.5-2.7,2-2.1,1.6l0.7-0.5c-1.7,3.1-5.8,3.9-8.8,2.3c-0.9-0.5-1.6-1-2.3-1.6c-5.6-3-7.1-8.9-7.5-15.4l-5.9-90.9l-2.3-36.3
			c-1.5-23.6-3-47.3-4.3-71c-1.2-22.2-1.9-44.6,0.5-66.8c2.8-25.1,9.3-48.3,22.9-69.8c1.2-1.9,3.8-0.6,3.4,1.4
			C776.5,356.4,775.4,378.3,774.8,399.9z M367.1,476.2c-2.4,3.7-4.9,7.3-7.6,10.9c-5.3,7.1-11.3,13.8-17.2,20.3
			c-5.6,6.1-11.5,11.9-17.6,17.4c-6.7,6-14.1,11.3-20.2,17.9c-12.6,13.8-14.7,32.7-17.3,50.4l-0.3,1.9c-1.6,10.5-3.1,21.1-4.4,31.7
			c-0.6,5.1-1.3,10.3-1.8,15.5l-0.2,1.6c-0.5,5-0.6,10.2,2.3,14.6c3.1,4.7,10.2,6.4,14.4,1.8c5.6-6.1,6-15.9,6.4-24.6
			c0.1-2.4,0.2-4.8,0.4-7c0.8-8.3,1.7-16.5,2.6-24.8l0.5-4.1c1.2-9.4,2.1-19,4.2-28.2c1.9-8.1,5.5-14.3,11.4-20.1
			c6-5.9,12.2-11.5,17.7-17.8c5.8-6.8,11.1-14,15.8-21.6c4.1-6.5,7.3-13.5,10.3-20.6l0.5-1.2c0.5-1.2,1.1-2.5,1.7-3.9
			c2.7-6.2,5.9-13.3,5.7-19.5c0-0.4-0.5-0.5-0.7-0.3C370.9,469.3,369.2,473,367.1,476.2z"/>
	</g>
	<g transform="translate(225 0)">
		<g>
			<g>
				<path class="st0" d="M464.1,64.5c43.9,21.1,55.5,69.5,61.4,98.8l1.6,8.1c5.5,27.5,0,27,0,34.8c0,7.8-27.5,32.4-27.5,37.7l0,0.2
					c-0.4,6.4-21.4,66.8-21.4,75.1c0,8.4-14.1,46.5-26.9,53.7c-6.6,3.7-17.4,6.7-32.5,8.9l-1.6,0.2c-0.4,0.6-0.9,1.1-1.3,1.7
					c-10.9-0.4-20.8,4.2-29.6,13.8c-13.2,14.4-98.6,60.6-175.4,60.6c-76.8,0-93.3-51.8-102.2-104.7c-8.9-52.9-2.1-204.6,35.7-243.2
					c4.6-4.7,10.5-10.7,17.4-17.3l1.4-1.4l-17.7-34.6c16.4-14.3,25.8-21.5,28.2-21.5l0.1,0c4.6-0.4,58.3-22.1,103.1-22.1
					C322,13.2,415.8,41.3,464.1,64.5z"/>
				<path class="st1" d="M239.5,6.9c-5.5,0.7-11,1.8-16.3,3.2c-17.4,4.1-35.3,10.2-49.6,20.4c-2.4,1.7-5.9,3.6-9.8,5.8
					c-15.4,8.5-37.7,20.8-28.8,38.3c-4.1,7.8-5.7,17.5-2.9,25.2c0.4,2.7,1.2,5.1,2.2,7.6c-8.8,13-15.8,27.7-21.4,41.7
					C103,184.4,96.9,221,96,257c-3,68.3,4.5,149.8,64,194c35.9,28,92.2,28.9,132.6-5.8c0.7-0.8,2.1-2,3.7-3.3c3.7-3.2,8.3-7.1,5.8-8
					c-1.1,1.1-2.2,2.2-3.3,3.3c0.1-0.1,0.1-0.2,0-0.4l1.1-1c2-1.8,4.6-4.5,1.6-4c-0.1,0.1-0.3,0.3-0.4,0.4c-0.6,0.4-1.1,0.7-1.5,1
					l-0.2,0.1l0.1-0.1c1.7-1.8,2.7-3.6,0.2-2.5l-0.3,0.2c-1.1,1.2-2.3,2.3-3.4,3.4c0-0.1,0-0.3-0.1-0.4l1.1-1c1-0.9,0.9-1,0.5-1.7
					c0-0.1-0.1-0.1-0.1-0.2c2.2-3.1-1.9-1.3-2.2,0c-1.6-0.4-3.1,1.4-4.4,2.9c-0.8,0.9-1.5,1.8-2.2,2c-74,56.9-181.4,6.4-179.6-152.1
					l0-3.1c0.5-50.7,4.8-102.8,25.7-148.7c2-4.4,4.3-8.7,6.8-12.9c1.7-3.1,3.6-6.2,5.6-9.1c5.6-0.4,11.1-1.5,16.5-3.1
					c1.9-0.5,3.7-1,5.5-1.6c26.9,1.5,53.2,3.1,80.1,4.6l8.4,0.5c22.8,1.5,46.4,3.8,64.9,17.9c18.1,12.9,18.2,38.2,33.6,52.3
					c22.1,15,22.2,28.5,26.5,50.6c-0.1,4.2-0.9,8.8-1.7,13.5c-2.4,14.1-4.9,29,11,34.3c-3.6,5.1,1.4,2.6,1.8,0.9c0,0,0.1,0,0.1,0
					c-3.2,5.9,1.5,2.2,1.9,0.3c0.2-0.1,0.5-0.2,0.8-0.5c-3.2,5.2,2,1.6,1.7,0.6c6.2-9.5,19-11,27.9-8.5c0.1,0.3,0.5,0.4,0.8,0.2
					c38.2,8.3,28.4,87.4-10.8,79.8c-1.2-0.2-1.5,0.1-1.7,0.4c-0.1,0.1-0.1,0.2-0.2,0.2c0.9-2.4-1.6-1.4-1.6-0.9l-0.2,0
					c0,0-0.1,0-0.1,0c0,0,0,0,0,0c0,0,0,0-0.1,0c0.9-4.9-4,2.2-3.7,2.5c-0.2-0.1-0.3-0.1-0.5-0.2l0.2-0.5c0.5-1.3,0.7-1.5,0.7-1.7
					c0-0.1,0-0.2,0-0.5c0-0.1,0-0.2,0-0.3c0.4-0.9,0.5-1,0.6-1.2c0-0.1,0-0.2,0-0.5c0,0,0-0.1,0-0.2c-1.5-1.1-2.2,0.9-2.8,2.4
					c-0.3,0.7-0.5,1.3-0.7,1.4c1.2-1.7,0.3-3.1-0.9-2.2c-8.8,18.6-20.2,36-34.9,49.7c-1.6,1.3-3.2,2.5-4.9,3.7
					c-6.3,5.5-15.9,9-21.7,13.8c0,0.1,0,0.2,0.1,0.3l-0.1,0.1l-0.1,0.1l-2,1c-0.6,0.5-1.1,1.1-1.6,1.7c-0.5,0.6-1,1.2-1.3,1.9
					c-0.2,0.8,0.2,1.2,1,0.8c0.4-0.1,0.7-0.3,1-0.4c0,0,0,0,0,0.1c-0.1,0.2-0.9,2,0,1.7l0.1,0c0.5-0.2,1-0.4,1.5-0.6
					c-0.6,0.7-1.1,1.5-1.5,2.1c-0.5,0.5-0.8,1.1-0.9,1.8c0,0.4,0.2,0.5,0.6,0.5c0.6-0.2,1.1-0.4,1.7-0.6l-0.2,0.3
					c-0.4,0.8-1,2.1,0,1.7c0.9-0.3,1.7-0.6,2.5-0.9c0.1,0.1,0.2,0.2,0.5,0.1c2.7-1,5.2-2.1,7.7-3.5c2.2-1.6,4.4-3.1,6.5-4.7
					c2.1-1.2,4-2.6,5.9-4.1c12.6-8.2,23.7-18.5,32.5-30.1c14.7,12.7,44.1,0.6,62.2-9.4c16.1-8.9,22.4-25.4,24-43.1
					c1.2-8.5,4.5-15.1,8.1-22.4c6.5-13,14.3-28.5,13.4-62.1c0,0,0.1,0,0.1,0c0.7-0.2,1.4-0.5,2-0.9c0.7-0.3,1.3-0.7,1.9-1.2l0.7-1
					c0.4-0.2,0.7-0.4,1-0.6l0.1,0.2c0.3,0.4,0.2,0,0.2-0.3c0-0.1,0-0.1,0-0.2l1.3-1.7c3-4.1,6.3-8.7,9-12.4l0.1,0.1
					c0.1,0.1,0.1,0.2,0.1,0.2c6.4-9.2,12.4-20.3,14.1-31c2-8.3,1.2-16.8-0.5-24.5c-7.4-26.8-31.6-87.6-63.3-113.6
					c-24.1-25.6-160.8-65.1-230-56.7L239.5,6.9z M382.8,39.9c25.5,7.3,52.4,13.8,73.9,29.3c30.1,23,45.6,59.6,59.1,93.4
					c11.8,25.1,5.8,53.4-12,71c-1.9-17.4-5-34.3-10-51.1c-1-2.6-0.3-3.5-2.5-3.8c-1,13.1-0.3,25.2,0.4,37.1
					c1.7,29.2,3.3,57.1-19.9,95.1c-4.8,8.6-6.1,16.4-7.3,23.5c-2.3,13.8-4.1,24.8-30.6,33.6l-1.1,0.4c-8.4,3.2-17.5,5.6-25.6,3.9
					l0.7-1.2c0.7-1.2,1-1.8-0.1-2.3c0-0.1,0.1-0.1,0.1-0.2c0.9-1.7,1.7-3.3,2.5-5c0.3,0.1,0.7,0.2,1,0.3c-0.2,0.4-0.2,0.8,0.4,1
					c2.2,0.8,4.5,1.1,6.8,0.9l0.5,0c2.6-0.2,4.3-0.6,5.7-1.1c0.5-0.1,1-0.2,1.5-0.3c4.7-1.1,9.8-3.7,13-6.4
					c37.1-21,33.2-92.7-12.5-99.5c-0.9-45.1-22.4-121.2-58-164.2c-32.2-39.5-120.1-56.7-181.2-50.6c-0.9,0.3-1.8,0.6-2.7,0.9
					c-9.4,0.8-18.4,5-27.9,7c6.8-5.1,14.5-8.5,22.4-11.3c15.8-9.7,33.9-14.9,51.3-18.6c3.6-0.9,7.3-1.4,11-1.5
					c46.9-4,93,6.3,137.8,18.8L382.8,39.9z M325.6,42.1c15.8-11.4-5-6-12.2-1.5C308.5,45,313.5,52.3,325.6,42.1z M365.6,57.7
					c-4.6,3.4-9.3,6.9-15,6.8c-2.8-1.3-3.4-5.8-0.4-7.9l0.1-0.1c4-2.9,30.6-13.3,20.6-2.4C369.1,55.1,367.3,56.4,365.6,57.7z
					 M394.4,81.7l-0.8,0.3c-5,1.9-10.7,3.6-13.7,7.9c-3.5,6,3.6,7.2,8,4.5c9-5.9,18.9-10.3,27.9-15.3c1.3-4.9-13.4,0-19.8,2.1
					C395.3,81.4,394.8,81.6,394.4,81.7z M404.8,126.2c2.8-4.8,9.5-6.1,14.5-8.3c44.3-18.1,19.3-0.6,1.7,11l-3.3,2.1
					C411.9,135.7,400.5,135.1,404.8,126.2z M442.4,170.7l3.6-2.4c6.3-4.2,11.9-7.9,18.7-11.6c3.7-1.8,5.2-5.7,1.4-7.4
					c-8.5-3.1-33.5,6.2-31.5,18.5C435.7,170.7,439.6,172.3,442.4,170.7z M429.4,294.7c0.4-0.3,1-0.7,2.2,1.1c0.1,0.1,0.5,0,0.9-0.1
					c1.1-0.2,2.6-0.5,2,1.2c1.2-0.5,3.1,0.8,1,2.2c1.4,0,2.1,1.4-0.9,2.1c0.9,1.6-0.3,2.3-2.7,2.6l-0.5,0.1
					c-13.3,1.1-29,9.2-39.6,17.5c0,0-0.4,0.4-0.9,0.9c-1.7,1.9-5.3,5.8-4.9,2.7c-5.6,5.4-3.4,0.1-0.7-1.7l0.2-0.1
					c-0.1-0.2,0-0.5,0.1-0.7c-5.5,5.8-5.9,2.7-1-1.4l0.5-0.4c0.3-1.1,2.3-2.8,2.9-3.4c-0.1,0-0.3,0-0.4-0.1
					c-0.7,1.4-8.7,8.2-4.7,2.4l0.3-0.4c-0.1,0-0.1-0.1-0.2-0.1c0,0-0.1,0.1-0.1,0.1c-0.6,0.6-2.4,2.6-3.1,1.8
					c9.9-12.9,28.9-28.4,46.6-26.9c0.2,0.1,0.3,0.1,0.4,0c0.3-0.2,0.7-0.4,2.3,0.4C429.1,294.9,429.2,294.8,429.4,294.7z
					 M297.4,435.1c0,0.1,0,0.2,0,0.2c0.3-0.2,0.5-0.4,0.7-0.6l0.4-0.4l-0.4,0.4C297.8,434.8,297.6,435,297.4,435.1z"/>
			</g>
		</g>
		<g transform="translate(159 186)">
			<g>
				<path class="st1" d="M-24.4,29.9l-0.4,0.4l-0.6,0.6c-2.9,2.8-6.1,6.7-5.6,10.7c0.1,0.6,0.4,1.3,1.1,1.4c3,0.5,5.9-0.6,8.7-1.7
					c0.7-0.3,1.5-0.6,2.2-0.8l2.3-0.8c3.5-1.2,6.9-2.3,10.5-3.1c4.4-1,9-1.6,13.5-1.5c1.3,0,2.6,0.1,4,0.2c3.4,0.3,6.8,0.6,10-0.7
					c4.9-2,7.4-7.9,3.2-12.1c-7.9-8-24.7-4.9-34.1-1.3C-15.1,23.4-20.2,26-24.4,29.9z M134.6,34.3c6.2,2.8,11,6.9,16.5,10.7
					c0.9,0.6,0.3,1.8-0.7,1.6l-0.6-0.1c-1.5-0.1-3-0.1-4.5,0.1c-0.4,0-0.5-0.6-0.1-0.6l1.1-0.1c-4.6-0.7-9.3-1-13.8-1.8
					c-6-1.1-11.9-2.3-17.9-3.3c-12-2-24.3-1.4-36.2-3.3c-3.6-0.6-5.7-4.8-5.3-8.1c0.5-3.9,3.5-6,7.3-6.4c10.2-1.2,21.5,1.2,31.8,3.9
					l1.5,0.4l2.2,0.6l2.2,0.6C123.6,29.9,129.2,31.9,134.6,34.3z M-12.3,64.9c0.8,0.8,1.3,1.8,1.6,2.8c0.5,2.7,2,5.2,4.1,6.8
					c1.8,1.4,4,2.1,6.5,1.7c2.7-0.4,5.2-2.2,7-4.2c0.5-0.6,0.9-1.2,1.3-1.8l0.2-0.4c0.9-1.4,1.7-2.8,2.9-3.8
					c0.5-0.4,1.1-0.7,1.8-0.7c0.3,0,0.5,0,0.8,0.1c2.7,2.7,3.2,4.7,3.1,6.7c-0.1,2.1-0.9,4.3-2.3,6.2c-3.2,4.7-9.2,8.5-13.2,9.4
					c-5.5,1.2-11-0.2-15.5-3.3c-4.5-3.2-7.9-8.1-9-13.7c-0.3-1.3-0.1-2.8,0.4-4c0.5-1.2,1.4-2.3,2.6-2.9c1.7-0.9,3-1.1,4.8-0.6
					C-14.1,63.5-13,64.1-12.3,64.9z M102.1,86.6c-2.8-3-4.3-7.6-5-11.6c-0.4-2.5-1.6-4.1-3-5.2c-1.7-1.2-3.9-1.6-5.9-1.3
					c-2.2,0.4-4.2,1.6-5.3,3.4c-1,1.6-1.3,3.7-0.3,6c0.5,1.2,1,2.4,1.4,3.6l0.4,1c2.1,5.3,4.4,10.5,8.8,14.5
					c5.5,5,13.1,6.5,20.2,4.6c4.2-1.2,11.3-6.1,16.1-12.8c3.6-5,5.9-10.9,5.1-16.8c-0.1-0.6-0.5-1.4-1.5-2c-0.5-0.3-1.2-0.5-1.8-0.6
					c-0.7-0.1-1.4,0.1-2,0.4c-0.7,0.4-1.2,1-1.3,1.9c-0.6,4.1-2.9,7.6-5.7,10.4c-4,4.1-9.1,6.8-11.8,7.3c-3.4,0.7-6.1-0.5-8.1-2.5
					L102.1,86.6z M50.9,119.7c0.3-0.3,0.7-0.5,1-0.8c6.3-4,13.4,6.3,7.5,11c-49,36.3-68.9-29.8-30.5-36.4c4.2-0.7,5.8,4,3.8,5.4
					c-7.6,4.6-19.1,15.3-10.9,26.7C30.9,135.1,43.9,125.1,50.9,119.7z M12,170.9c0.2-1.4,1.1-2.6,2.4-3.7c2.8-2.4,7.4-3.9,11.2-3.1
					c2.1,0.5,4,1.4,5.9,2.5l1.9,1.1c2.7,1.5,5.5,2.9,9,2.9c4.5,0,8.2-2.7,10.8-5.4c0.5-0.5,1.2-0.9,2-1c0.6-0.1,1.3-0.1,1.8,0.2
					c1.6,1.1,2.5,2.3,2.9,3.7c0.5,1.5,0.2,3.1-0.4,4.7c-1.7,4-6,7.8-10.6,9.7l-0.5,0.2c-6.1,2.3-13.1,2.4-19.5,0.9
					c-6.7-1.6-12.7-4.9-16-9.2C12.1,173.2,11.8,172,12,170.9z"/>
			</g>
		</g>
		<g transform="translate(123 338)">
		</g>
		<g transform="translate(47 241)">
		</g>
	</g>
</g>
</svg>
